<?xml version="1.0" encoding="UTF-8" standalone="no"?>
<!-- Created with Inkscape (http://www.inkscape.org/) -->

<svg
   width="296"
   height="296"
   viewBox="0 0 296 296"
   id="svg2"
   version="1.1"
   xmlns="http://www.w3.org/2000/svg"
   xmlns:svg="http://www.w3.org/2000/svg">
  <defs
     id="defs4" />
  <path
     id="path867"
     style="fill:#ffffff;fill-opacity:1;stroke:#ffffff;stroke-width:0"
     d="M 148,0 A 148,148 0 0 0 0,148 148,148 0 0 0 148,296 148,148 0 0 0 296,148 148,148 0 0 0 148,0 Z m -7,20 h 7 c 70.57393,0 128,57.426069 128,128 0,70.57393 -57.42607,128 -128,128 C 77.426069,276 20,218.57393 20,148 20,124.71065 26.275878,102.82119 37.166016,84 l 17.3125,10.015625 C 45.280841,109.91176 40,128.29455 40,148 40,207.76514 88.234861,256 148,256 207.76514,256 256,207.76514 256,148 256,88.234861 207.76514,40 148,40 h -7 C 117.13333,40 98,59.133333 98,83 v 90 c 0,11.16414 8.83586,20 20,20 h 60 c 11.16414,0 20,-8.83586 20,-20 v -50 c 0,-5.64128 -4.35872,-10 -10,-10 -5.64128,0 -10,4.35872 -10,10 v 50 h -20 v -50 c 0,-5.64128 -4.35872,-10 -10,-10 -5.64128,0 -10,4.35872 -10,10 v 50 h -20 v -50 c 0,-16.45008 13.54992,-30 30,-30 7.68494,0 14.66678,3.038586 20,7.86719 C 173.33322,96.038586 180.31506,93 188,93 c 16.45008,0 30,13.54992 30,30 v 50 c 0,21.97292 -18.02708,40 -40,40 H 118 C 96.02708,213 78,194.97292 78,173 V 83 c 0,-34.675458 28.32454,-63 63,-63 z" />
</svg>
