<?xml version="1.0" encoding="UTF-8" standalone="no"?>
<svg
   xmlns:dc="http://purl.org/dc/elements/1.1/"
   xmlns:cc="http://creativecommons.org/ns#"
   xmlns:rdf="http://www.w3.org/1999/02/22-rdf-syntax-ns#"
   xmlns:svg="http://www.w3.org/2000/svg"
   xmlns="http://www.w3.org/2000/svg"
   xmlns:sodipodi="http://sodipodi.sourceforge.net/DTD/sodipodi-0.dtd"
   xmlns:inkscape="http://www.inkscape.org/namespaces/inkscape"
   width="1280"
   height="256"
   viewBox="0 0 1280 256"
   id="svg2"
   version="1.1"
   inkscape:version="1.0.2 (1.0.2+r75+1)"
   sodipodi:docname="linuxmint-logo2-name-00E000.svg"
   inkscape:export-filename="/home/sebastien/linuxmint-logo/linuxmint-logo2-name-00E000.png"
   inkscape:export-xdpi="96"
   inkscape:export-ydpi="96">
  <title
     id="title3343">LinuxMint logo</title>
  <defs
     id="defs4" />
  <sodipodi:namedview
     id="base"
     pagecolor="#ffffff"
     bordercolor="#666666"
     borderopacity="1.0"
     inkscape:pageopacity="0"
     inkscape:pageshadow="2"
     inkscape:zoom="1"
     inkscape:cx="625"
     inkscape:cy="128"
     inkscape:document-units="px"
     inkscape:current-layer="layer3"
     showgrid="false"
     inkscape:window-width="506"
     inkscape:window-height="546"
     inkscape:window-x="512"
     inkscape:window-y="0"
     inkscape:window-maximized="0"
     showguides="false"
     inkscape:guide-bbox="true"
     units="px"
     fit-margin-top="0"
     fit-margin-left="0"
     fit-margin-right="0"
     fit-margin-bottom="0"
     showborder="true"
     inkscape:showpageshadow="false"
     inkscape:document-rotation="0"
     guidecolor="#808080"
     guideopacity="0.25098039"
     guidehicolor="#ff0000"
     guidehiopacity="0.25098039"
     objecttolerance="10"
     gridtolerance="10"
     guidetolerance="10"
     inkscape:lockguides="true">
    <inkscape:grid
       type="xygrid"
       id="grid4139"
       spacingx="16"
       spacingy="16"
       empspacing="2"
       originx="16"
       originy="0"
       empcolor="#ff0000"
       empopacity="0.14901961"
       color="#0000ff"
       opacity="0.10196078" />
    <sodipodi:guide
       position="0,202"
       orientation="0,-1"
       id="guide861"
       inkscape:locked="true" />
    <sodipodi:guide
       position="0,256"
       orientation="1,0"
       id="guide873"
       inkscape:locked="true" />
    <sodipodi:guide
       position="1280,256"
       orientation="1,0"
       id="guide875"
       inkscape:locked="true" />
    <sodipodi:guide
       position="0,210"
       orientation="0,1280"
       id="guide889"
       inkscape:locked="true" />
    <sodipodi:guide
       position="0,46"
       orientation="0,1280"
       id="guide891"
       inkscape:locked="true" />
    <sodipodi:guide
       position="0,128"
       orientation="0,1280"
       inkscape:locked="true"
       id="guide857" />
  </sodipodi:namedview>
  <metadata
     id="metadata7">
    <rdf:RDF>
      <cc:Work
         rdf:about="">
        <dc:format>image/svg+xml</dc:format>
        <dc:type
           rdf:resource="http://purl.org/dc/dcmitype/StillImage" />
        <dc:title>LinuxMint logo</dc:title>
        <dc:date>2018-10-26</dc:date>
        <dc:creator>
          <cc:Agent>
            <dc:title />
          </cc:Agent>
        </dc:creator>
        <dc:publisher>
          <cc:Agent>
            <dc:title>LinuxMint</dc:title>
          </cc:Agent>
        </dc:publisher>
        <dc:description>2018 LinuxMint logo, re-created from 2007 LinuxMint logo.</dc:description>
        <dc:source />
        <dc:subject>
          <rdf:Bag>
            <rdf:li>LinuxMint</rdf:li>
            <rdf:li>logo</rdf:li>
          </rdf:Bag>
        </dc:subject>
        <cc:license
           rdf:resource="https://www.gnu.org/licenses/gpl-3.0.html" />
        <dc:rights>
          <cc:Agent>
            <dc:title>SPDX-License-Identifier: GPL-3.0-or-later</dc:title>
          </cc:Agent>
        </dc:rights>
        <dc:identifier />
        <dc:coverage>Worldwide</dc:coverage>
        <dc:contributor>
          <cc:Agent>
            <dc:title />
          </cc:Agent>
        </dc:contributor>
        <dc:relation>N/A</dc:relation>
        <dc:language>N/A</dc:language>
      </cc:Work>
    </rdf:RDF>
  </metadata>
  <g
     inkscape:groupmode="layer"
     id="layer3"
     inkscape:label="AllVectors"
     transform="translate(-80,-88)"
     sodipodi:insensitive="true">
    <g
       id="g2554">
      <circle
         style="opacity:1;fill:#ffffff;fill-opacity:1;stroke:none;stroke-width:0;stroke-linecap:round"
         id="circle916"
         cx="208"
         cy="216"
         r="128" />
      <path
         id="path833"
         style="opacity:1;fill:#00e000;stroke:none;stroke-width:0;stroke-linecap:round"
         d="M 127.67578,0 A 128,128 0 0 0 63,17.732422 V 158 c 0,14.51339 11.48661,26 26,26 h 78 c 14.51339,0 26,-11.48661 26,-26 V 93 c 0,-7.33368 -5.66632,-13 -13,-13 -7.33368,0 -13,5.66632 -13,13 v 65 H 141 V 93 c 0,-7.33368 -5.66632,-13 -13,-13 -7.33368,0 -13,5.66632 -13,13 v 65 H 89 V 93 c 0,-21.38512 17.61488,-39 39,-39 9.99043,0 19.06681,3.949393 26,10.226562 C 160.93319,57.949393 170.00957,54 180,54 c 21.38512,0 39,17.61488 39,39 v 65 c 0,28.56483 -23.43517,52 -52,52 H 89 C 60.43517,210 37,186.56483 37,158 V 37.982422 A 128,128 0 0 0 0,128 128,128 0 0 0 128,256 128,128 0 0 0 256,128 128,128 0 0 0 128,0 128,128 0 0 0 127.67578,0 Z"
         transform="translate(80,88)" />
    </g>
    <g
       aria-label="LinuxMint"
       id="text14"
       style="font-size:225px;line-height:1.25;font-family:Ubuntu;-inkscape-font-specification:Ubuntu;text-align:center;letter-spacing:-6px;text-anchor:middle;opacity:1;fill:#00e000;fill-opacity:1;stroke:none;stroke-width:0;stroke-linecap:round;stroke-miterlimit:4;stroke-dasharray:none">
      <path
         d="m 477.82499,279.20001 v 18.9 h -93.825 v -155.925 h 21.825 v 137.025 z"
         style="font-style:normal;font-variant:normal;font-weight:normal;font-stretch:normal;font-size:225px;font-family:Ubuntu;-inkscape-font-specification:Ubuntu;text-align:start;text-anchor:start;fill:#00e000;fill-opacity:1;stroke:none;stroke-width:0;stroke-miterlimit:4;stroke-dasharray:none"
         id="path900" />
      <path
         d="m 514.34979,298.10001 h -20.925 v -117 h 20.925 z m -10.575,-138.15 q -5.625,0 -9.675,-3.6 -3.825,-3.825 -3.825,-10.125 0,-6.3 3.825,-9.9 4.05,-3.825 9.675,-3.825 5.625,0 9.45,3.825 4.05,3.6 4.05,9.9 0,6.3 -4.05,10.125 -3.825,3.6 -9.45,3.6 z"
         style="font-style:normal;font-variant:normal;font-weight:normal;font-stretch:normal;font-size:225px;font-family:Ubuntu;-inkscape-font-specification:Ubuntu;text-align:start;text-anchor:start;fill:#00e000;fill-opacity:1;stroke:none;stroke-width:0;stroke-miterlimit:4;stroke-dasharray:none"
         id="path902" />
      <path
         d="m 544.34943,184.47501 q 7.2,-1.8 19.125,-3.825 11.925,-2.025 27.45,-2.025 13.95,0 23.175,4.05 9.225,3.825 14.625,11.025 5.625,6.975 7.875,16.875 2.25,9.9 2.25,21.825 v 65.7 h -20.925 v -61.2 q 0,-10.8 -1.575,-18.45 -1.35,-7.65 -4.725,-12.375 -3.375,-4.725 -9,-6.75 -5.625,-2.25 -13.95,-2.25 -3.375,0 -6.975,0.225 -3.6,0.225 -6.975,0.675 -3.15,0.225 -5.85,0.675 -2.475,0.45 -3.6,0.675 v 98.775 h -20.925 z"
         style="font-style:normal;font-variant:normal;font-weight:normal;font-stretch:normal;font-size:225px;font-family:Ubuntu;-inkscape-font-specification:Ubuntu;text-align:start;text-anchor:start;fill:#00e000;fill-opacity:1;stroke:none;stroke-width:0;stroke-miterlimit:4;stroke-dasharray:none"
         id="path904" />
      <path
         d="m 758.6493,294.72501 q -7.2,1.8 -19.125,3.825 -11.7,2.025 -27.225,2.025 -13.5,0 -22.725,-3.825 -9.225,-4.05 -14.85,-11.25 -5.625,-7.2 -8.1,-16.875 -2.475,-9.9 -2.475,-21.825 v -65.7 h 20.925 v 61.2 q 0,21.375 6.75,30.6 6.75,9.225 22.725,9.225 3.375,0 6.975,-0.225 3.6,-0.225 6.75,-0.45 3.15,-0.45 5.625,-0.675 2.7,-0.45 3.825,-0.9 v -98.775 h 20.925 z"
         style="font-style:normal;font-variant:normal;font-weight:normal;font-stretch:normal;font-size:225px;font-family:Ubuntu;-inkscape-font-specification:Ubuntu;text-align:start;text-anchor:start;fill:#00e000;fill-opacity:1;stroke:none;stroke-width:0;stroke-miterlimit:4;stroke-dasharray:none"
         id="path906" />
      <path
         d="m 857.62417,298.10001 q -2.475,-4.95 -6.075,-11.025 -3.6,-6.075 -7.875,-12.375 -4.275,-6.525 -8.775,-12.825 -4.5,-6.3 -8.775,-11.925 -4.275,5.625 -8.775,12.15 -4.5,6.3 -8.775,12.825 -4.05,6.3 -7.65,12.375 -3.6,6.075 -6.075,10.8 h -21.6 q 7.875,-15.3 18.675,-31.05 11.025,-15.975 21.825,-30.375 l -38.7,-55.575 h 23.625 l 27.9,40.95 28.125,-40.95 h 22.275 l -37.8,54.225 q 10.8,14.625 22.05,31.05 11.475,16.2 19.35,31.725 z"
         style="font-style:normal;font-variant:normal;font-weight:normal;font-stretch:normal;font-size:225px;font-family:Ubuntu;-inkscape-font-specification:Ubuntu;text-align:start;text-anchor:start;fill:#00e000;fill-opacity:1;stroke:none;stroke-width:0;stroke-miterlimit:4;stroke-dasharray:none"
         id="path908" />
      <path
         d="m 967.94911,276.50001 q -2.25,-5.4 -6.075,-13.725 -3.6,-8.325 -7.875,-18 -4.275,-9.675 -9.225,-19.8 -4.725,-10.35 -9,-19.35 -4.275,-9.225 -8.1,-16.425 -3.6,-7.2 -5.85,-11.025 -2.475,26.55 -4.05,57.6 -1.575,30.825 -2.7,62.325 h -21.375 q 0.9,-20.25 2.025,-40.725 1.125,-20.7 2.475,-40.5 1.575,-20.025 3.15,-38.925 1.8,-18.9 3.825,-35.775 h 19.125 q 6.075,9.9 13.05,23.4 6.975,13.5 13.95,28.35 6.975,14.625 13.5,29.475 6.525,14.625 11.925,26.775 5.4,-12.15 11.925,-26.775 6.525,-14.85 13.49999,-29.475 6.975,-14.85 13.95,-28.35 6.975,-13.5 13.05,-23.4 h 19.125 q 7.65,75.375 11.475,155.925 h -21.375 q -1.125,-31.5 -2.7,-62.325 -1.575,-31.05 -4.05,-57.6 -2.25,3.825 -6.075,11.025 -3.6,7.2 -7.875,16.425 -4.275,9 -9.225,19.35 -4.725,10.125 -8.99999,19.8 -4.275,9.675 -8.1,18 -3.6,8.325 -5.85,13.725 z"
         style="font-style:normal;font-variant:normal;font-weight:normal;font-stretch:normal;font-size:225px;font-family:Ubuntu;-inkscape-font-specification:Ubuntu;text-align:start;text-anchor:start;fill:#00e000;fill-opacity:1;stroke:none;stroke-width:0;stroke-miterlimit:4;stroke-dasharray:none"
         id="path910" />
      <path
         d="m 1107.5237,298.10001 h -20.925 v -117 h 20.925 z m -10.575,-138.15 q -5.625,0 -9.675,-3.6 -3.825,-3.825 -3.825,-10.125 0,-6.3 3.825,-9.9 4.05,-3.825 9.675,-3.825 5.625,0 9.45,3.825 4.05,3.6 4.05,9.9 0,6.3 -4.05,10.125 -3.825,3.6 -9.45,3.6 z"
         style="font-style:normal;font-variant:normal;font-weight:normal;font-stretch:normal;font-size:225px;font-family:Ubuntu;-inkscape-font-specification:Ubuntu;text-align:start;text-anchor:start;fill:#00e000;fill-opacity:1;stroke:none;stroke-width:0;stroke-miterlimit:4;stroke-dasharray:none"
         id="path912" />
      <path
         d="m 1137.5233,184.47501 q 7.2,-1.8 19.125,-3.825 11.925,-2.025 27.45,-2.025 13.95,0 23.175,4.05 9.225,3.825 14.625,11.025 5.625,6.975 7.875,16.875 2.25,9.9 2.25,21.825 v 65.7 h -20.925 v -61.2 q 0,-10.8 -1.575,-18.45 -1.35,-7.65 -4.725,-12.375 -3.375,-4.725 -9,-6.75 -5.625,-2.25 -13.95,-2.25 -3.375,0 -6.975,0.225 -3.6,0.225 -6.975,0.675 -3.15,0.225 -5.85,0.675 -2.475,0.45 -3.6,0.675 v 98.775 h -20.925 z"
         style="font-style:normal;font-variant:normal;font-weight:normal;font-stretch:normal;font-size:225px;font-family:Ubuntu;-inkscape-font-specification:Ubuntu;text-align:start;text-anchor:start;fill:#00e000;fill-opacity:1;stroke:none;stroke-width:0;stroke-miterlimit:4;stroke-dasharray:none"
         id="path914" />
      <path
         d="m 1279.2482,181.10001 h 44.325 v 17.55 h -44.325 v 54 q 0,8.775 1.35,14.625 1.35,5.625 4.05,9 2.7,3.15 6.75,4.5 4.05,1.35 9.45,1.35 9.45,0 15.075,-2.025 5.85,-2.25 8.1,-3.15 l 4.05,17.325 q -3.15,1.575 -11.025,3.825 -7.875,2.475 -18,2.475 -11.925,0 -19.8,-2.925 -7.65,-3.15 -12.375,-9.225 -4.725,-6.075 -6.75,-14.85 -1.8,-9 -1.8,-20.7 v -104.4 l 20.925,-3.6 z"
         style="font-style:normal;font-variant:normal;font-weight:normal;font-stretch:normal;font-size:225px;font-family:Ubuntu;-inkscape-font-specification:Ubuntu;text-align:start;text-anchor:start;fill:#00e000;fill-opacity:1;stroke:none;stroke-width:0;stroke-miterlimit:4;stroke-dasharray:none"
         id="path916" />
    </g>
  </g>
  <g
     inkscape:groupmode="layer"
     id="layer1"
     inkscape:label="FontOrigin"
     style="display:none"
     sodipodi:insensitive="true">
    <text
       xml:space="preserve"
       style="font-size:225px;line-height:1.25;font-family:Ubuntu;-inkscape-font-specification:Ubuntu;text-align:center;letter-spacing:-6px;text-anchor:middle;opacity:1;fill:#000000;fill-opacity:1;stroke:#808080;stroke-width:0;stroke-linecap:round;stroke-miterlimit:4;stroke-dasharray:none"
       x="364.64999"
       y="298.10001"
       id="text896"
       transform="translate(-80,-88)"><tspan
         sodipodi:role="line"
         id="tspan894"
         x="364.64999"
         y="298.10001"
         style="font-style:normal;font-variant:normal;font-weight:normal;font-stretch:normal;font-size:225px;font-family:Ubuntu;-inkscape-font-specification:Ubuntu;text-align:start;text-anchor:start;fill:#000000;fill-opacity:1;stroke:none;stroke-width:0;stroke-miterlimit:4;stroke-dasharray:none"
         dx="0 0 0 -2 -1 0 0 0 -1">LinuxMint</tspan></text>
  </g>
</svg>
