<?xml version="1.0" encoding="UTF-8" standalone="no"?>
<svg
   xmlns:dc="http://purl.org/dc/elements/1.1/"
   xmlns:cc="http://creativecommons.org/ns#"
   xmlns:rdf="http://www.w3.org/1999/02/22-rdf-syntax-ns#"
   xmlns:svg="http://www.w3.org/2000/svg"
   xmlns="http://www.w3.org/2000/svg"
   xmlns:sodipodi="http://sodipodi.sourceforge.net/DTD/sodipodi-0.dtd"
   xmlns:inkscape="http://www.inkscape.org/namespaces/inkscape"
   width="1220"
   height="256"
   viewBox="0 0 1220 256"
   id="svg2"
   version="1.1"
   inkscape:version="1.0.2 (1.0.2+r75+1)"
   sodipodi:docname="linuxmint-logo2-name-oxa-00E000.svg"
   inkscape:export-filename="/home/sebastien/linuxmint-logo/linuxmint-logo2-name-00E000.png"
   inkscape:export-xdpi="96"
   inkscape:export-ydpi="96">
  <title
     id="title3343">LinuxMint logo</title>
  <defs
     id="defs4" />
  <sodipodi:namedview
     id="base"
     pagecolor="#ffffff"
     bordercolor="#666666"
     borderopacity="1.0"
     inkscape:pageopacity="0"
     inkscape:pageshadow="2"
     inkscape:zoom="1"
     inkscape:cx="541.2332"
     inkscape:cy="128"
     inkscape:document-units="px"
     inkscape:current-layer="layer3"
     showgrid="false"
     inkscape:window-width="506"
     inkscape:window-height="546"
     inkscape:window-x="512"
     inkscape:window-y="0"
     inkscape:window-maximized="0"
     showguides="false"
     inkscape:guide-bbox="true"
     units="px"
     fit-margin-top="0"
     fit-margin-left="0"
     fit-margin-right="0"
     fit-margin-bottom="0"
     showborder="true"
     inkscape:showpageshadow="false"
     inkscape:document-rotation="0"
     guidecolor="#808080"
     guideopacity="0.25098039"
     guidehicolor="#ff0000"
     guidehiopacity="0.25098039"
     objecttolerance="10"
     gridtolerance="10"
     guidetolerance="10"
     inkscape:lockguides="true"
     inkscape:snap-bbox="true"
     inkscape:snap-text-baseline="true">
    <inkscape:grid
       type="xygrid"
       id="grid4139"
       spacingx="16"
       spacingy="16"
       empspacing="2"
       originx="16"
       originy="0"
       empcolor="#ff0000"
       empopacity="0.14901961"
       color="#0000ff"
       opacity="0.10196078" />
    <sodipodi:guide
       position="0,202"
       orientation="0,-1"
       id="guide861"
       inkscape:locked="true" />
    <sodipodi:guide
       position="0,256"
       orientation="1,0"
       id="guide873"
       inkscape:locked="true" />
    <sodipodi:guide
       position="1280,256"
       orientation="1,0"
       id="guide875"
       inkscape:locked="true" />
    <sodipodi:guide
       position="0,46"
       orientation="0,1280"
       id="guide891"
       inkscape:locked="true" />
    <sodipodi:guide
       position="0,128"
       orientation="0,1280"
       inkscape:locked="true"
       id="guide857" />
    <sodipodi:guide
       position="304,256"
       orientation="256,0"
       inkscape:locked="true"
       id="guide921" />
  </sodipodi:namedview>
  <metadata
     id="metadata7">
    <rdf:RDF>
      <cc:Work
         rdf:about="">
        <dc:format>image/svg+xml</dc:format>
        <dc:type
           rdf:resource="http://purl.org/dc/dcmitype/StillImage" />
        <dc:title>LinuxMint logo</dc:title>
        <dc:date>2018-10-26</dc:date>
        <dc:creator>
          <cc:Agent>
            <dc:title />
          </cc:Agent>
        </dc:creator>
        <dc:publisher>
          <cc:Agent>
            <dc:title>LinuxMint</dc:title>
          </cc:Agent>
        </dc:publisher>
        <dc:description>2018 LinuxMint logo, re-created from 2007 LinuxMint logo.</dc:description>
        <dc:source />
        <dc:subject>
          <rdf:Bag>
            <rdf:li>LinuxMint</rdf:li>
            <rdf:li>logo</rdf:li>
          </rdf:Bag>
        </dc:subject>
        <cc:license
           rdf:resource="https://www.gnu.org/licenses/gpl-3.0.html" />
        <dc:rights>
          <cc:Agent>
            <dc:title>SPDX-License-Identifier: GPL-3.0-or-later</dc:title>
          </cc:Agent>
        </dc:rights>
        <dc:identifier />
        <dc:coverage>Worldwide</dc:coverage>
        <dc:contributor>
          <cc:Agent>
            <dc:title />
          </cc:Agent>
        </dc:contributor>
        <dc:relation>N/A</dc:relation>
        <dc:language>N/A</dc:language>
      </cc:Work>
    </rdf:RDF>
  </metadata>
  <g
     inkscape:groupmode="layer"
     id="layer3"
     inkscape:label="AllVectors"
     transform="translate(-80,-88)"
     style="display:inline"
     sodipodi:insensitive="true">
    <g
       id="g2554">
      <circle
         style="opacity:1;fill:#ffffff;fill-opacity:1;stroke:none;stroke-width:0;stroke-linecap:round"
         id="circle916"
         cx="208"
         cy="216"
         r="128" />
      <path
         id="path833"
         style="opacity:1;fill:#00e000;stroke:none;stroke-width:0;stroke-linecap:round"
         d="M 127.67578,0 A 128,128 0 0 0 63,17.732422 V 158 c 0,14.51339 11.48661,26 26,26 h 78 c 14.51339,0 26,-11.48661 26,-26 V 93 c 0,-7.33368 -5.66632,-13 -13,-13 -7.33368,0 -13,5.66632 -13,13 v 65 H 141 V 93 c 0,-7.33368 -5.66632,-13 -13,-13 -7.33368,0 -13,5.66632 -13,13 v 65 H 89 V 93 c 0,-21.38512 17.61488,-39 39,-39 9.99043,0 19.06681,3.949393 26,10.226562 C 160.93319,57.949393 170.00957,54 180,54 c 21.38512,0 39,17.61488 39,39 v 65 c 0,28.56483 -23.43517,52 -52,52 H 89 C 60.43517,210 37,186.56483 37,158 V 37.982422 A 128,128 0 0 0 0,128 128,128 0 0 0 128,256 128,128 0 0 0 256,128 128,128 0 0 0 128,0 128,128 0 0 0 127.67578,0 Z"
         transform="translate(80,88)" />
    </g>
    <g
       aria-label="LinuxMint"
       transform="translate(80,88)"
       id="text929"
       style="font-size:225px;line-height:1.25;font-family:Ubuntu;-inkscape-font-specification:Ubuntu;text-align:center;letter-spacing:-10px;text-anchor:middle;display:inline;opacity:1;fill:#00e000;fill-opacity:1;stroke:none;stroke-width:0;stroke-linecap:round;stroke-miterlimit:4;stroke-dasharray:none">
      <path
         d="M 304,210 V 54.75 h 18.9 V 192.9 h 75.6 V 210 Z"
         style="font-style:normal;font-variant:normal;font-weight:normal;font-stretch:normal;font-size:225px;font-family:Oxanium;-inkscape-font-specification:Oxanium;text-align:start;text-anchor:start;fill:#00e000;fill-opacity:1;stroke:none;stroke-width:0;stroke-miterlimit:4;stroke-dasharray:none"
         id="path933" />
      <path
         d="m 410.99966,71.175 v -21.15 h 19.8 v 21.15 z m 0.9,138.825 V 93 h 18 v 117 z"
         style="font-style:normal;font-variant:normal;font-weight:normal;font-stretch:normal;font-size:225px;font-family:Oxanium;-inkscape-font-specification:Oxanium;text-align:start;text-anchor:start;fill:#00e000;fill-opacity:1;stroke:none;stroke-width:0;stroke-miterlimit:4;stroke-dasharray:none"
         id="path935" />
      <path
         d="M 455.8996,210 V 93 h 63 q 33.75,0 33.75,33.75 V 210 h -18 v -85.5 q 0,-15.75 -15.75,-15.75 h -45 V 210 Z"
         style="font-style:normal;font-variant:normal;font-weight:normal;font-stretch:normal;font-size:225px;font-family:Oxanium;-inkscape-font-specification:Oxanium;text-align:start;text-anchor:start;fill:#00e000;fill-opacity:1;stroke:none;stroke-width:0;stroke-miterlimit:4;stroke-dasharray:none"
         id="path937" />
      <path
         d="M 576.84927,176.25 V 93 h 18 v 85.5 q 0,15.75 15.75,15.75 h 45 V 93 h 18 v 117 h -63 q -33.75,0 -33.75,-33.75 z"
         style="font-style:normal;font-variant:normal;font-weight:normal;font-stretch:normal;font-size:225px;font-family:Oxanium;-inkscape-font-specification:Oxanium;text-align:start;text-anchor:start;fill:#00e000;fill-opacity:1;stroke:none;stroke-width:0;stroke-miterlimit:4;stroke-dasharray:none"
         id="path939" />
      <path
         d="m 688.34894,206.625 41.4,-56.25 -39.825,-54 1.575,-3.375 h 16.65 l 31.95,44.325 31.95,-44.325 h 16.65 l 1.575,3.375 -39.6,54 41.175,56.25 -1.575,3.375 h -16.65 l -33.525,-46.575 -33.525,46.575 h -16.65 z"
         style="font-style:normal;font-variant:normal;font-weight:normal;font-stretch:normal;font-size:225px;font-family:Oxanium;-inkscape-font-specification:Oxanium;text-align:start;text-anchor:start;fill:#00e000;fill-opacity:1;stroke:none;stroke-width:0;stroke-miterlimit:4;stroke-dasharray:none"
         id="path941" />
      <path
         d="M 808.84863,210 V 54.75 h 24.975 l 51.975,110.25 51.75,-110.25 h 24.975 V 210 h -18.9 V 83.1 l -49.05,104.4 h -17.775 l -49.05,-104.4 V 210 Z"
         style="font-style:normal;font-variant:normal;font-weight:normal;font-stretch:normal;font-size:225px;font-family:Oxanium;-inkscape-font-specification:Oxanium;text-align:start;text-anchor:start;fill:#00e000;fill-opacity:1;stroke:none;stroke-width:0;stroke-miterlimit:4;stroke-dasharray:none"
         id="path943" />
      <path
         d="m 989.87338,71.175 v -21.15 h 19.80002 v 21.15 z m 0.9,138.825 V 93 h 18.00002 v 117 z"
         style="font-style:normal;font-variant:normal;font-weight:normal;font-stretch:normal;font-size:225px;font-family:Oxanium;-inkscape-font-specification:Oxanium;text-align:start;text-anchor:start;fill:#00e000;fill-opacity:1;stroke:none;stroke-width:0;stroke-miterlimit:4;stroke-dasharray:none"
         id="path945" />
      <path
         d="M 1034.7733,210 V 93 h 63 q 33.75,0 33.75,33.75 V 210 h -18 v -85.5 q 0,-15.75 -15.75,-15.75 h -45 V 210 Z"
         style="font-style:normal;font-variant:normal;font-weight:normal;font-stretch:normal;font-size:225px;font-family:Oxanium;-inkscape-font-specification:Oxanium;text-align:start;text-anchor:start;fill:#00e000;fill-opacity:1;stroke:none;stroke-width:0;stroke-miterlimit:4;stroke-dasharray:none"
         id="path947" />
      <path
         d="M 1155.723,176.25 V 54.75 h 18 V 93 h 42.75 v 15.75 h -42.75 v 69.75 q 0,15.75 15.75,15.75 h 29.25 v 9 l -9,6.75 h -20.25 q -33.75,0 -33.75,-33.75 z"
         style="font-style:normal;font-variant:normal;font-weight:normal;font-stretch:normal;font-size:225px;font-family:Oxanium;-inkscape-font-specification:Oxanium;text-align:start;text-anchor:start;fill:#00e000;fill-opacity:1;stroke:none;stroke-width:0;stroke-miterlimit:4;stroke-dasharray:none"
         id="path949" />
    </g>
  </g>
  <g
     inkscape:groupmode="layer"
     id="layer1"
     inkscape:label="FontOrigin"
     style="display:none"
     sodipodi:insensitive="true">
    <text
       xml:space="preserve"
       style="font-size:225px;line-height:1.25;font-family:Ubuntu;-inkscape-font-specification:Ubuntu;text-align:center;letter-spacing:-10px;text-anchor:middle;opacity:1;fill:#000000;fill-opacity:1;stroke:#808080;stroke-width:0;stroke-linecap:round;stroke-miterlimit:4;stroke-dasharray:none"
       x="283.75"
       y="210"
       id="text896"><tspan
         sodipodi:role="line"
         id="tspan894"
         x="283.75"
         y="210"
         style="font-style:normal;font-variant:normal;font-weight:normal;font-stretch:normal;font-size:225px;font-family:Oxanium;-inkscape-font-specification:Oxanium;text-align:start;text-anchor:start;fill:#00e000;fill-opacity:1;stroke:none;stroke-width:0;stroke-miterlimit:4;stroke-dasharray:none"
         dx="0 0 0 0 0 0 0 0 0">LinuxMint</tspan></text>
  </g>
</svg>
