<?xml version="1.0" encoding="UTF-8" standalone="no"?>
<svg
   inkscape:version="1.3.2 (091e20ef0f, 2023-11-25)"
   id="svg8"
   version="1.1"
   viewBox="0 0 1920 1080"
   height="1080"
   width="1920"
   sodipodi:docname="login-WP-Y-neg-v2.svg"
   inkscape:export-filename="preview.png"
   inkscape:export-xdpi="96"
   inkscape:export-ydpi="96"
   xmlns:inkscape="http://www.inkscape.org/namespaces/inkscape"
   xmlns:sodipodi="http://sodipodi.sourceforge.net/DTD/sodipodi-0.dtd"
   xmlns:xlink="http://www.w3.org/1999/xlink"
   xmlns="http://www.w3.org/2000/svg"
   xmlns:svg="http://www.w3.org/2000/svg"
   xmlns:rdf="http://www.w3.org/1999/02/22-rdf-syntax-ns#"
   xmlns:cc="http://creativecommons.org/ns#"
   xmlns:dc="http://purl.org/dc/elements/1.1/">
  <defs
     id="defs2">
    <linearGradient
       inkscape:collect="always"
       id="linearGradient1838">
      <stop
         style="stop-color:#009999;stop-opacity:1"
         offset="0"
         id="stop1834" />
      <stop
         style="stop-color:#9ad61f;stop-opacity:1"
         offset="1"
         id="stop1836" />
    </linearGradient>
    <clipPath
       clipPathUnits="userSpaceOnUse"
       id="clipPath910">
      <circle
         style="opacity:0.5;fill:#ffffff;fill-opacity:1;stroke:none;stroke-width:0;stroke-linecap:round;stroke-miterlimit:4;stroke-dasharray:none"
         id="circle912"
         cx="105.83333"
         cy="148.16666"
         r="26.458332" />
    </clipPath>
    <clipPath
       clipPathUnits="userSpaceOnUse"
       id="clipPath910-7">
      <circle
         style="opacity:0.5;fill:#ffffff;fill-opacity:1;stroke:none;stroke-width:0;stroke-linecap:round;stroke-miterlimit:4;stroke-dasharray:none"
         id="circle912-5"
         cx="105.83333"
         cy="148.16666"
         r="26.458332" />
    </clipPath>
    <filter
       id="mask-powermask-path-effect2702_inverse"
       inkscape:label="filtermask-powermask-path-effect2702"
       style="color-interpolation-filters:sRGB"
       height="100"
       width="100"
       x="-50"
       y="-50">
      <feColorMatrix
         id="mask-powermask-path-effect2702_primitive1"
         values="1"
         type="saturate"
         result="fbSourceGraphic" />
      <feColorMatrix
         id="mask-powermask-path-effect2702_primitive2"
         values="-1 0 0 0 1 0 -1 0 0 1 0 0 -1 0 1 0 0 0 1 0 "
         in="fbSourceGraphic" />
    </filter>
    <clipPath
       clipPathUnits="userSpaceOnUse"
       id="clipPath3251">
      <circle
         style="opacity:0.5;mix-blend-mode:normal;fill:#ffffff;fill-opacity:1;stroke:none;stroke-width:0"
         id="circle3253"
         clip-path="none"
         cy="26.458332"
         cx="26.458332"
         r="26.458332" />
    </clipPath>
    <clipPath
       clipPathUnits="userSpaceOnUse"
       id="clipPath4002">
      <circle
         style="opacity:1;fill:#000000;fill-opacity:1;stroke:none;stroke-width:0;stroke-linecap:round;stroke-miterlimit:4;stroke-dasharray:none"
         id="circle4004"
         cx="26.458332"
         cy="26.458332"
         r="26.458332" />
    </clipPath>
    <clipPath
       clipPathUnits="userSpaceOnUse"
       id="clipPath4348">
      <circle
         style="opacity:1;fill:#ffffff;fill-opacity:1;stroke:none;stroke-width:0;stroke-linecap:round;stroke-miterlimit:4;stroke-dasharray:none"
         id="circle4350"
         cx="26.458332"
         cy="26.458332"
         r="26.458332" />
    </clipPath>
    <filter
       id="mask-powermask-path-effect2702_inverse-7"
       inkscape:label="filtermask-powermask-path-effect2702"
       style="color-interpolation-filters:sRGB"
       height="100"
       width="100"
       x="-50"
       y="-50">
      <feColorMatrix
         id="mask-powermask-path-effect2702_primitive1-5"
         values="1"
         type="saturate"
         result="fbSourceGraphic" />
      <feColorMatrix
         id="mask-powermask-path-effect2702_primitive2-3"
         values="-1 0 0 0 1 0 -1 0 0 1 0 0 -1 0 1 0 0 0 1 0 "
         in="fbSourceGraphic" />
    </filter>
    <clipPath
       clipPathUnits="userSpaceOnUse"
       id="clipPath3251-5">
      <circle
         style="opacity:0.5;mix-blend-mode:normal;fill:#ffffff;fill-opacity:1;stroke:none;stroke-width:0"
         id="circle3253-6"
         clip-path="none"
         cy="26.458332"
         cx="26.458332"
         r="26.458332" />
    </clipPath>
    <clipPath
       clipPathUnits="userSpaceOnUse"
       id="clipPath4002-2">
      <circle
         style="opacity:1;fill:#000000;fill-opacity:1;stroke:none;stroke-width:0;stroke-linecap:round;stroke-miterlimit:4;stroke-dasharray:none"
         id="circle4004-9"
         cx="26.458332"
         cy="26.458332"
         r="26.458332" />
    </clipPath>
    <clipPath
       clipPathUnits="userSpaceOnUse"
       id="clipPath4348-1">
      <circle
         style="opacity:1;fill:#ffffff;fill-opacity:1;stroke:none;stroke-width:0;stroke-linecap:round;stroke-miterlimit:4;stroke-dasharray:none"
         id="circle4350-2"
         cx="26.458332"
         cy="26.458332"
         r="26.458332" />
    </clipPath>
    <clipPath
       clipPathUnits="userSpaceOnUse"
       id="clipPath1108">
      <circle
         style="fill:#ffffff;stroke:none;stroke-width:0;stroke-linecap:round;stroke-miterlimit:4;stroke-dasharray:none"
         id="circle1110"
         cx="26.458332"
         cy="26.458332"
         r="26.458332" />
    </clipPath>
    <filter
       id="mask-powermask-path-effect2702_inverse-75"
       inkscape:label="filtermask-powermask-path-effect2702"
       style="color-interpolation-filters:sRGB"
       height="100"
       width="100"
       x="-50"
       y="-50">
      <feColorMatrix
         id="mask-powermask-path-effect2702_primitive1-3"
         values="1"
         type="saturate"
         result="fbSourceGraphic" />
      <feColorMatrix
         id="mask-powermask-path-effect2702_primitive2-5"
         values="-1 0 0 0 1 0 -1 0 0 1 0 0 -1 0 1 0 0 0 1 0 "
         in="fbSourceGraphic" />
    </filter>
    <clipPath
       clipPathUnits="userSpaceOnUse"
       id="clipPath3251-6">
      <circle
         style="opacity:0.5;mix-blend-mode:normal;fill:#ffffff;fill-opacity:1;stroke:none;stroke-width:0"
         id="circle3253-2"
         clip-path="none"
         cy="26.458332"
         cx="26.458332"
         r="26.458332" />
    </clipPath>
    <clipPath
       clipPathUnits="userSpaceOnUse"
       id="clipPath4002-9">
      <circle
         style="opacity:1;fill:#000000;fill-opacity:1;stroke:none;stroke-width:0;stroke-linecap:round;stroke-miterlimit:4;stroke-dasharray:none"
         id="circle4004-1"
         cx="26.458332"
         cy="26.458332"
         r="26.458332" />
    </clipPath>
    <clipPath
       clipPathUnits="userSpaceOnUse"
       id="clipPath4348-2">
      <circle
         style="opacity:1;fill:#ffffff;fill-opacity:1;stroke:none;stroke-width:0;stroke-linecap:round;stroke-miterlimit:4;stroke-dasharray:none"
         id="circle4350-7"
         cx="26.458332"
         cy="26.458332"
         r="26.458332" />
    </clipPath>
    <clipPath
       clipPathUnits="userSpaceOnUse"
       id="clipPath1233">
      <circle
         style="fill:#ffffff;stroke:none;stroke-width:0;stroke-linecap:round;stroke-miterlimit:4;stroke-dasharray:none"
         id="circle1235"
         cx="26.458332"
         cy="26.458332"
         r="26.458332" />
    </clipPath>
    <linearGradient
       inkscape:collect="always"
       xlink:href="#linearGradient1838"
       id="linearGradient1840"
       x1="333.375"
       y1="1201.7084"
       x2="333.375"
       y2="121.70834"
       gradientUnits="userSpaceOnUse"
       gradientTransform="translate(-79.375001,-121.70833)" />
  </defs>
  <sodipodi:namedview
     units="px"
     showgrid="false"
     inkscape:document-rotation="0"
     inkscape:current-layer="layer1"
     inkscape:document-units="px"
     inkscape:cy="540"
     inkscape:cx="959.4533"
     inkscape:zoom="0.81296296"
     inkscape:pageshadow="2"
     inkscape:pageopacity="0"
     borderopacity="1.0"
     bordercolor="#666666"
     pagecolor="#cccccc"
     id="base"
     fit-margin-top="0"
     fit-margin-left="0"
     fit-margin-right="0"
     fit-margin-bottom="0"
     inkscape:snap-bbox="true"
     inkscape:bbox-paths="true"
     inkscape:bbox-nodes="true"
     inkscape:snap-bbox-edge-midpoints="true"
     inkscape:snap-bbox-midpoints="true"
     inkscape:object-paths="true"
     inkscape:snap-intersection-paths="true"
     inkscape:snap-smooth-nodes="true"
     inkscape:snap-midpoints="true"
     inkscape:snap-object-midpoints="true"
     inkscape:snap-center="true"
     inkscape:snap-text-baseline="true"
     inkscape:snap-page="true"
     inkscape:pagecheckerboard="0"
     inkscape:showpageshadow="2"
     inkscape:deskcolor="#cccccc"
     inkscape:window-width="1920"
     inkscape:window-height="1016"
     inkscape:window-x="0"
     inkscape:window-y="0"
     inkscape:window-maximized="1">
    <inkscape:grid
       type="xygrid"
       id="grid830"
       originx="253.99999"
       originy="142.875"
       empspacing="5"
       spacingy="1"
       spacingx="1"
       units="px"
       visible="false" />
  </sodipodi:namedview>
  <metadata
     id="metadata5">
    <rdf:RDF>
      <cc:Work
         rdf:about="">
        <dc:format>image/svg+xml</dc:format>
        <dc:type
           rdf:resource="http://purl.org/dc/dcmitype/StillImage" />
      </cc:Work>
    </rdf:RDF>
  </metadata>
  <g
     inkscape:groupmode="layer"
     id="layer2"
     inkscape:label="Background"
     sodipodi:insensitive="true">
    <rect
       style="fill:url(#linearGradient1840);stroke-width:0;stroke-linecap:round"
       id="rect1675"
       width="1920"
       height="1080"
       x="3.25e-06"
       y="-1.7529298e-06" />
  </g>
  <g
     id="layer1"
     inkscape:groupmode="layer"
     inkscape:label="Layer 1"
     transform="translate(-79.375,-121.70833)">
    <g
       id="layer2-6"
       style="display:none;stroke-width:2"
       transform="matrix(0.49999994,0,0,0.5,1012.878,925.70833)">
      <circle
         style="fill:none;fill-opacity:1;stroke:#000000;stroke-width:0;stroke-linejoin:bevel;stroke-miterlimit:4;stroke-dasharray:none;stroke-opacity:1"
         id="circle1017"
         cx="180"
         cy="180"
         r="150" />
      <circle
         style="fill:none;fill-opacity:1;stroke:#000000;stroke-width:0;stroke-linejoin:bevel;stroke-miterlimit:4;stroke-dasharray:none;stroke-opacity:1"
         id="circle1019"
         cx="180"
         cy="180"
         r="140" />
    </g>
    <g
       id="g1"
       transform="translate(-55)">
      <path
         id="circle-3"
         style="fill:#ffffff;fill-opacity:1;stroke:#ffffff;stroke-width:0;stroke-miterlimit:4;stroke-dasharray:none;stroke-opacity:1"
         d="m 1094.375,935.70833 a 84.999999,84.999999 0 0 0 -85,84.99997 84.999999,84.999999 0 0 0 85,85 84.999999,84.999999 0 0 0 85.0001,-85 84.999999,84.999999 0 0 0 -85.0001,-84.99997 z m -55.0926,33.84259 h 15.7408 v 70.83338 c 0,8.7865 6.9541,15.7407 15.7407,15.7407 h 15.7408 v 15.7407 h -15.7408 c -17.2935,0 -31.4815,-14.188 -31.4815,-31.4814 z m 55.0926,7.87037 c 6.0482,0 11.5433,2.39009 15.7408,6.19022 4.1974,-3.80013 9.6925,-6.19022 15.7407,-6.19022 12.9467,0 23.6111,10.66433 23.6111,23.61111 v 39.3519 c 0,17.2934 -14.188,31.4814 -31.4815,31.4814 h -15.7407 v -15.7407 h 15.7407 c 8.7866,0 15.7408,-6.9542 15.7408,-15.7407 v -39.3519 c 0,-4.43988 -3.4306,-7.87037 -7.8704,-7.87037 -4.4399,0 -7.8704,3.43048 -7.8704,7.87037 v 39.3519 h -15.7407 v -39.3519 c 0,-4.43989 -3.4305,-7.87037 -7.8704,-7.87037 -4.4399,0 -7.8703,3.43048 -7.8703,7.87037 v 39.3519 h -15.7408 v -39.3519 c 0,-12.94678 10.6643,-23.61111 23.6111,-23.61111 z" />
      <g
         id="g1049"
         transform="matrix(0.78703702,0,0,0.78703702,1009.375,935.70833)">
        <path
           d="m 284.81389,173.72028 q -16.05337,-0.37334 -22.77338,-6.90668 -6.72001,-6.53335 -6.72001,-20.34671 V 29.986682 l 17.36003,-2.986673 V 143.66689 q 0,4.29334 0.74667,7.09335 0.74667,2.8 2.42667,4.48 1.68,1.68001 4.48001,2.61334 2.8,0.74667 6.90668,1.30667 z"
           style="fill:#ffffff;fill-opacity:1;stroke:#ffffff;stroke-width:2.641;stroke-miterlimit:4;stroke-dasharray:none;stroke-opacity:1"
           id="path868" />
        <path
           d="M 322.01373,171.85361 H 304.6537 V 74.786763 h 17.36003 z M 313.24038,57.240065 q -4.66667,0 -8.02668,-2.986672 -3.17334,-3.173339 -3.17334,-8.400015 0,-5.226676 3.17334,-8.213348 3.36001,-3.173339 8.02668,-3.173339 4.66668,0 7.84002,3.173339 3.36,2.986672 3.36,8.213348 0,5.226676 -3.36,8.400015 -3.17334,2.986672 -7.84002,2.986672 z"
           style="fill:#ffffff;fill-opacity:1;stroke:#ffffff;stroke-width:2.641;stroke-miterlimit:4;stroke-dasharray:none;stroke-opacity:1"
           id="path870" />
        <path
           d="m 349.88014,77.586769 q 5.97335,-1.493336 15.8667,-3.173339 9.89335,-1.680003 22.77337,-1.680003 11.57336,0 19.2267,3.360006 7.65335,3.173339 12.13336,9.146688 4.66668,5.78667 6.53335,14.000019 1.86667,8.21335 1.86667,18.1067 v 54.50677 h -17.36004 v -50.77343 q 0,-8.96002 -1.30667,-15.30669 -1.12,-6.346679 -3.92,-10.266689 -2.80001,-3.92001 -7.46668,-5.60001 -4.66668,-1.86667 -11.57336,-1.86667 -2.8,0 -5.78667,0.18667 -2.98668,0.18666 -5.78668,0.56 -2.61334,0.18667 -4.85334,0.56 -2.05334,0.37333 -2.98668,0.56 v 81.946819 h -17.36003 z"
           style="fill:#ffffff;fill-opacity:1;stroke:#ffffff;stroke-width:2.641;stroke-miterlimit:4;stroke-dasharray:none;stroke-opacity:1"
           id="path872" />
        <path
           d="m 531.30704,169.0536 q -5.97334,1.49334 -15.86669,3.17334 -9.70669,1.68 -22.58671,1.68 -11.20002,0 -18.85337,-3.17333 -7.65335,-3.36001 -12.32002,-9.33336 -4.66668,-5.97334 -6.72001,-14.00002 -2.05334,-8.21335 -2.05334,-18.1067 V 74.786763 h 17.36003 v 50.773427 q 0,17.73337 5.60001,25.38671 5.60001,7.65335 18.85337,7.65335 2.8,0 5.78668,-0.18667 2.98667,-0.18666 5.60001,-0.37333 2.61333,-0.37334 4.66667,-0.56 2.24001,-0.37334 3.17334,-0.74667 V 74.786763 h 17.36003 z"
           style="fill:#ffffff;fill-opacity:1;stroke:#ffffff;stroke-width:2.641;stroke-miterlimit:4;stroke-dasharray:none;stroke-opacity:1"
           id="path874" />
        <path
           d="m 616.7271,171.85361 q -2.05334,-4.10668 -5.04001,-9.14669 -2.98667,-5.04001 -6.53334,-10.26668 -3.54668,-5.41334 -7.28002,-10.64002 -3.73334,-5.22668 -7.28001,-9.89335 -3.54667,4.66667 -7.28001,10.08002 -3.73334,5.22667 -7.28002,10.64002 -3.36,5.22667 -6.34668,10.26668 -2.98667,5.04001 -5.04001,8.96002 h -17.92003 q 6.53335,-12.69336 15.49336,-25.76005 9.14669,-13.25336 18.1067,-25.20005 L 548.22031,74.786763 h 19.60003 l 23.14671,33.973397 23.33338,-33.973397 h 18.48003 l -31.36005,44.986747 q 8.96001,12.13336 18.29336,25.76005 9.52002,13.44002 16.05336,26.32005 z"
           style="fill:#ffffff;fill-opacity:1;stroke:#ffffff;stroke-width:2.641;stroke-miterlimit:4;stroke-dasharray:none;stroke-opacity:1"
           id="path876" />
        <path
           d="m 652.06044,77.586769 q 5.97334,-1.493336 15.68003,-3.173339 9.89335,-1.680003 22.77337,-1.680003 9.33335,0 15.68003,2.613338 6.34668,2.426671 10.64002,7.280016 1.30667,-0.93334 4.10668,-2.61334 2.8,-1.680004 6.90668,-3.17334 4.10667,-1.680003 9.14668,-2.800005 5.04001,-1.306669 10.82669,-1.306669 11.20002,0 18.29336,3.360006 7.09335,3.173339 11.01336,9.146688 4.10667,5.97334 5.41334,14.18669 1.49333,8.213349 1.49333,17.920029 v 54.50677 h -17.36003 v -50.77343 q 0,-8.58668 -0.93333,-14.74669 -0.74667,-6.16001 -3.17334,-10.266689 -2.24001,-4.10667 -6.34668,-5.97334 -3.92001,-2.05334 -10.26669,-2.05334 -8.77334,0 -14.56002,2.42667 -5.60001,2.24001 -7.65335,4.10668 1.49334,4.85334 2.24001,10.640019 0.74666,5.78667 0.74666,12.13335 v 54.50677 h -17.36003 v -50.77343 q 0,-8.58668 -0.93333,-14.74669 -0.93334,-6.16001 -3.36001,-10.266689 -2.24,-4.10667 -6.34668,-5.97334 -3.92001,-2.05334 -10.08002,-2.05334 -2.61333,0 -5.60001,0.18667 -2.98667,0.18666 -5.78667,0.56 -2.61334,0.18667 -4.85335,0.56 -2.24,0.37333 -2.98667,0.56 v 81.946819 h -17.36003 z"
           style="fill:#ffffff;fill-opacity:1;stroke:#ffffff;stroke-width:2.641;stroke-miterlimit:4;stroke-dasharray:none;stroke-opacity:1"
           id="path878" />
        <path
           d="M 828.14041,171.85361 H 810.78038 V 74.786763 h 17.36003 z M 819.36706,57.240065 q -4.66667,0 -8.02668,-2.986672 -3.17334,-3.173339 -3.17334,-8.400015 0,-5.226676 3.17334,-8.213348 3.36001,-3.173339 8.02668,-3.173339 4.66668,0 7.84002,3.173339 3.36,2.986672 3.36,8.213348 0,5.226676 -3.36,8.400015 -3.17334,2.986672 -7.84002,2.986672 z"
           style="fill:#ffffff;fill-opacity:1;stroke:#ffffff;stroke-width:2.641;stroke-miterlimit:4;stroke-dasharray:none;stroke-opacity:1"
           id="path880" />
        <path
           d="m 856.00682,77.586769 q 5.97335,-1.493336 15.8667,-3.173339 9.89335,-1.680003 22.77337,-1.680003 11.57336,0 19.2267,3.360006 7.65335,3.173339 12.13336,9.146688 4.66667,5.78667 6.53334,14.000019 1.86667,8.21335 1.86667,18.1067 v 54.50677 h -17.36003 v -50.77343 q 0,-8.96002 -1.30667,-15.30669 -1.12,-6.346679 -3.92,-10.266689 -2.80001,-3.92001 -7.46668,-5.60001 -4.66668,-1.86667 -11.57336,-1.86667 -2.8,0 -5.78668,0.18667 -2.98667,0.18666 -5.78667,0.56 -2.61334,0.18667 -4.85335,0.56 -2.05333,0.37333 -2.98667,0.56 v 81.946819 h -17.36003 z"
           style="fill:#ffffff;fill-opacity:1;stroke:#ffffff;stroke-width:2.641;stroke-miterlimit:4;stroke-dasharray:none;stroke-opacity:1"
           id="path882" />
        <path
           d="m 976.8936,74.786763 h 36.7734 V 89.34679 h -36.7734 v 44.80008 q 0,7.28001 1.12,12.13336 1.12,4.66667 3.36,7.46668 2.24,2.61334 5.6,3.73334 3.36,1.12 7.84,1.12 7.84,0 12.5067,-1.68 4.8533,-1.86667 6.72,-2.61334 l 3.36,14.37336 q -2.6133,1.30667 -9.1467,3.17334 -6.5333,2.05333 -14.9333,2.05333 -9.8934,0 -16.4267,-2.42667 -6.3467,-2.61333 -10.2667,-7.65334 -3.92,-5.04001 -5.6,-12.32003 -1.49335,-7.46668 -1.49335,-17.17336 V 47.720047 l 17.36005,-2.986672 z"
           style="fill:#ffffff;fill-opacity:1;stroke:#ffffff;stroke-width:2.641;stroke-miterlimit:4;stroke-dasharray:none;stroke-opacity:1"
           id="path884" />
      </g>
    </g>
  </g>
</svg>
