<?xml version="1.0" encoding="UTF-8" standalone="no"?>
<svg
   xmlns:dc="http://purl.org/dc/elements/1.1/"
   xmlns:cc="http://creativecommons.org/ns#"
   xmlns:rdf="http://www.w3.org/1999/02/22-rdf-syntax-ns#"
   xmlns:svg="http://www.w3.org/2000/svg"
   xmlns="http://www.w3.org/2000/svg"
   xmlns:sodipodi="http://sodipodi.sourceforge.net/DTD/sodipodi-0.dtd"
   xmlns:inkscape="http://www.inkscape.org/namespaces/inkscape"
   inkscape:version="1.0 (1.0+r73+1)"
   id="svg8"
   version="1.1"
   viewBox="0 0 481.54166 129.64583"
   height="490"
   width="1820"
   sodipodi:docname="Logos-prv.svg"
   inkscape:export-filename="/home/sebastien/Sources/linuxmint-logo/Logos-prv.png"
   inkscape:export-xdpi="96"
   inkscape:export-ydpi="96">
  <defs
     id="defs2" />
  <sodipodi:namedview
     units="px"
     showgrid="false"
     inkscape:document-rotation="0"
     inkscape:current-layer="layer1"
     inkscape:document-units="px"
     inkscape:cy="210"
     inkscape:cx="910"
     inkscape:zoom="0.47802198"
     inkscape:pageshadow="2"
     inkscape:pageopacity="1"
     borderopacity="1.0"
     bordercolor="#666666"
     pagecolor="#99ffcc"
     id="base" />
  <metadata
     id="metadata5">
    <rdf:RDF>
      <cc:Work
         rdf:about="">
        <dc:format>image/svg+xml</dc:format>
        <dc:type
           rdf:resource="http://purl.org/dc/dcmitype/StillImage" />
        <dc:title></dc:title>
      </cc:Work>
    </rdf:RDF>
  </metadata>
  <g
     id="layer1"
     inkscape:groupmode="layer"
     inkscape:label="Layer 1">
    <path
       d="m 55.555777,18.520838 a 37.041666,37.041666 0 0 0 -37.034944,37.04167 37.041666,37.041666 0 0 0 37.041664,37.04166 37.041666,37.041666 0 0 0 37.04167,-37.04166 37.041666,37.041666 0 0 0 -37.04167,-37.04167 37.041666,37.041666 0 0 0 -0.007,0 z m -20.366194,18.65312 h 5.820833 v 26.19375 c 0,3.24925 2.571605,5.82084 5.820833,5.82084 h 17.462498 c 3.24923,0 5.82084,-2.57159 5.82084,-5.82084 v -14.55208 c 0,-1.64184 -1.26857,-2.91042 -2.91042,-2.91042 -1.64184,0 -2.91042,1.26858 -2.91042,2.91042 v 14.55208 h -5.82083 v -14.55208 c 0,-1.64184 -1.26857,-2.91042 -2.91042,-2.91042 -1.64185,0 -2.91041,1.26858 -2.91041,2.91042 v 14.55208 h -5.820838 v -14.55208 c 0,-4.78766 3.943588,-8.73125 8.731248,-8.73125 2.23661,0 4.26866,0.88399 5.82084,2.28927 1.55218,-1.40528 3.58423,-2.28927 5.82083,-2.28927 4.78767,0 8.73125,3.94359 8.73125,8.73125 v 14.55208 c 0,6.39506 -5.24663,11.64167 -11.64167,11.64167 H 46.831249 c -6.39504,0 -11.641666,-5.24661 -11.641666,-11.64167 z"
       style="fill:#000000;fill-opacity:1;stroke:none;stroke-width:5.90965;stroke-linecap:butt;stroke-linejoin:bevel;stroke-miterlimit:4;stroke-dasharray:none;stroke-opacity:1"
       id="ellipse4247" />
    <g
       transform="matrix(0.26458333,0,0,0.26458333,86.518749,-201.97293)"
       id="g58">
      <circle
         cy="973.3623"
         cx="233"
         id="ellipse4247-3"
         style="fill:#000000;fill-opacity:1;stroke:none;stroke-width:22.3357;stroke-linecap:butt;stroke-linejoin:bevel;stroke-miterlimit:4;stroke-dasharray:none;stroke-opacity:1"
         r="140" />
      <path
         sodipodi:nodetypes="csssccsccsssc"
         inkscape:connector-curvature="0"
         d="m 211,1002.8621 v -54.99993 c 0,-12.15025 9.84975,-22 22.00001,-22 12.15025,0 22,9.84975 22,22 v 54.99993 m -88,-98.99992 v 98.99992 c 0,18.2254 14.7746,33 32.99999,33 h 66.00002 c 18.22538,0 32.99999,-14.7746 32.99999,-33 v -54.99993 c 0,-12.15025 -9.84974,-22 -22.00001,-22 -12.15025,0 -21.99999,9.84975 -21.99999,22"
         style="fill:none;fill-opacity:0.266667;stroke:#ffffff;stroke-width:22;stroke-linecap:butt;stroke-linejoin:miter;stroke-miterlimit:4;stroke-dasharray:none;stroke-opacity:1"
         id="path4249" />
    </g>
    <g
       transform="matrix(0.58796295,0,0,0.58796295,149.04861,-471.46521)"
       id="g884">
      <path
         transform="translate(93,833.36218)"
         d="M 62.820312,0 A 63,63 0 0 0 0,63 63,63 0 0 0 63,126 63,63 0 0 0 126,63 63,63 0 0 0 63,0 63,63 0 0 0 62.820312,0 Z m 0.01367,9 A 54,54 0 0 1 63,9 54,54 0 0 1 117,63 54,54 0 0 1 63,117 54,54 0 0 1 9,63 54,54 0 0 1 62.833984,9 Z"
         style="fill:#000000;fill-opacity:1;stroke:none;stroke-width:10.1942;stroke-linecap:butt;stroke-linejoin:bevel;stroke-miterlimit:4;stroke-dasharray:none;stroke-opacity:1"
         id="ellipse4245" />
      <path
         sodipodi:nodetypes="csssccsccsssc"
         inkscape:connector-curvature="0"
         d="m 147,908.3622 v -22.5 c 0,-4.97056 4.02944,-9 9,-9 4.97056,0 9,4.02944 9,9 v 22.5 m -36,-40.5 v 40.5 c 0,7.45584 6.04416,13.5 13.5,13.5 h 27 c 7.45584,0 13.5,-6.04416 13.5,-13.5 v -22.5 c 0,-4.97056 -4.02944,-9 -9,-9 -4.97056,0 -9,4.02944 -9,9"
         style="fill:none;fill-opacity:0.266667;stroke:#000000;stroke-width:9;stroke-linecap:butt;stroke-linejoin:miter;stroke-miterlimit:4;stroke-dasharray:none;stroke-opacity:1"
         id="path4249-2" />
    </g>
    <g
       transform="matrix(0.26458333,0,0,0.26458333,271.72708,-201.97289)"
       id="g924">
      <circle
         r="140"
         cy="973.36212"
         cx="233"
         id="ellipse4245-2"
         style="fill:#ffffff;fill-opacity:1;stroke:none;stroke-width:22.6538;stroke-linecap:butt;stroke-linejoin:bevel;stroke-miterlimit:4;stroke-dasharray:none;stroke-opacity:1" />
      <circle
         r="120"
         style="fill:#000000;fill-opacity:1;stroke:none;stroke-width:19.1449;stroke-linecap:butt;stroke-linejoin:bevel;stroke-miterlimit:4;stroke-dasharray:none;stroke-opacity:1"
         id="ellipse4247-7"
         cx="233"
         cy="973.3623" />
      <path
         id="path4249-0"
         style="fill:none;fill-opacity:0.266667;stroke:#ffffff;stroke-width:20;stroke-linecap:butt;stroke-linejoin:miter;stroke-miterlimit:4;stroke-dasharray:none;stroke-opacity:1"
         d="m 212.99999,1000.3621 v -49.99992 c 0,-11.04569 8.95431,-20 20,-20 11.04569,0 20,8.95431 20,20 v 49.99992 m -80,-89.99992 v 89.99992 c 0,16.5686 13.43147,30 30,30 h 60 c 16.56854,0 30,-13.4314 30,-30 v -49.99992 c 0,-11.04569 -8.95431,-20 -20,-20 -11.04569,0 -20,8.95431 -20,20"
         inkscape:connector-curvature="0"
         sodipodi:nodetypes="csssccsccsssc" />
    </g>
    <path
       id="path4249-6"
       style="fill:none;fill-opacity:0.266667;stroke:#000000;stroke-width:10.5833;stroke-linecap:butt;stroke-linejoin:miter;stroke-miterlimit:4;stroke-dasharray:none;stroke-opacity:1"
       d="m 415.39582,66.145838 v -26.45834 c 0,-5.84501 4.73832,-10.58333 10.58333,-10.58333 5.84501,0 10.58333,4.73832 10.58333,10.58333 v 26.45834 m -42.33333,-47.625 v 47.625 c 0,8.7675 7.10748,15.875 15.875,15.875 h 31.75 c 8.76752,0 15.875,-7.1075 15.875,-15.875 v -26.45834 c 0,-5.84501 -4.73832,-10.58333 -10.58333,-10.58333 -5.84501,0 -10.58334,4.73832 -10.58334,10.58333"
       inkscape:connector-curvature="0"
       sodipodi:nodetypes="csssccsccsssc" />
    <text
       xml:space="preserve"
       style="font-style:normal;font-weight:normal;font-size:8.46667px;line-height:1.25;font-family:sans-serif;fill:#000000;fill-opacity:1;stroke:none;stroke-width:0.264583"
       x="55.428059"
       y="125.49519"
       id="text315"><tspan
         sodipodi:role="line"
         id="tspan313"
         x="55.428059"
         y="125.49519"
         style="font-size:8.46667px;text-align:center;text-anchor:middle;stroke-width:0.264583">Logo-Badge-#000</tspan></text>
    <text
       id="text319"
       y="125.49519"
       x="148.03223"
       style="font-style:normal;font-weight:normal;font-size:8.46667px;line-height:1.25;font-family:sans-serif;fill:#000000;fill-opacity:1;stroke:none;stroke-width:0.264583"
       xml:space="preserve"><tspan
         style="font-size:8.46667px;text-align:center;text-anchor:middle;stroke-width:0.264583"
         y="125.49519"
         x="148.03223"
         id="tspan317"
         sodipodi:role="line">Logo-Badge-Filled-#000</tspan></text>
    <text
       xml:space="preserve"
       style="font-style:normal;font-weight:normal;font-size:8.46667px;line-height:1.25;font-family:sans-serif;fill:#000000;fill-opacity:1;stroke:none;stroke-width:0.264583"
       x="240.63638"
       y="125.49519"
       id="text323"><tspan
         sodipodi:role="line"
         id="tspan321"
         x="240.63638"
         y="125.49519"
         style="font-size:8.46667px;text-align:center;text-anchor:middle;stroke-width:0.264583">Logo-Ring-#000</tspan></text>
    <text
       id="text327"
       y="125.49519"
       x="333.24057"
       style="font-style:normal;font-weight:normal;font-size:8.46667px;line-height:1.25;font-family:sans-serif;fill:#000000;fill-opacity:1;stroke:none;stroke-width:0.264583"
       xml:space="preserve"><tspan
         style="font-size:8.46667px;text-align:center;text-anchor:middle;stroke-width:0.264583"
         y="125.49519"
         x="333.24057"
         id="tspan325"
         sodipodi:role="line">Logo-Ring-Filled-#000</tspan></text>
    <text
       xml:space="preserve"
       style="font-style:normal;font-weight:normal;font-size:8.46667px;line-height:1.25;font-family:sans-serif;fill:#000000;fill-opacity:1;stroke:none;stroke-width:0.264583"
       x="425.84473"
       y="125.49519"
       id="text331"><tspan
         sodipodi:role="line"
         id="tspan329"
         x="425.84473"
         y="125.49519"
         style="font-size:8.46667px;text-align:center;text-anchor:middle;stroke-width:0.264583">Logo-Simple-#000</tspan></text>
  </g>
</svg>
