<?xml version="1.0" encoding="UTF-8" standalone="no"?>
<svg
   xmlns:dc="http://purl.org/dc/elements/1.1/"
   xmlns:cc="http://creativecommons.org/ns#"
   xmlns:rdf="http://www.w3.org/1999/02/22-rdf-syntax-ns#"
   xmlns:svg="http://www.w3.org/2000/svg"
   xmlns="http://www.w3.org/2000/svg"
   xmlns:sodipodi="http://sodipodi.sourceforge.net/DTD/sodipodi-0.dtd"
   xmlns:inkscape="http://www.inkscape.org/namespaces/inkscape"
   inkscape:export-ydpi="96"
   inkscape:export-xdpi="96"
   inkscape:export-filename="/home/sebastien/Sources/LM-logo/Color_lm+name_#75cc1c.png"
   sodipodi:docname="Logo-Ring-#FFF.svg"
   inkscape:version="1.0 (1.0+r73+1)"
   version="1.1"
   id="svg4135"
   viewBox="0 0 280 280"
   height="280"
   width="280">
  <defs
     id="defs4137" />
  <sodipodi:namedview
     inkscape:document-rotation="0"
     fit-margin-bottom="0"
     fit-margin-right="0"
     fit-margin-left="0"
     fit-margin-top="0"
     inkscape:guide-bbox="true"
     showguides="false"
     guidetolerance="10"
     gridtolerance="10"
     objecttolerance="10"
     inkscape:showpageshadow="false"
     inkscape:window-maximized="1"
     inkscape:window-y="0"
     inkscape:window-x="0"
     inkscape:window-height="839"
     inkscape:window-width="1440"
     units="px"
     showgrid="false"
     inkscape:current-layer="layer1"
     inkscape:document-units="px"
     inkscape:cy="140.00008"
     inkscape:cx="132.1418"
     inkscape:zoom="2.4178558"
     inkscape:pageshadow="2"
     inkscape:pageopacity="0"
     borderopacity="1.0"
     bordercolor="#666666"
     pagecolor="#f2f2f2"
     id="base">
    <inkscape:grid
       originy="-92.999932"
       originx="-92.999993"
       dotted="false"
       empopacity="0.25098039"
       empcolor="#ff3f3f"
       opacity="0.1254902"
       color="#3f3fff"
       spacingy="20"
       spacingx="20"
       id="grid3333"
       type="xygrid" />
    <sodipodi:guide
       inkscape:locked="false"
       id="guide4248"
       orientation="0,1"
       position="-92.999992,137" />
  </sodipodi:namedview>
  <metadata
     id="metadata4140">
    <rdf:RDF>
      <cc:Work
         rdf:about="">
        <dc:format>image/svg+xml</dc:format>
        <dc:type
           rdf:resource="http://purl.org/dc/dcmitype/StillImage" />
        <dc:title></dc:title>
        <dc:creator>
          <cc:Agent>
            <dc:title />
          </cc:Agent>
        </dc:creator>
        <cc:license
           rdf:resource="" />
      </cc:Work>
    </rdf:RDF>
  </metadata>
  <g
     transform="translate(-92.999995,-833.36209)"
     id="layer1"
     inkscape:groupmode="layer"
     inkscape:label="Layer 1">
    <g
       id="g3717">
      <path
         d="m 232.60069,833.36224 a 140,140 0 0 0 -139.600695,140 140,140 0 0 0 139.999995,139.99996 140,140 0 0 0 140,-139.99996 140,140 0 0 0 -140,-140 140,140 0 0 0 -0.3993,0 z m 0.0304,20 a 120,120 0 0 1 0.36893,0 120,120 0 0 1 120,120 120,120 0 0 1 -120,119.99996 120,120 0 0 1 -120,-119.99996 120,120 0 0 1 119.63108,-120 z"
         style="fill:#ffffff;fill-opacity:1;stroke:none;stroke-width:0;stroke-linecap:butt;stroke-linejoin:bevel;stroke-miterlimit:4;stroke-dasharray:none;stroke-opacity:1"
         id="ellipse4245" />
      <path
         sodipodi:nodetypes="csssccsccsssc"
         inkscape:connector-curvature="0"
         d="m 212.99999,1000.0289 v -49.99995 c 0,-11.04569 8.95431,-20 20,-20 11.04569,0 20,8.95431 20,20 v 49.99995 m -80,-89.99995 v 89.99995 c 0,16.5686 13.43147,30 30,30 h 60 c 16.56854,0 30,-13.4314 30,-30 v -49.99995 c 0,-11.04569 -8.95431,-20 -20,-20 -11.04569,0 -20,8.95431 -20,20"
         style="fill:none;fill-opacity:0.266667;stroke:#ffffff;stroke-width:20;stroke-linecap:butt;stroke-linejoin:miter;stroke-miterlimit:4;stroke-dasharray:none;stroke-opacity:1"
         id="path4249" />
    </g>
  </g>
</svg>
