<?xml version="1.0" encoding="UTF-8" standalone="no"?>
<svg
   xmlns:dc="http://purl.org/dc/elements/1.1/"
   xmlns:cc="http://creativecommons.org/ns#"
   xmlns:rdf="http://www.w3.org/1999/02/22-rdf-syntax-ns#"
   xmlns:svg="http://www.w3.org/2000/svg"
   xmlns="http://www.w3.org/2000/svg"
   xmlns:sodipodi="http://sodipodi.sourceforge.net/DTD/sodipodi-0.dtd"
   xmlns:inkscape="http://www.inkscape.org/namespaces/inkscape"
   width="640"
   height="640"
   viewBox="0 0 640 640"
   id="svg4135"
   version="1.1"
   inkscape:version="1.0.1 (1.0.1+r74)"
   sodipodi:docname="LogoIn+name-Pling.svg"
   inkscape:export-filename="/home/sebastien/linuxmint-logo/LogoIn+name-Pling.png"
   inkscape:export-xdpi="153.60001"
   inkscape:export-ydpi="153.60001">
  <defs
     id="defs4137" />
  <sodipodi:namedview
     id="base"
     pagecolor="#ffffff"
     bordercolor="#666666"
     borderopacity="1.0"
     inkscape:pageopacity="1"
     inkscape:pageshadow="2"
     inkscape:zoom="1.3734375"
     inkscape:cx="320"
     inkscape:cy="320"
     inkscape:document-units="px"
     inkscape:current-layer="layer4"
     showgrid="false"
     units="px"
     inkscape:window-width="1440"
     inkscape:window-height="835"
     inkscape:window-x="0"
     inkscape:window-y="0"
     inkscape:window-maximized="1"
     inkscape:showpageshadow="false"
     objecttolerance="10"
     gridtolerance="10"
     guidetolerance="10"
     inkscape:snap-bbox="true"
     inkscape:bbox-nodes="true"
     inkscape:object-nodes="false"
     inkscape:snap-nodes="false"
     inkscape:snap-others="false"
     inkscape:document-rotation="0"
     fit-margin-top="32"
     fit-margin-left="32"
     fit-margin-right="32"
     fit-margin-bottom="32">
    <inkscape:grid
       type="xygrid"
       id="grid3333"
       spacingx="20"
       spacingy="20"
       color="#3f3fff"
       opacity="0.25098039"
       empcolor="#ff3f3f"
       empopacity="0.25098039"
       dotted="false"
       originx="-648.87002"
       originy="-378.00002" />
  </sodipodi:namedview>
  <metadata
     id="metadata4140">
    <rdf:RDF>
      <cc:Work
         rdf:about="">
        <dc:format>image/svg+xml</dc:format>
        <dc:type
           rdf:resource="http://purl.org/dc/dcmitype/StillImage" />
        <dc:title></dc:title>
        <dc:creator>
          <cc:Agent>
            <dc:title />
          </cc:Agent>
        </dc:creator>
        <cc:license
           rdf:resource="" />
      </cc:Work>
    </rdf:RDF>
  </metadata>
  <g
     inkscape:groupmode="layer"
     id="layer2"
     inkscape:label="background"
     style="display:inline"
     transform="translate(-648.87002,-378.00002)" />
  <g
     inkscape:groupmode="layer"
     id="layer4"
     inkscape:label="Layer 3"
     style="display:inline"
     transform="translate(-648.87002,-378.00002)">
    <g
       id="g1028"
       style="stroke-width:0;stroke-miterlimit:4;stroke-dasharray:none;fill:#0088ff;fill-opacity:1"
       transform="matrix(2.8571429,0,0,2.8571429,-1962.5586,-1743.035)">
      <path
         id="ellipse4245"
         style="fill:#0088ff;fill-opacity:1;stroke:none;stroke-width:0;stroke-linecap:butt;stroke-linejoin:bevel;stroke-miterlimit:4;stroke-dasharray:none;stroke-opacity:1"
         d="m 1025.7604,770.36229 a 83.999998,83.999998 0 0 0 -83.7604,84 83.999998,83.999998 0 0 0 84,84 83.999998,83.999998 0 0 0 84,-84 83.999998,83.999998 0 0 0 -84,-84 83.999998,83.999998 0 0 0 -0.2396,0 z m 0.018,12 a 71.999998,71.999998 0 0 1 0.2214,0 71.999998,71.999998 0 0 1 72,72 71.999998,71.999998 0 0 1 -72,72 71.999998,71.999998 0 0 1 -72,-72 71.999998,71.999998 0 0 1 71.7786,-72 z" />
      <path
         style="color:#000000;font-style:normal;font-variant:normal;font-weight:normal;font-stretch:normal;font-size:medium;line-height:normal;font-family:sans-serif;font-variant-ligatures:normal;font-variant-position:normal;font-variant-caps:normal;font-variant-numeric:normal;font-variant-alternates:normal;font-variant-east-asian:normal;font-feature-settings:normal;font-variation-settings:normal;text-indent:0;text-align:start;text-decoration:none;text-decoration-line:none;text-decoration-style:solid;text-decoration-color:#000000;letter-spacing:normal;word-spacing:normal;text-transform:none;writing-mode:lr-tb;direction:ltr;text-orientation:mixed;dominant-baseline:auto;baseline-shift:baseline;text-anchor:start;white-space:normal;shape-padding:0;shape-margin:0;inline-size:0;clip-rule:nonzero;display:inline;overflow:visible;visibility:visible;opacity:1;isolation:auto;mix-blend-mode:normal;color-interpolation:sRGB;color-interpolation-filters:linearRGB;solid-color:#000000;solid-opacity:1;vector-effect:none;fill:#0088ff;fill-opacity:1;fill-rule:nonzero;stroke:none;stroke-width:0;stroke-linecap:butt;stroke-linejoin:miter;stroke-miterlimit:4;stroke-dasharray:none;stroke-dashoffset:0;stroke-opacity:1;color-rendering:auto;image-rendering:auto;shape-rendering:auto;text-rendering:auto;enable-background:accumulate;stop-color:#000000;stop-opacity:1"
         d="m 984,816.36328 v 54 c 0,13.18377 10.81624,24 24,24 h 36 c 13.1838,0 24,-10.81623 24,-24 v -30 c 0,-9.87006 -8.1299,-18 -18,-18 -4.6107,0 -8.8001,1.81999 -12,4.7168 -3.1999,-2.89681 -7.3893,-4.7168 -12,-4.7168 -9.8701,0 -18,8.12994 -18,18 v 30 h 12 v -30 c 0,-3.38475 2.6153,-6 6,-6 3.3847,0 6,2.61525 6,6 v 30 h 12 v -30 c 0,-3.38475 2.6153,-6 6,-6 3.3847,0 6,2.61525 6,6 v 30 c 0,6.69847 -5.3016,12 -12,12 h -36 c -6.6985,0 -12,-5.30152 -12,-12 v -54 z"
         id="path1022" />
    </g>
  </g>
</svg>
