<?xml version="1.0" encoding="UTF-8" standalone="no"?>
<svg
   xmlns:dc="http://purl.org/dc/elements/1.1/"
   xmlns:cc="http://creativecommons.org/ns#"
   xmlns:rdf="http://www.w3.org/1999/02/22-rdf-syntax-ns#"
   xmlns:svg="http://www.w3.org/2000/svg"
   xmlns="http://www.w3.org/2000/svg"
   xmlns:sodipodi="http://sodipodi.sourceforge.net/DTD/sodipodi-0.dtd"
   xmlns:inkscape="http://www.inkscape.org/namespaces/inkscape"
   inkscape:export-ydpi="96"
   inkscape:export-xdpi="96"
   inkscape:export-filename="/home/sebastien/Sources/linuxmint-logo/Logos-prv.png"
   sodipodi:docname="Logos-prv.svg"
   width="1820"
   height="490"
   viewBox="0 0 481.54166 129.64583"
   version="1.1"
   id="svg8"
   inkscape:version="1.0 (1.0+r73+1)">
  <defs
     id="defs2" />
  <sodipodi:namedview
     id="base"
     pagecolor="#ffffff"
     bordercolor="#666666"
     borderopacity="1.0"
     inkscape:pageopacity="1"
     inkscape:pageshadow="2"
     inkscape:zoom="0.47802198"
     inkscape:cx="910"
     inkscape:cy="245"
     inkscape:document-units="px"
     inkscape:current-layer="layer1"
     inkscape:document-rotation="0"
     showgrid="false"
     units="px" />
  <metadata
     id="metadata5">
    <rdf:RDF>
      <cc:Work
         rdf:about="">
        <dc:format>image/svg+xml</dc:format>
        <dc:type
           rdf:resource="http://purl.org/dc/dcmitype/StillImage" />
        <dc:title></dc:title>
      </cc:Work>
    </rdf:RDF>
  </metadata>
  <g
     inkscape:label="Layer 1"
     inkscape:groupmode="layer"
     id="layer1">
    <rect
       y="8.8817842e-16"
       x="0"
       height="129.64583"
       width="481.54166"
       id="rect29"
       style="fill:#99ffcc;fill-opacity:1;stroke:none;stroke-width:0;stroke-miterlimit:4;stroke-dasharray:none" />
    <path
       id="ellipse4247"
       style="fill:#000000;fill-opacity:1;stroke:none;stroke-width:5.90965;stroke-linecap:butt;stroke-linejoin:bevel;stroke-miterlimit:4;stroke-dasharray:none;stroke-opacity:1"
       d="m 55.555777,18.520838 a 37.041666,37.041666 0 0 0 -37.034944,37.04167 37.041666,37.041666 0 0 0 37.041664,37.04166 37.041666,37.041666 0 0 0 37.04167,-37.04166 37.041666,37.041666 0 0 0 -37.04167,-37.04167 37.041666,37.041666 0 0 0 -0.007,0 z m -20.366194,18.65312 h 5.820833 v 26.19375 c 0,3.24925 2.571605,5.82084 5.820833,5.82084 h 17.462498 c 3.24923,0 5.82084,-2.57159 5.82084,-5.82084 v -14.55208 c 0,-1.64184 -1.26857,-2.91042 -2.91042,-2.91042 -1.64184,0 -2.91042,1.26858 -2.91042,2.91042 v 14.55208 h -5.82083 v -14.55208 c 0,-1.64184 -1.26857,-2.91042 -2.91042,-2.91042 -1.64185,0 -2.91041,1.26858 -2.91041,2.91042 v 14.55208 h -5.820838 v -14.55208 c 0,-4.78766 3.943588,-8.73125 8.731248,-8.73125 2.23661,0 4.26866,0.88399 5.82084,2.28927 1.55218,-1.40528 3.58423,-2.28927 5.82083,-2.28927 4.78767,0 8.73125,3.94359 8.73125,8.73125 v 14.55208 c 0,6.39506 -5.24663,11.64167 -11.64167,11.64167 H 46.831249 c -6.39504,0 -11.641666,-5.24661 -11.641666,-11.64167 z" />
    <g
       id="g58"
       transform="matrix(0.26458333,0,0,0.26458333,86.518749,-201.97293)">
      <circle
         r="140"
         style="fill:#000000;fill-opacity:1;stroke:none;stroke-width:22.3357;stroke-linecap:butt;stroke-linejoin:bevel;stroke-miterlimit:4;stroke-dasharray:none;stroke-opacity:1"
         id="ellipse4247-3"
         cx="233"
         cy="973.3623" />
      <path
         id="path4249"
         style="fill:none;fill-opacity:0.266667;stroke:#ffffff;stroke-width:22;stroke-linecap:butt;stroke-linejoin:miter;stroke-miterlimit:4;stroke-dasharray:none;stroke-opacity:1"
         d="m 211,1002.8621 v -54.99993 c 0,-12.15025 9.84975,-22 22.00001,-22 12.15025,0 22,9.84975 22,22 v 54.99993 m -88,-98.99992 v 98.99992 c 0,18.2254 14.7746,33 32.99999,33 h 66.00002 c 18.22538,0 32.99999,-14.7746 32.99999,-33 v -54.99993 c 0,-12.15025 -9.84974,-22 -22.00001,-22 -12.15025,0 -21.99999,9.84975 -21.99999,22"
         inkscape:connector-curvature="0"
         sodipodi:nodetypes="csssccsccsssc" />
    </g>
    <g
       id="g884"
       transform="matrix(0.58796295,0,0,0.58796295,149.04861,-471.46521)">
      <path
         id="ellipse4245"
         style="fill:#000000;fill-opacity:1;stroke:none;stroke-width:10.1942;stroke-linecap:butt;stroke-linejoin:bevel;stroke-miterlimit:4;stroke-dasharray:none;stroke-opacity:1"
         d="M 62.820312,0 A 63,63 0 0 0 0,63 63,63 0 0 0 63,126 63,63 0 0 0 126,63 63,63 0 0 0 63,0 63,63 0 0 0 62.820312,0 Z m 0.01367,9 A 54,54 0 0 1 63,9 54,54 0 0 1 117,63 54,54 0 0 1 63,117 54,54 0 0 1 9,63 54,54 0 0 1 62.833984,9 Z"
         transform="translate(93,833.36218)" />
      <path
         id="path4249-2"
         style="fill:none;fill-opacity:0.266667;stroke:#000000;stroke-width:9;stroke-linecap:butt;stroke-linejoin:miter;stroke-miterlimit:4;stroke-dasharray:none;stroke-opacity:1"
         d="m 147,908.3622 v -22.5 c 0,-4.97056 4.02944,-9 9,-9 4.97056,0 9,4.02944 9,9 v 22.5 m -36,-40.5 v 40.5 c 0,7.45584 6.04416,13.5 13.5,13.5 h 27 c 7.45584,0 13.5,-6.04416 13.5,-13.5 v -22.5 c 0,-4.97056 -4.02944,-9 -9,-9 -4.97056,0 -9,4.02944 -9,9"
         inkscape:connector-curvature="0"
         sodipodi:nodetypes="csssccsccsssc" />
    </g>
    <g
       id="g924"
       transform="matrix(0.26458333,0,0,0.26458333,271.72708,-201.97289)">
      <circle
         style="fill:#ffffff;fill-opacity:1;stroke:none;stroke-width:22.6538;stroke-linecap:butt;stroke-linejoin:bevel;stroke-miterlimit:4;stroke-dasharray:none;stroke-opacity:1"
         id="ellipse4245-2"
         cx="233"
         cy="973.36212"
         r="140" />
      <circle
         cy="973.3623"
         cx="233"
         id="ellipse4247-7"
         style="fill:#000000;fill-opacity:1;stroke:none;stroke-width:19.1449;stroke-linecap:butt;stroke-linejoin:bevel;stroke-miterlimit:4;stroke-dasharray:none;stroke-opacity:1"
         r="120" />
      <path
         sodipodi:nodetypes="csssccsccsssc"
         inkscape:connector-curvature="0"
         d="m 212.99999,1000.3621 v -49.99992 c 0,-11.04569 8.95431,-20 20,-20 11.04569,0 20,8.95431 20,20 v 49.99992 m -80,-89.99992 v 89.99992 c 0,16.5686 13.43147,30 30,30 h 60 c 16.56854,0 30,-13.4314 30,-30 v -49.99992 c 0,-11.04569 -8.95431,-20 -20,-20 -11.04569,0 -20,8.95431 -20,20"
         style="fill:none;fill-opacity:0.266667;stroke:#ffffff;stroke-width:20;stroke-linecap:butt;stroke-linejoin:miter;stroke-miterlimit:4;stroke-dasharray:none;stroke-opacity:1"
         id="path4249-0" />
    </g>
    <path
       sodipodi:nodetypes="csssccsccsssc"
       inkscape:connector-curvature="0"
       d="m 415.39582,66.145838 v -26.45834 c 0,-5.84501 4.73832,-10.58333 10.58333,-10.58333 5.84501,0 10.58333,4.73832 10.58333,10.58333 v 26.45834 m -42.33333,-47.625 v 47.625 c 0,8.7675 7.10748,15.875 15.875,15.875 h 31.75 c 8.76752,0 15.875,-7.1075 15.875,-15.875 v -26.45834 c 0,-5.84501 -4.73832,-10.58333 -10.58333,-10.58333 -5.84501,0 -10.58334,4.73832 -10.58334,10.58333"
       style="fill:none;fill-opacity:0.266667;stroke:#000000;stroke-width:10.5833;stroke-linecap:butt;stroke-linejoin:miter;stroke-miterlimit:4;stroke-dasharray:none;stroke-opacity:1"
       id="path4249-6" />
    <g
       style="font-style:normal;font-weight:normal;font-size:8.46667px;line-height:1.25;font-family:sans-serif;fill:#000000;fill-opacity:1;stroke:none;stroke-width:0.264583"
       id="text315"
       aria-label="Logo-Badge-#000">
      <path
         id="path854"
         style="font-size:8.46667px;text-align:center;text-anchor:middle;stroke-width:0.264583"
         d="m 18.020508,119.32296 h 0.835091 v 5.46943 h 3.005503 v 0.7028 h -3.840594 z" />
      <path
         id="path856"
         style="font-size:8.46667px;text-align:center;text-anchor:middle;stroke-width:0.264583"
         d="m 24.34984,121.39828 q -0.61185,0 -0.967384,0.47956 -0.355534,0.47543 -0.355534,1.30638 0,0.83096 0.3514,1.31052 0.355534,0.47542 0.971518,0.47542 0.607715,0 0.963249,-0.47956 0.355534,-0.47955 0.355534,-1.30638 0,-0.82269 -0.355534,-1.30224 -0.355534,-0.4837 -0.963249,-0.4837 z m 0,-0.64492 q 0.992188,0 1.558561,0.64492 0.566374,0.64493 0.566374,1.78594 0,1.13688 -0.566374,1.78594 -0.566373,0.64492 -1.558561,0.64492 -0.996322,0 -1.562696,-0.64492 -0.56224,-0.64906 -0.56224,-1.78594 0,-1.14101 0.56224,-1.78594 0.566374,-0.64492 1.562696,-0.64492 z" />
      <path
         id="path858"
         style="font-size:8.46667px;text-align:center;text-anchor:middle;stroke-width:0.264583"
         d="m 30.782524,123.12634 q 0,-0.82682 -0.343132,-1.28157 -0.338997,-0.45475 -0.954981,-0.45475 -0.611849,0 -0.95498,0.45475 -0.338998,0.45475 -0.338998,1.28157 0,0.82269 0.338998,1.27745 0.343131,0.45475 0.95498,0.45475 0.615984,0 0.954981,-0.45475 0.343132,-0.45476 0.343132,-1.27745 z m 0.760677,1.79421 q 0,1.18236 -0.525032,1.757 -0.525033,0.57878 -1.608172,0.57878 -0.401009,0 -0.756543,-0.062 -0.355534,-0.0579 -0.690397,-0.18191 v -0.74 q 0.334863,0.1819 0.661458,0.26871 0.326595,0.0868 0.665593,0.0868 0.748275,0 1.120345,-0.39274 0.372071,-0.38861 0.372071,-1.17822 v -0.37621 q -0.235645,0.40928 -0.603581,0.61185 -0.367936,0.20257 -0.880567,0.20257 -0.851628,0 -1.372526,-0.64905 -0.520899,-0.64906 -0.520899,-1.7198 0,-1.07487 0.520899,-1.72392 0.520898,-0.64906 1.372526,-0.64906 0.512631,0 0.880567,0.20257 0.367936,0.20258 0.603581,0.61185 v -0.7028 h 0.760677 z" />
      <path
         id="path860"
         style="font-size:8.46667px;text-align:center;text-anchor:middle;stroke-width:0.264583"
         d="m 34.904238,121.39828 q -0.611849,0 -0.967383,0.47956 -0.355534,0.47543 -0.355534,1.30638 0,0.83096 0.3514,1.31052 0.355534,0.47542 0.971517,0.47542 0.607715,0 0.963249,-0.47956 0.355534,-0.47955 0.355534,-1.30638 0,-0.82269 -0.355534,-1.30224 -0.355534,-0.4837 -0.963249,-0.4837 z m 0,-0.64492 q 0.992188,0 1.558562,0.64492 0.566374,0.64493 0.566374,1.78594 0,1.13688 -0.566374,1.78594 -0.566374,0.64492 -1.558562,0.64492 -0.996322,0 -1.562696,-0.64492 -0.56224,-0.64906 -0.56224,-1.78594 0,-1.14101 0.56224,-1.78594 0.566374,-0.64492 1.562696,-0.64492 z" />
      <path
         id="path862"
         style="font-size:8.46667px;text-align:center;text-anchor:middle;stroke-width:0.264583"
         d="m 38.062702,122.83696 h 2.228289 v 0.67799 h -2.228289 z" />
      <path
         id="path864"
         style="font-size:8.46667px;text-align:center;text-anchor:middle;stroke-width:0.264583"
         d="m 42.068662,122.54757 v 2.26136 h 1.339453 q 0.673861,0 0.996322,-0.27699 0.326596,-0.28112 0.326596,-0.85576 0,-0.57877 -0.326596,-0.85163 -0.322461,-0.27698 -0.996322,-0.27698 z m 0,-2.53835 v 1.86035 h 1.2361 q 0.61185,0 0.909506,-0.22737 0.301791,-0.23151 0.301791,-0.7028 0,-0.46716 -0.301791,-0.69867 -0.297656,-0.23151 -0.909506,-0.23151 z m -0.835092,-0.68626 h 2.133204 q 0.954981,0 1.471746,0.39687 0.516764,0.39688 0.516764,1.12862 0,0.56637 -0.264583,0.90123 -0.264584,0.33487 -0.777214,0.41755 0.615983,0.13229 0.954981,0.55397 0.343131,0.41755 0.343131,1.04593 0,0.82683 -0.56224,1.27744 -0.562239,0.45062 -1.599902,0.45062 H 41.23357 Z" />
      <path
         id="path866"
         style="font-size:8.46667px;text-align:center;text-anchor:middle;stroke-width:0.264583"
         d="m 49.113196,123.16769 q -0.921908,0 -1.277442,0.21084 -0.355534,0.21084 -0.355534,0.71933 0,0.40515 0.264584,0.64492 0.268717,0.23565 0.727604,0.23565 0.63252,0 1.012858,-0.44649 0.384473,-0.45061 0.384473,-1.19476 v -0.16949 z m 1.517221,-0.3142 v 2.6417 h -0.760678 v -0.7028 q -0.260449,0.42168 -0.649056,0.62426 -0.388607,0.19843 -0.950847,0.19843 -0.711068,0 -1.132748,-0.39687 -0.417545,-0.40101 -0.417545,-1.07074 0,-0.78135 0.520898,-1.17822 0.525033,-0.39688 1.562696,-0.39688 h 1.066602 v -0.0744 q 0,-0.52503 -0.347266,-0.81029 -0.343131,-0.28939 -0.967383,-0.28939 -0.396875,0 -0.773079,0.0951 -0.376205,0.0951 -0.723471,0.28525 v -0.7028 q 0.417546,-0.16123 0.810287,-0.23978 0.392741,-0.0827 0.764811,-0.0827 1.004591,0 1.500685,0.5209 0.496094,0.5209 0.496094,1.57923 z" />
      <path
         id="path868"
         style="font-size:8.46667px;text-align:center;text-anchor:middle;stroke-width:0.264583"
         d="m 55.244091,121.56778 v -2.50527 h 0.760677 v 6.43268 h -0.760677 v -0.69453 q -0.239779,0.41341 -0.607715,0.61599 -0.363802,0.19843 -0.876433,0.19843 -0.839225,0 -1.368392,-0.66972 -0.525033,-0.66973 -0.525033,-1.76114 0,-1.0914 0.525033,-1.76113 0.529167,-0.66973 1.368392,-0.66973 0.512631,0 0.876433,0.20257 0.367936,0.19844 0.607715,0.61185 z M 52.652,123.18422 q 0,0.83923 0.343132,1.31879 0.347265,0.47542 0.950846,0.47542 0.603581,0 0.950847,-0.47542 0.347266,-0.47956 0.347266,-1.31879 0,-0.83922 -0.347266,-1.31465 -0.347266,-0.47955 -0.950847,-0.47955 -0.603581,0 -0.950846,0.47955 Q 52.652,122.345 52.652,123.18422 Z" />
      <path
         id="path870"
         style="font-size:8.46667px;text-align:center;text-anchor:middle;stroke-width:0.264583"
         d="m 60.618442,123.12634 q 0,-0.82682 -0.343131,-1.28157 -0.338998,-0.45475 -0.954981,-0.45475 -0.611849,0 -0.954981,0.45475 -0.338998,0.45475 -0.338998,1.28157 0,0.82269 0.338998,1.27745 0.343132,0.45475 0.954981,0.45475 0.615983,0 0.954981,-0.45475 0.343131,-0.45476 0.343131,-1.27745 z m 0.760678,1.79421 q 0,1.18236 -0.525033,1.757 -0.525033,0.57878 -1.608171,0.57878 -0.40101,0 -0.756544,-0.062 -0.355534,-0.0579 -0.690397,-0.18191 v -0.74 q 0.334863,0.1819 0.661459,0.26871 0.326595,0.0868 0.665592,0.0868 0.748275,0 1.120346,-0.39274 0.37207,-0.38861 0.37207,-1.17822 v -0.37621 q -0.235644,0.40928 -0.603581,0.61185 -0.367936,0.20257 -0.880566,0.20257 -0.851628,0 -1.372527,-0.64905 -0.520899,-0.64906 -0.520899,-1.7198 0,-1.07487 0.520899,-1.72392 0.520899,-0.64906 1.372527,-0.64906 0.51263,0 0.880566,0.20257 0.367937,0.20258 0.603581,0.61185 v -0.7028 h 0.760678 z" />
      <path
         id="path872"
         style="font-size:8.46667px;text-align:center;text-anchor:middle;stroke-width:0.264583"
         d="m 66.906434,122.98992 v 0.37207 h -3.497463 q 0.04961,0.78548 0.471289,1.19889 0.425814,0.40928 1.182358,0.40928 0.438216,0 0.847494,-0.10749 0.413411,-0.10748 0.818555,-0.32246 v 0.71934 q -0.409278,0.17363 -0.839226,0.26458 -0.429948,0.091 -0.872299,0.091 -1.107943,0 -1.756999,-0.64492 -0.644922,-0.64492 -0.644922,-1.7446 0,-1.13688 0.611849,-1.80247 0.615983,-0.66973 1.657781,-0.66973 0.93431,0 1.475879,0.60358 0.545704,0.59945 0.545704,1.63298 z m -0.760678,-0.22324 q -0.0083,-0.62425 -0.3514,-0.99633 -0.338997,-0.37207 -0.901237,-0.37207 -0.636654,0 -1.021127,0.35967 -0.380338,0.35967 -0.438216,1.01286 z" />
      <path
         id="path874"
         style="font-size:8.46667px;text-align:center;text-anchor:middle;stroke-width:0.264583"
         d="m 67.770462,122.83696 h 2.228288 v 0.67799 h -2.228288 z" />
      <path
         id="path876"
         style="font-size:8.46667px;text-align:center;text-anchor:middle;stroke-width:0.264583"
         d="m 74.740581,121.77035 h -1.203028 l -0.347266,1.3808 h 1.211296 z m -0.620118,-2.35231 -0.429948,1.71566 h 1.207162 l 0.434082,-1.71566 h 0.661459 l -0.425814,1.71566 h 1.289844 v 0.63665 h -1.451075 l -0.338997,1.3808 h 1.314649 v 0.63252 h -1.47588 l -0.429948,1.71152 h -0.661458 l 0.425814,-1.71152 h -1.211296 l -0.425814,1.71152 H 71.93765 l 0.429948,-1.71152 h -1.302247 v -0.63252 h 1.455209 l 0.347266,-1.3808 h -1.331185 v -0.63665 h 1.492416 l 0.421679,-1.71566 z" />
      <path
         id="path878"
         style="font-size:8.46667px;text-align:center;text-anchor:middle;stroke-width:0.264583"
         d="m 80.197614,119.8728 q -0.644923,0 -0.971518,0.63665 -0.322461,0.63252 -0.322461,1.90583 0,1.26917 0.322461,1.90582 0.326595,0.63252 0.971518,0.63252 0.649056,0 0.971517,-0.63252 0.326595,-0.63665 0.326595,-1.90582 0,-1.27331 -0.326595,-1.90583 -0.322461,-0.63665 -0.971517,-0.63665 z m 0,-0.66146 q 1.037663,0 1.583366,0.82269 0.549838,0.81855 0.549838,2.38125 0,1.55856 -0.549838,2.38125 -0.545703,0.81855 -1.583366,0.81855 -1.037664,0 -1.587501,-0.81855 -0.545703,-0.82269 -0.545703,-2.38125 0,-1.5627 0.545703,-2.38125 0.549837,-0.82269 1.587501,-0.82269 z" />
      <path
         id="path880"
         style="font-size:8.46667px;text-align:center;text-anchor:middle;stroke-width:0.264583"
         d="m 85.584367,119.8728 q -0.644922,0 -0.971518,0.63665 -0.322461,0.63252 -0.322461,1.90583 0,1.26917 0.322461,1.90582 0.326596,0.63252 0.971518,0.63252 0.649056,0 0.971517,-0.63252 0.326595,-0.63665 0.326595,-1.90582 0,-1.27331 -0.326595,-1.90583 -0.322461,-0.63665 -0.971517,-0.63665 z m 0,-0.66146 q 1.037663,0 1.583366,0.82269 0.549838,0.81855 0.549838,2.38125 0,1.55856 -0.549838,2.38125 -0.545703,0.81855 -1.583366,0.81855 -1.037663,0 -1.587501,-0.81855 -0.545703,-0.82269 -0.545703,-2.38125 0,-1.5627 0.545703,-2.38125 0.549838,-0.82269 1.587501,-0.82269 z" />
      <path
         id="path882"
         style="font-size:8.46667px;text-align:center;text-anchor:middle;stroke-width:0.264583"
         d="m 90.971124,119.8728 q -0.644923,0 -0.971518,0.63665 -0.322461,0.63252 -0.322461,1.90583 0,1.26917 0.322461,1.90582 0.326595,0.63252 0.971518,0.63252 0.649056,0 0.971517,-0.63252 0.326595,-0.63665 0.326595,-1.90582 0,-1.27331 -0.326595,-1.90583 -0.322461,-0.63665 -0.971517,-0.63665 z m 0,-0.66146 q 1.037663,0 1.583366,0.82269 0.549838,0.81855 0.549838,2.38125 0,1.55856 -0.549838,2.38125 -0.545703,0.81855 -1.583366,0.81855 -1.037664,0 -1.587501,-0.81855 -0.545703,-0.82269 -0.545703,-2.38125 0,-1.5627 0.545703,-2.38125 0.549837,-0.82269 1.587501,-0.82269 z" />
    </g>
    <g
       style="font-style:normal;font-weight:normal;font-size:8.46667px;line-height:1.25;font-family:sans-serif;fill:#000000;fill-opacity:1;stroke:none;stroke-width:0.264583"
       id="text319"
       aria-label="Logo-Badge-Filled-#000">
      <path
         id="path885"
         style="font-size:8.46667px;text-align:center;text-anchor:middle;stroke-width:0.264583"
         d="m 98.14998,119.32296 h 0.835092 v 5.46943 h 3.005498 v 0.7028 h -3.84059 z" />
      <path
         id="path887"
         style="font-size:8.46667px;text-align:center;text-anchor:middle;stroke-width:0.264583"
         d="m 104.47931,121.39828 q -0.61185,0 -0.96738,0.47956 -0.35554,0.47543 -0.35554,1.30638 0,0.83096 0.3514,1.31052 0.35554,0.47542 0.97152,0.47542 0.60772,0 0.96325,-0.47956 0.35553,-0.47955 0.35553,-1.30638 0,-0.82269 -0.35553,-1.30224 -0.35553,-0.4837 -0.96325,-0.4837 z m 0,-0.64492 q 0.99219,0 1.55856,0.64492 0.56638,0.64493 0.56638,1.78594 0,1.13688 -0.56638,1.78594 -0.56637,0.64492 -1.55856,0.64492 -0.99632,0 -1.56269,-0.64492 -0.56224,-0.64906 -0.56224,-1.78594 0,-1.14101 0.56224,-1.78594 0.56637,-0.64492 1.56269,-0.64492 z" />
      <path
         id="path889"
         style="font-size:8.46667px;text-align:center;text-anchor:middle;stroke-width:0.264583"
         d="m 110.912,123.12634 q 0,-0.82682 -0.34314,-1.28157 -0.33899,-0.45475 -0.95498,-0.45475 -0.61185,0 -0.95498,0.45475 -0.33899,0.45475 -0.33899,1.28157 0,0.82269 0.33899,1.27745 0.34313,0.45475 0.95498,0.45475 0.61599,0 0.95498,-0.45475 0.34314,-0.45476 0.34314,-1.27745 z m 0.76067,1.79421 q 0,1.18236 -0.52503,1.757 -0.52503,0.57878 -1.60817,0.57878 -0.40101,0 -0.75654,-0.062 -0.35554,-0.0579 -0.6904,-0.18191 v -0.74 q 0.33486,0.1819 0.66146,0.26871 0.32659,0.0868 0.66559,0.0868 0.74828,0 1.12035,-0.39274 0.37207,-0.38861 0.37207,-1.17822 v -0.37621 q -0.23565,0.40928 -0.60358,0.61185 -0.36794,0.20257 -0.88057,0.20257 -0.85163,0 -1.37253,-0.64905 -0.5209,-0.64906 -0.5209,-1.7198 0,-1.07487 0.5209,-1.72392 0.5209,-0.64906 1.37253,-0.64906 0.51263,0 0.88057,0.20257 0.36793,0.20258 0.60358,0.61185 v -0.7028 h 0.76067 z" />
      <path
         id="path891"
         style="font-size:8.46667px;text-align:center;text-anchor:middle;stroke-width:0.264583"
         d="m 115.03371,121.39828 q -0.61185,0 -0.96738,0.47956 -0.35554,0.47543 -0.35554,1.30638 0,0.83096 0.3514,1.31052 0.35554,0.47542 0.97152,0.47542 0.60772,0 0.96325,-0.47956 0.35553,-0.47955 0.35553,-1.30638 0,-0.82269 -0.35553,-1.30224 -0.35553,-0.4837 -0.96325,-0.4837 z m 0,-0.64492 q 0.99219,0 1.55856,0.64492 0.56638,0.64493 0.56638,1.78594 0,1.13688 -0.56638,1.78594 -0.56637,0.64492 -1.55856,0.64492 -0.99632,0 -1.5627,-0.64492 -0.56224,-0.64906 -0.56224,-1.78594 0,-1.14101 0.56224,-1.78594 0.56638,-0.64492 1.5627,-0.64492 z" />
      <path
         id="path893"
         style="font-size:8.46667px;text-align:center;text-anchor:middle;stroke-width:0.264583"
         d="m 118.19217,122.83696 h 2.22829 v 0.67799 h -2.22829 z" />
      <path
         id="path895"
         style="font-size:8.46667px;text-align:center;text-anchor:middle;stroke-width:0.264583"
         d="m 122.19813,122.54757 v 2.26136 h 1.33946 q 0.67386,0 0.99632,-0.27699 0.32659,-0.28112 0.32659,-0.85576 0,-0.57877 -0.32659,-0.85163 -0.32246,-0.27698 -0.99632,-0.27698 z m 0,-2.53835 v 1.86035 h 1.2361 q 0.61185,0 0.90951,-0.22737 0.30179,-0.23151 0.30179,-0.7028 0,-0.46716 -0.30179,-0.69867 -0.29766,-0.23151 -0.90951,-0.23151 z m -0.83509,-0.68626 h 2.13321 q 0.95498,0 1.47174,0.39687 0.51677,0.39688 0.51677,1.12862 0,0.56637 -0.26459,0.90123 -0.26458,0.33487 -0.77721,0.41755 0.61598,0.13229 0.95498,0.55397 0.34313,0.41755 0.34313,1.04593 0,0.82683 -0.56224,1.27744 -0.56224,0.45062 -1.5999,0.45062 h -2.21589 z" />
      <path
         id="path897"
         style="font-size:8.46667px;text-align:center;text-anchor:middle;stroke-width:0.264583"
         d="m 129.24267,123.16769 q -0.92191,0 -1.27744,0.21084 -0.35554,0.21084 -0.35554,0.71933 0,0.40515 0.26459,0.64492 0.26871,0.23565 0.7276,0.23565 0.63252,0 1.01286,-0.44649 0.38447,-0.45061 0.38447,-1.19476 v -0.16949 z m 1.51722,-0.3142 v 2.6417 h -0.76068 v -0.7028 q -0.26045,0.42168 -0.64905,0.62426 -0.38861,0.19843 -0.95085,0.19843 -0.71107,0 -1.13275,-0.39687 -0.41755,-0.40101 -0.41755,-1.07074 0,-0.78135 0.5209,-1.17822 0.52504,-0.39688 1.5627,-0.39688 h 1.0666 v -0.0744 q 0,-0.52503 -0.34726,-0.81029 -0.34314,-0.28939 -0.96739,-0.28939 -0.39687,0 -0.77308,0.0951 -0.3762,0.0951 -0.72347,0.28525 v -0.7028 q 0.41755,-0.16123 0.81029,-0.23978 0.39274,-0.0827 0.76481,-0.0827 1.00459,0 1.50068,0.5209 0.4961,0.5209 0.4961,1.57923 z" />
      <path
         id="path899"
         style="font-size:8.46667px;text-align:center;text-anchor:middle;stroke-width:0.264583"
         d="m 135.37356,121.56778 v -2.50527 h 0.76068 v 6.43268 h -0.76068 v -0.69453 q -0.23978,0.41341 -0.60771,0.61599 -0.3638,0.19843 -0.87643,0.19843 -0.83923,0 -1.3684,-0.66972 -0.52503,-0.66973 -0.52503,-1.76114 0,-1.0914 0.52503,-1.76113 0.52917,-0.66973 1.3684,-0.66973 0.51263,0 0.87643,0.20257 0.36793,0.19844 0.60771,0.61185 z m -2.59209,1.61644 q 0,0.83923 0.34313,1.31879 0.34727,0.47542 0.95085,0.47542 0.60358,0 0.95085,-0.47542 0.34726,-0.47956 0.34726,-1.31879 0,-0.83922 -0.34726,-1.31465 -0.34727,-0.47955 -0.95085,-0.47955 -0.60358,0 -0.95085,0.47955 -0.34313,0.47543 -0.34313,1.31465 z" />
      <path
         id="path901"
         style="font-size:8.46667px;text-align:center;text-anchor:middle;stroke-width:0.264583"
         d="m 140.74791,123.12634 q 0,-0.82682 -0.34313,-1.28157 -0.33899,-0.45475 -0.95498,-0.45475 -0.61185,0 -0.95498,0.45475 -0.339,0.45475 -0.339,1.28157 0,0.82269 0.339,1.27745 0.34313,0.45475 0.95498,0.45475 0.61599,0 0.95498,-0.45475 0.34313,-0.45476 0.34313,-1.27745 z m 0.76068,1.79421 q 0,1.18236 -0.52503,1.757 -0.52503,0.57878 -1.60817,0.57878 -0.40101,0 -0.75655,-0.062 -0.35553,-0.0579 -0.69039,-0.18191 v -0.74 q 0.33486,0.1819 0.66146,0.26871 0.32659,0.0868 0.66559,0.0868 0.74827,0 1.12034,-0.39274 0.37207,-0.38861 0.37207,-1.17822 v -0.37621 q -0.23564,0.40928 -0.60358,0.61185 -0.36793,0.20257 -0.88056,0.20257 -0.85163,0 -1.37253,-0.64905 -0.5209,-0.64906 -0.5209,-1.7198 0,-1.07487 0.5209,-1.72392 0.5209,-0.64906 1.37253,-0.64906 0.51263,0 0.88056,0.20257 0.36794,0.20258 0.60358,0.61185 v -0.7028 h 0.76068 z" />
      <path
         id="path903"
         style="font-size:8.46667px;text-align:center;text-anchor:middle;stroke-width:0.264583"
         d="m 147.03591,122.98992 v 0.37207 h -3.49747 q 0.0496,0.78548 0.47129,1.19889 0.42582,0.40928 1.18236,0.40928 0.43822,0 0.84749,-0.10749 0.41342,-0.10748 0.81856,-0.32246 v 0.71934 q -0.40928,0.17363 -0.83923,0.26458 -0.42994,0.091 -0.8723,0.091 -1.10794,0 -1.75699,-0.64492 -0.64493,-0.64492 -0.64493,-1.7446 0,-1.13688 0.61185,-1.80247 0.61599,-0.66973 1.65778,-0.66973 0.93431,0 1.47588,0.60358 0.54571,0.59945 0.54571,1.63298 z m -0.76068,-0.22324 q -0.008,-0.62425 -0.3514,-0.99633 -0.339,-0.37207 -0.90124,-0.37207 -0.63665,0 -1.02113,0.35967 -0.38033,0.35967 -0.43821,1.01286 z" />
      <path
         id="path905"
         style="font-size:8.46667px;text-align:center;text-anchor:middle;stroke-width:0.264583"
         d="m 147.89993,122.83696 h 2.22829 v 0.67799 h -2.22829 z" />
      <path
         id="path907"
         style="font-size:8.46667px;text-align:center;text-anchor:middle;stroke-width:0.264583"
         d="m 151.37259,119.32296 h 3.54707 v 0.7028 h -2.71198 v 1.81901 h 2.4474 v 0.7028 h -2.4474 v 2.94762 h -0.83509 z" />
      <path
         id="path909"
         style="font-size:8.46667px;text-align:center;text-anchor:middle;stroke-width:0.264583"
         d="m 155.59352,120.86498 h 0.76068 v 4.63021 h -0.76068 z m 0,-1.80247 h 0.76068 v 0.96325 h -0.76068 z" />
      <path
         id="path911"
         style="font-size:8.46667px;text-align:center;text-anchor:middle;stroke-width:0.264583"
         d="m 157.94584,119.06251 h 0.76067 v 6.43268 h -0.76067 z" />
      <path
         id="path913"
         style="font-size:8.46667px;text-align:center;text-anchor:middle;stroke-width:0.264583"
         d="m 160.29815,119.06251 h 0.76067 v 6.43268 h -0.76067 z" />
      <path
         id="path915"
         style="font-size:8.46667px;text-align:center;text-anchor:middle;stroke-width:0.264583"
         d="m 166.61094,122.98992 v 0.37207 h -3.49746 q 0.0496,0.78548 0.47129,1.19889 0.42582,0.40928 1.18236,0.40928 0.43822,0 0.84749,-0.10749 0.41341,-0.10748 0.81856,-0.32246 v 0.71934 q -0.40928,0.17363 -0.83923,0.26458 -0.42995,0.091 -0.8723,0.091 -1.10794,0 -1.757,-0.64492 -0.64492,-0.64492 -0.64492,-1.7446 0,-1.13688 0.61185,-1.80247 0.61598,-0.66973 1.65778,-0.66973 0.93431,0 1.47588,0.60358 0.5457,0.59945 0.5457,1.63298 z m -0.76067,-0.22324 q -0.008,-0.62425 -0.3514,-0.99633 -0.339,-0.37207 -0.90124,-0.37207 -0.63665,0 -1.02113,0.35967 -0.38034,0.35967 -0.43821,1.01286 z" />
      <path
         id="path917"
         style="font-size:8.46667px;text-align:center;text-anchor:middle;stroke-width:0.264583"
         d="m 170.90629,121.56778 v -2.50527 h 0.76068 v 6.43268 h -0.76068 v -0.69453 q -0.23978,0.41341 -0.60772,0.61599 -0.3638,0.19843 -0.87643,0.19843 -0.83922,0 -1.36839,-0.66972 -0.52503,-0.66973 -0.52503,-1.76114 0,-1.0914 0.52503,-1.76113 0.52917,-0.66973 1.36839,-0.66973 0.51263,0 0.87643,0.20257 0.36794,0.19844 0.60772,0.61185 z m -2.59209,1.61644 q 0,0.83923 0.34313,1.31879 0.34727,0.47542 0.95085,0.47542 0.60358,0 0.95084,-0.47542 0.34727,-0.47956 0.34727,-1.31879 0,-0.83922 -0.34727,-1.31465 -0.34726,-0.47955 -0.95084,-0.47955 -0.60358,0 -0.95085,0.47955 -0.34313,0.47543 -0.34313,1.31465 z" />
      <path
         id="path919"
         style="font-size:8.46667px;text-align:center;text-anchor:middle;stroke-width:0.264583"
         d="m 172.84932,122.83696 h 2.22829 v 0.67799 h -2.22829 z" />
      <path
         id="path921"
         style="font-size:8.46667px;text-align:center;text-anchor:middle;stroke-width:0.264583"
         d="m 179.81945,121.77035 h -1.20303 l -0.34727,1.3808 h 1.2113 z m -0.62012,-2.35231 -0.42995,1.71566 h 1.20716 l 0.43409,-1.71566 h 0.66145 l -0.42581,1.71566 h 1.28984 v 0.63665 h -1.45107 l -0.339,1.3808 h 1.31465 v 0.63252 h -1.47588 l -0.42995,1.71152 h -0.66145 l 0.42581,-1.71152 h -1.2113 l -0.42581,1.71152 h -0.66559 l 0.42994,-1.71152 h -1.30224 v -0.63252 h 1.45521 l 0.34726,-1.3808 h -1.33118 v -0.63665 h 1.49241 l 0.42168,-1.71566 z" />
      <path
         id="path923"
         style="font-size:8.46667px;text-align:center;text-anchor:middle;stroke-width:0.264583"
         d="m 185.27648,119.8728 q -0.64493,0 -0.97152,0.63665 -0.32246,0.63252 -0.32246,1.90583 0,1.26917 0.32246,1.90582 0.32659,0.63252 0.97152,0.63252 0.64905,0 0.97151,-0.63252 0.3266,-0.63665 0.3266,-1.90582 0,-1.27331 -0.3266,-1.90583 -0.32246,-0.63665 -0.97151,-0.63665 z m 0,-0.66146 q 1.03766,0 1.58336,0.82269 0.54984,0.81855 0.54984,2.38125 0,1.55856 -0.54984,2.38125 -0.5457,0.81855 -1.58336,0.81855 -1.03767,0 -1.5875,-0.81855 -0.54571,-0.82269 -0.54571,-2.38125 0,-1.5627 0.54571,-2.38125 0.54983,-0.82269 1.5875,-0.82269 z" />
      <path
         id="path925"
         style="font-size:8.46667px;text-align:center;text-anchor:middle;stroke-width:0.264583"
         d="m 190.66323,119.8728 q -0.64492,0 -0.97151,0.63665 -0.32247,0.63252 -0.32247,1.90583 0,1.26917 0.32247,1.90582 0.32659,0.63252 0.97151,0.63252 0.64906,0 0.97152,-0.63252 0.3266,-0.63665 0.3266,-1.90582 0,-1.27331 -0.3266,-1.90583 -0.32246,-0.63665 -0.97152,-0.63665 z m 0,-0.66146 q 1.03767,0 1.58337,0.82269 0.54984,0.81855 0.54984,2.38125 0,1.55856 -0.54984,2.38125 -0.5457,0.81855 -1.58337,0.81855 -1.03766,0 -1.5875,-0.81855 -0.5457,-0.82269 -0.5457,-2.38125 0,-1.5627 0.5457,-2.38125 0.54984,-0.82269 1.5875,-0.82269 z" />
      <path
         id="path927"
         style="font-size:8.46667px;text-align:center;text-anchor:middle;stroke-width:0.264583"
         d="m 196.04998,119.8728 q -0.64492,0 -0.97151,0.63665 -0.32247,0.63252 -0.32247,1.90583 0,1.26917 0.32247,1.90582 0.32659,0.63252 0.97151,0.63252 0.64906,0 0.97152,-0.63252 0.32659,-0.63665 0.32659,-1.90582 0,-1.27331 -0.32659,-1.90583 -0.32246,-0.63665 -0.97152,-0.63665 z m 0,-0.66146 q 1.03767,0 1.58337,0.82269 0.54984,0.81855 0.54984,2.38125 0,1.55856 -0.54984,2.38125 -0.5457,0.81855 -1.58337,0.81855 -1.03766,0 -1.5875,-0.81855 -0.5457,-0.82269 -0.5457,-2.38125 0,-1.5627 0.5457,-2.38125 0.54984,-0.82269 1.5875,-0.82269 z" />
    </g>
    <g
       style="font-style:normal;font-weight:normal;font-size:8.46667px;line-height:1.25;font-family:sans-serif;fill:#000000;fill-opacity:1;stroke:none;stroke-width:0.264583"
       id="text323"
       aria-label="Logo-Ring-#000">
      <path
         id="path930"
         style="font-size:8.46667px;text-align:center;text-anchor:middle;stroke-width:0.264583"
         d="m 207.06736,119.32296 h 0.83509 v 5.46943 h 3.0055 v 0.7028 h -3.84059 z" />
      <path
         id="path932"
         style="font-size:8.46667px;text-align:center;text-anchor:middle;stroke-width:0.264583"
         d="m 213.39669,121.39828 q -0.61185,0 -0.96738,0.47956 -0.35554,0.47543 -0.35554,1.30638 0,0.83096 0.3514,1.31052 0.35554,0.47542 0.97152,0.47542 0.60772,0 0.96325,-0.47956 0.35553,-0.47955 0.35553,-1.30638 0,-0.82269 -0.35553,-1.30224 -0.35553,-0.4837 -0.96325,-0.4837 z m 0,-0.64492 q 0.99219,0 1.55856,0.64492 0.56638,0.64493 0.56638,1.78594 0,1.13688 -0.56638,1.78594 -0.56637,0.64492 -1.55856,0.64492 -0.99632,0 -1.56269,-0.64492 -0.56224,-0.64906 -0.56224,-1.78594 0,-1.14101 0.56224,-1.78594 0.56637,-0.64492 1.56269,-0.64492 z" />
      <path
         id="path934"
         style="font-size:8.46667px;text-align:center;text-anchor:middle;stroke-width:0.264583"
         d="m 219.82938,123.12634 q 0,-0.82682 -0.34314,-1.28157 -0.33899,-0.45475 -0.95498,-0.45475 -0.61185,0 -0.95498,0.45475 -0.339,0.45475 -0.339,1.28157 0,0.82269 0.339,1.27745 0.34313,0.45475 0.95498,0.45475 0.61599,0 0.95498,-0.45475 0.34314,-0.45476 0.34314,-1.27745 z m 0.76067,1.79421 q 0,1.18236 -0.52503,1.757 -0.52503,0.57878 -1.60817,0.57878 -0.40101,0 -0.75654,-0.062 -0.35554,-0.0579 -0.6904,-0.18191 v -0.74 q 0.33486,0.1819 0.66146,0.26871 0.32659,0.0868 0.66559,0.0868 0.74827,0 1.12034,-0.39274 0.37208,-0.38861 0.37208,-1.17822 v -0.37621 q -0.23565,0.40928 -0.60359,0.61185 -0.36793,0.20257 -0.88056,0.20257 -0.85163,0 -1.37253,-0.64905 -0.5209,-0.64906 -0.5209,-1.7198 0,-1.07487 0.5209,-1.72392 0.5209,-0.64906 1.37253,-0.64906 0.51263,0 0.88056,0.20257 0.36794,0.20258 0.60359,0.61185 v -0.7028 h 0.76067 z" />
      <path
         id="path936"
         style="font-size:8.46667px;text-align:center;text-anchor:middle;stroke-width:0.264583"
         d="m 223.95109,121.39828 q -0.61185,0 -0.96738,0.47956 -0.35554,0.47543 -0.35554,1.30638 0,0.83096 0.3514,1.31052 0.35554,0.47542 0.97152,0.47542 0.60771,0 0.96325,-0.47956 0.35553,-0.47955 0.35553,-1.30638 0,-0.82269 -0.35553,-1.30224 -0.35554,-0.4837 -0.96325,-0.4837 z m 0,-0.64492 q 0.99219,0 1.55856,0.64492 0.56638,0.64493 0.56638,1.78594 0,1.13688 -0.56638,1.78594 -0.56637,0.64492 -1.55856,0.64492 -0.99632,0 -1.5627,-0.64492 -0.56224,-0.64906 -0.56224,-1.78594 0,-1.14101 0.56224,-1.78594 0.56638,-0.64492 1.5627,-0.64492 z" />
      <path
         id="path938"
         style="font-size:8.46667px;text-align:center;text-anchor:middle;stroke-width:0.264583"
         d="m 227.10955,122.83696 h 2.22829 v 0.67799 h -2.22829 z" />
      <path
         id="path940"
         style="font-size:8.46667px;text-align:center;text-anchor:middle;stroke-width:0.264583"
         d="m 233.50917,122.60131 q 0.26871,0.091 0.52089,0.38861 0.25632,0.29766 0.51264,0.81855 l 0.84749,1.68672 h -0.8971 l -0.78962,-1.58336 q -0.30593,-0.62012 -0.59531,-0.82269 -0.28526,-0.20257 -0.78135,-0.20257 h -0.90951 v 2.60862 h -0.83509 v -6.17223 h 1.88516 q 1.05833,0 1.57923,0.44235 0.5209,0.44235 0.5209,1.33532 0,0.58291 -0.27285,0.96738 -0.26872,0.38447 -0.78548,0.5333 z m -2.09187,-2.59209 v 2.19108 h 1.05007 q 0.60358,0 0.9095,-0.27698 0.31006,-0.28112 0.31006,-0.82269 0,-0.54157 -0.31006,-0.81442 -0.30592,-0.27699 -0.9095,-0.27699 z" />
      <path
         id="path942"
         style="font-size:8.46667px;text-align:center;text-anchor:middle;stroke-width:0.264583"
         d="m 236.43199,120.86498 h 0.76067 v 4.63021 h -0.76067 z m 0,-1.80247 h 0.76067 v 0.96325 h -0.76067 z" />
      <path
         id="path944"
         style="font-size:8.46667px;text-align:center;text-anchor:middle;stroke-width:0.264583"
         d="m 242.63316,122.70053 v 2.79466 h -0.76068 v -2.76985 q 0,-0.65733 -0.25631,-0.98392 -0.25632,-0.3266 -0.76895,-0.3266 -0.61598,0 -0.97152,0.39274 -0.35553,0.39274 -0.35553,1.07074 v 2.61689 h -0.76481 v -4.63021 h 0.76481 v 0.71934 q 0.27285,-0.41755 0.64079,-0.62425 0.37207,-0.20671 0.85576,-0.20671 0.79788,0 1.20716,0.4961 0.40928,0.49196 0.40928,1.45107 z" />
      <path
         id="path946"
         style="font-size:8.46667px;text-align:center;text-anchor:middle;stroke-width:0.264583"
         d="m 247.19723,123.12634 q 0,-0.82682 -0.34314,-1.28157 -0.33899,-0.45475 -0.95498,-0.45475 -0.61185,0 -0.95498,0.45475 -0.33899,0.45475 -0.33899,1.28157 0,0.82269 0.33899,1.27745 0.34313,0.45475 0.95498,0.45475 0.61599,0 0.95498,-0.45475 0.34314,-0.45476 0.34314,-1.27745 z m 0.76067,1.79421 q 0,1.18236 -0.52503,1.757 -0.52503,0.57878 -1.60817,0.57878 -0.40101,0 -0.75654,-0.062 -0.35554,-0.0579 -0.6904,-0.18191 v -0.74 q 0.33486,0.1819 0.66146,0.26871 0.32659,0.0868 0.66559,0.0868 0.74828,0 1.12035,-0.39274 0.37207,-0.38861 0.37207,-1.17822 v -0.37621 q -0.23565,0.40928 -0.60358,0.61185 -0.36794,0.20257 -0.88057,0.20257 -0.85163,0 -1.37253,-0.64905 -0.5209,-0.64906 -0.5209,-1.7198 0,-1.07487 0.5209,-1.72392 0.5209,-0.64906 1.37253,-0.64906 0.51263,0 0.88057,0.20257 0.36793,0.20258 0.60358,0.61185 v -0.7028 h 0.76067 z" />
      <path
         id="path948"
         style="font-size:8.46667px;text-align:center;text-anchor:middle;stroke-width:0.264583"
         d="m 249.14026,122.83696 h 2.22829 v 0.67799 h -2.22829 z" />
      <path
         id="path950"
         style="font-size:8.46667px;text-align:center;text-anchor:middle;stroke-width:0.264583"
         d="m 256.11038,121.77035 h -1.20303 l -0.34726,1.3808 h 1.21129 z m -0.62012,-2.35231 -0.42994,1.71566 h 1.20716 l 0.43408,-1.71566 h 0.66146 l -0.42582,1.71566 h 1.28985 v 0.63665 h -1.45108 l -0.33899,1.3808 h 1.31464 v 0.63252 h -1.47587 l -0.42995,1.71152 h -0.66146 l 0.42581,-1.71152 h -1.21129 l -0.42582,1.71152 h -0.66559 l 0.42995,-1.71152 h -1.30225 v -0.63252 h 1.45521 l 0.34727,-1.3808 h -1.33119 v -0.63665 h 1.49242 l 0.42168,-1.71566 z" />
      <path
         id="path952"
         style="font-size:8.46667px;text-align:center;text-anchor:middle;stroke-width:0.264583"
         d="m 261.56741,119.8728 q -0.64492,0 -0.97151,0.63665 -0.32246,0.63252 -0.32246,1.90583 0,1.26917 0.32246,1.90582 0.32659,0.63252 0.97151,0.63252 0.64906,0 0.97152,-0.63252 0.3266,-0.63665 0.3266,-1.90582 0,-1.27331 -0.3266,-1.90583 -0.32246,-0.63665 -0.97152,-0.63665 z m 0,-0.66146 q 1.03767,0 1.58337,0.82269 0.54984,0.81855 0.54984,2.38125 0,1.55856 -0.54984,2.38125 -0.5457,0.81855 -1.58337,0.81855 -1.03766,0 -1.5875,-0.81855 -0.5457,-0.82269 -0.5457,-2.38125 0,-1.5627 0.5457,-2.38125 0.54984,-0.82269 1.5875,-0.82269 z" />
      <path
         id="path954"
         style="font-size:8.46667px;text-align:center;text-anchor:middle;stroke-width:0.264583"
         d="m 266.95417,119.8728 q -0.64493,0 -0.97152,0.63665 -0.32246,0.63252 -0.32246,1.90583 0,1.26917 0.32246,1.90582 0.32659,0.63252 0.97152,0.63252 0.64905,0 0.97151,-0.63252 0.3266,-0.63665 0.3266,-1.90582 0,-1.27331 -0.3266,-1.90583 -0.32246,-0.63665 -0.97151,-0.63665 z m 0,-0.66146 q 1.03766,0 1.58336,0.82269 0.54984,0.81855 0.54984,2.38125 0,1.55856 -0.54984,2.38125 -0.5457,0.81855 -1.58336,0.81855 -1.03767,0 -1.5875,-0.81855 -0.54571,-0.82269 -0.54571,-2.38125 0,-1.5627 0.54571,-2.38125 0.54983,-0.82269 1.5875,-0.82269 z" />
      <path
         id="path956"
         style="font-size:8.46667px;text-align:center;text-anchor:middle;stroke-width:0.264583"
         d="m 272.34092,119.8728 q -0.64492,0 -0.97152,0.63665 -0.32246,0.63252 -0.32246,1.90583 0,1.26917 0.32246,1.90582 0.3266,0.63252 0.97152,0.63252 0.64906,0 0.97152,-0.63252 0.32659,-0.63665 0.32659,-1.90582 0,-1.27331 -0.32659,-1.90583 -0.32246,-0.63665 -0.97152,-0.63665 z m 0,-0.66146 q 1.03766,0 1.58337,0.82269 0.54983,0.81855 0.54983,2.38125 0,1.55856 -0.54983,2.38125 -0.54571,0.81855 -1.58337,0.81855 -1.03766,0 -1.5875,-0.81855 -0.5457,-0.82269 -0.5457,-2.38125 0,-1.5627 0.5457,-2.38125 0.54984,-0.82269 1.5875,-0.82269 z" />
    </g>
    <g
       style="font-style:normal;font-weight:normal;font-size:8.46667px;line-height:1.25;font-family:sans-serif;fill:#000000;fill-opacity:1;stroke:none;stroke-width:0.264583"
       id="text327"
       aria-label="Logo-Ring-Filled-#000">
      <path
         id="path959"
         style="font-size:8.46667px;text-align:center;text-anchor:middle;stroke-width:0.264583"
         d="m 287.19685,119.32296 h 0.83509 v 5.46943 h 3.0055 v 0.7028 h -3.84059 z" />
      <path
         id="path961"
         style="font-size:8.46667px;text-align:center;text-anchor:middle;stroke-width:0.264583"
         d="m 293.52618,121.39828 q -0.61185,0 -0.96738,0.47956 -0.35553,0.47543 -0.35553,1.30638 0,0.83096 0.35139,1.31052 0.35554,0.47542 0.97152,0.47542 0.60772,0 0.96325,-0.47956 0.35554,-0.47955 0.35554,-1.30638 0,-0.82269 -0.35554,-1.30224 -0.35553,-0.4837 -0.96325,-0.4837 z m 0,-0.64492 q 0.99219,0 1.55856,0.64492 0.56638,0.64493 0.56638,1.78594 0,1.13688 -0.56638,1.78594 -0.56637,0.64492 -1.55856,0.64492 -0.99632,0 -1.56269,-0.64492 -0.56224,-0.64906 -0.56224,-1.78594 0,-1.14101 0.56224,-1.78594 0.56637,-0.64492 1.56269,-0.64492 z" />
      <path
         id="path963"
         style="font-size:8.46667px;text-align:center;text-anchor:middle;stroke-width:0.264583"
         d="m 299.95887,123.12634 q 0,-0.82682 -0.34314,-1.28157 -0.33899,-0.45475 -0.95498,-0.45475 -0.61185,0 -0.95498,0.45475 -0.33899,0.45475 -0.33899,1.28157 0,0.82269 0.33899,1.27745 0.34313,0.45475 0.95498,0.45475 0.61599,0 0.95498,-0.45475 0.34314,-0.45476 0.34314,-1.27745 z m 0.76067,1.79421 q 0,1.18236 -0.52503,1.757 -0.52503,0.57878 -1.60817,0.57878 -0.40101,0 -0.75654,-0.062 -0.35554,-0.0579 -0.6904,-0.18191 v -0.74 q 0.33486,0.1819 0.66146,0.26871 0.32659,0.0868 0.66559,0.0868 0.74828,0 1.12035,-0.39274 0.37207,-0.38861 0.37207,-1.17822 v -0.37621 q -0.23565,0.40928 -0.60358,0.61185 -0.36794,0.20257 -0.88057,0.20257 -0.85163,0 -1.37253,-0.64905 -0.5209,-0.64906 -0.5209,-1.7198 0,-1.07487 0.5209,-1.72392 0.5209,-0.64906 1.37253,-0.64906 0.51263,0 0.88057,0.20257 0.36793,0.20258 0.60358,0.61185 v -0.7028 h 0.76067 z" />
      <path
         id="path965"
         style="font-size:8.46667px;text-align:center;text-anchor:middle;stroke-width:0.264583"
         d="m 304.08058,121.39828 q -0.61185,0 -0.96738,0.47956 -0.35554,0.47543 -0.35554,1.30638 0,0.83096 0.3514,1.31052 0.35554,0.47542 0.97152,0.47542 0.60772,0 0.96325,-0.47956 0.35553,-0.47955 0.35553,-1.30638 0,-0.82269 -0.35553,-1.30224 -0.35553,-0.4837 -0.96325,-0.4837 z m 0,-0.64492 q 0.99219,0 1.55856,0.64492 0.56638,0.64493 0.56638,1.78594 0,1.13688 -0.56638,1.78594 -0.56637,0.64492 -1.55856,0.64492 -0.99632,0 -1.5627,-0.64492 -0.56223,-0.64906 -0.56223,-1.78594 0,-1.14101 0.56223,-1.78594 0.56638,-0.64492 1.5627,-0.64492 z" />
      <path
         id="path967"
         style="font-size:8.46667px;text-align:center;text-anchor:middle;stroke-width:0.264583"
         d="m 307.23904,122.83696 h 2.22829 v 0.67799 h -2.22829 z" />
      <path
         id="path969"
         style="font-size:8.46667px;text-align:center;text-anchor:middle;stroke-width:0.264583"
         d="m 313.63866,122.60131 q 0.26871,0.091 0.5209,0.38861 0.25631,0.29766 0.51263,0.81855 l 0.84749,1.68672 h -0.8971 l -0.78962,-1.58336 q -0.30592,-0.62012 -0.59531,-0.82269 -0.28526,-0.20257 -0.78135,-0.20257 h -0.90951 v 2.60862 h -0.83509 v -6.17223 h 1.88516 q 1.05833,0 1.57923,0.44235 0.5209,0.44235 0.5209,1.33532 0,0.58291 -0.27285,0.96738 -0.26872,0.38447 -0.78548,0.5333 z m -2.09187,-2.59209 v 2.19108 h 1.05007 q 0.60358,0 0.90951,-0.27698 0.31005,-0.28112 0.31005,-0.82269 0,-0.54157 -0.31005,-0.81442 -0.30593,-0.27699 -0.90951,-0.27699 z" />
      <path
         id="path971"
         style="font-size:8.46667px;text-align:center;text-anchor:middle;stroke-width:0.264583"
         d="m 316.56148,120.86498 h 0.76067 v 4.63021 h -0.76067 z m 0,-1.80247 h 0.76067 v 0.96325 h -0.76067 z" />
      <path
         id="path973"
         style="font-size:8.46667px;text-align:center;text-anchor:middle;stroke-width:0.264583"
         d="m 322.76265,122.70053 v 2.79466 h -0.76068 v -2.76985 q 0,-0.65733 -0.25631,-0.98392 -0.25632,-0.3266 -0.76895,-0.3266 -0.61598,0 -0.97151,0.39274 -0.35554,0.39274 -0.35554,1.07074 v 2.61689 h -0.76481 v -4.63021 h 0.76481 v 0.71934 q 0.27285,-0.41755 0.64079,-0.62425 0.37207,-0.20671 0.85576,-0.20671 0.79789,0 1.20716,0.4961 0.40928,0.49196 0.40928,1.45107 z" />
      <path
         id="path975"
         style="font-size:8.46667px;text-align:center;text-anchor:middle;stroke-width:0.264583"
         d="m 327.32672,123.12634 q 0,-0.82682 -0.34313,-1.28157 -0.339,-0.45475 -0.95498,-0.45475 -0.61185,0 -0.95499,0.45475 -0.33899,0.45475 -0.33899,1.28157 0,0.82269 0.33899,1.27745 0.34314,0.45475 0.95499,0.45475 0.61598,0 0.95498,-0.45475 0.34313,-0.45476 0.34313,-1.27745 z m 0.76068,1.79421 q 0,1.18236 -0.52504,1.757 -0.52503,0.57878 -1.60817,0.57878 -0.40101,0 -0.75654,-0.062 -0.35554,-0.0579 -0.6904,-0.18191 v -0.74 q 0.33486,0.1819 0.66146,0.26871 0.32659,0.0868 0.66559,0.0868 0.74828,0 1.12035,-0.39274 0.37207,-0.38861 0.37207,-1.17822 v -0.37621 q -0.23565,0.40928 -0.60358,0.61185 -0.36794,0.20257 -0.88057,0.20257 -0.85163,0 -1.37253,-0.64905 -0.5209,-0.64906 -0.5209,-1.7198 0,-1.07487 0.5209,-1.72392 0.5209,-0.64906 1.37253,-0.64906 0.51263,0 0.88057,0.20257 0.36793,0.20258 0.60358,0.61185 v -0.7028 h 0.76068 z" />
      <path
         id="path977"
         style="font-size:8.46667px;text-align:center;text-anchor:middle;stroke-width:0.264583"
         d="m 329.26975,122.83696 h 2.22829 v 0.67799 h -2.22829 z" />
      <path
         id="path979"
         style="font-size:8.46667px;text-align:center;text-anchor:middle;stroke-width:0.264583"
         d="m 332.74241,119.32296 h 3.54707 v 0.7028 h -2.71198 v 1.81901 h 2.4474 v 0.7028 h -2.4474 v 2.94762 h -0.83509 z" />
      <path
         id="path981"
         style="font-size:8.46667px;text-align:center;text-anchor:middle;stroke-width:0.264583"
         d="m 336.96334,120.86498 h 0.76068 v 4.63021 h -0.76068 z m 0,-1.80247 h 0.76068 v 0.96325 h -0.76068 z" />
      <path
         id="path983"
         style="font-size:8.46667px;text-align:center;text-anchor:middle;stroke-width:0.264583"
         d="m 339.31565,119.06251 h 0.76068 v 6.43268 h -0.76068 z" />
      <path
         id="path985"
         style="font-size:8.46667px;text-align:center;text-anchor:middle;stroke-width:0.264583"
         d="m 341.66797,119.06251 h 0.76067 v 6.43268 h -0.76067 z" />
      <path
         id="path987"
         style="font-size:8.46667px;text-align:center;text-anchor:middle;stroke-width:0.264583"
         d="m 347.98076,122.98992 v 0.37207 h -3.49746 q 0.0496,0.78548 0.47129,1.19889 0.42581,0.40928 1.18235,0.40928 0.43822,0 0.8475,-0.10749 0.41341,-0.10748 0.81855,-0.32246 v 0.71934 q -0.40927,0.17363 -0.83922,0.26458 -0.42995,0.091 -0.8723,0.091 -1.10794,0 -1.757,-0.64492 -0.64492,-0.64492 -0.64492,-1.7446 0,-1.13688 0.61185,-1.80247 0.61598,-0.66973 1.65778,-0.66973 0.93431,0 1.47588,0.60358 0.5457,0.59945 0.5457,1.63298 z m -0.76068,-0.22324 q -0.008,-0.62425 -0.3514,-0.99633 -0.339,-0.37207 -0.90123,-0.37207 -0.63666,0 -1.02113,0.35967 -0.38034,0.35967 -0.43822,1.01286 z" />
      <path
         id="path989"
         style="font-size:8.46667px;text-align:center;text-anchor:middle;stroke-width:0.264583"
         d="m 352.27611,121.56778 v -2.50527 h 0.76068 v 6.43268 h -0.76068 v -0.69453 q -0.23978,0.41341 -0.60772,0.61599 -0.3638,0.19843 -0.87643,0.19843 -0.83923,0 -1.36839,-0.66972 -0.52503,-0.66973 -0.52503,-1.76114 0,-1.0914 0.52503,-1.76113 0.52916,-0.66973 1.36839,-0.66973 0.51263,0 0.87643,0.20257 0.36794,0.19844 0.60772,0.61185 z m -2.59209,1.61644 q 0,0.83923 0.34313,1.31879 0.34726,0.47542 0.95085,0.47542 0.60358,0 0.95084,-0.47542 0.34727,-0.47956 0.34727,-1.31879 0,-0.83922 -0.34727,-1.31465 -0.34726,-0.47955 -0.95084,-0.47955 -0.60359,0 -0.95085,0.47955 -0.34313,0.47543 -0.34313,1.31465 z" />
      <path
         id="path991"
         style="font-size:8.46667px;text-align:center;text-anchor:middle;stroke-width:0.264583"
         d="m 354.21914,122.83696 h 2.22829 v 0.67799 h -2.22829 z" />
      <path
         id="path993"
         style="font-size:8.46667px;text-align:center;text-anchor:middle;stroke-width:0.264583"
         d="m 361.18926,121.77035 h -1.20303 l -0.34726,1.3808 h 1.21129 z m -0.62012,-2.35231 -0.42994,1.71566 h 1.20716 l 0.43408,-1.71566 h 0.66146 l -0.42581,1.71566 h 1.28984 v 0.63665 h -1.45108 l -0.33899,1.3808 h 1.31465 v 0.63252 h -1.47588 l -0.42995,1.71152 h -0.66146 l 0.42581,-1.71152 h -1.21129 l -0.42582,1.71152 h -0.66559 l 0.42995,-1.71152 h -1.30225 v -0.63252 h 1.45521 l 0.34727,-1.3808 h -1.33119 v -0.63665 h 1.49242 l 0.42168,-1.71566 z" />
      <path
         id="path995"
         style="font-size:8.46667px;text-align:center;text-anchor:middle;stroke-width:0.264583"
         d="m 366.64629,119.8728 q -0.64492,0 -0.97152,0.63665 -0.32246,0.63252 -0.32246,1.90583 0,1.26917 0.32246,1.90582 0.3266,0.63252 0.97152,0.63252 0.64906,0 0.97152,-0.63252 0.32659,-0.63665 0.32659,-1.90582 0,-1.27331 -0.32659,-1.90583 -0.32246,-0.63665 -0.97152,-0.63665 z m 0,-0.66146 q 1.03766,0 1.58337,0.82269 0.54984,0.81855 0.54984,2.38125 0,1.55856 -0.54984,2.38125 -0.54571,0.81855 -1.58337,0.81855 -1.03766,0 -1.5875,-0.81855 -0.5457,-0.82269 -0.5457,-2.38125 0,-1.5627 0.5457,-2.38125 0.54984,-0.82269 1.5875,-0.82269 z" />
      <path
         id="path997"
         style="font-size:8.46667px;text-align:center;text-anchor:middle;stroke-width:0.264583"
         d="m 372.03305,119.8728 q -0.64492,0 -0.97152,0.63665 -0.32246,0.63252 -0.32246,1.90583 0,1.26917 0.32246,1.90582 0.3266,0.63252 0.97152,0.63252 0.64905,0 0.97152,-0.63252 0.32659,-0.63665 0.32659,-1.90582 0,-1.27331 -0.32659,-1.90583 -0.32247,-0.63665 -0.97152,-0.63665 z m 0,-0.66146 q 1.03766,0 1.58336,0.82269 0.54984,0.81855 0.54984,2.38125 0,1.55856 -0.54984,2.38125 -0.5457,0.81855 -1.58336,0.81855 -1.03766,0 -1.5875,-0.81855 -0.54571,-0.82269 -0.54571,-2.38125 0,-1.5627 0.54571,-2.38125 0.54984,-0.82269 1.5875,-0.82269 z" />
      <path
         id="path999"
         style="font-size:8.46667px;text-align:center;text-anchor:middle;stroke-width:0.264583"
         d="m 377.41981,119.8728 q -0.64493,0 -0.97152,0.63665 -0.32246,0.63252 -0.32246,1.90583 0,1.26917 0.32246,1.90582 0.32659,0.63252 0.97152,0.63252 0.64905,0 0.97151,-0.63252 0.3266,-0.63665 0.3266,-1.90582 0,-1.27331 -0.3266,-1.90583 -0.32246,-0.63665 -0.97151,-0.63665 z m 0,-0.66146 q 1.03766,0 1.58336,0.82269 0.54984,0.81855 0.54984,2.38125 0,1.55856 -0.54984,2.38125 -0.5457,0.81855 -1.58336,0.81855 -1.03767,0 -1.58751,-0.81855 -0.5457,-0.82269 -0.5457,-2.38125 0,-1.5627 0.5457,-2.38125 0.54984,-0.82269 1.58751,-0.82269 z" />
    </g>
    <g
       style="font-style:normal;font-weight:normal;font-size:8.46667px;line-height:1.25;font-family:sans-serif;fill:#000000;fill-opacity:1;stroke:none;stroke-width:0.264583"
       id="text331"
       aria-label="Logo-Simple-#000">
      <path
         id="path1002"
         style="font-size:8.46667px;text-align:center;text-anchor:middle;stroke-width:0.264583"
         d="m 387.30856,119.32296 h 0.83509 v 5.46943 h 3.00551 v 0.7028 h -3.8406 z" />
      <path
         id="path1004"
         style="font-size:8.46667px;text-align:center;text-anchor:middle;stroke-width:0.264583"
         d="m 393.63789,121.39828 q -0.61185,0 -0.96738,0.47956 -0.35553,0.47543 -0.35553,1.30638 0,0.83096 0.3514,1.31052 0.35553,0.47542 0.97151,0.47542 0.60772,0 0.96325,-0.47956 0.35554,-0.47955 0.35554,-1.30638 0,-0.82269 -0.35554,-1.30224 -0.35553,-0.4837 -0.96325,-0.4837 z m 0,-0.64492 q 0.99219,0 1.55857,0.64492 0.56637,0.64493 0.56637,1.78594 0,1.13688 -0.56637,1.78594 -0.56638,0.64492 -1.55857,0.64492 -0.99632,0 -1.56269,-0.64492 -0.56224,-0.64906 -0.56224,-1.78594 0,-1.14101 0.56224,-1.78594 0.56637,-0.64492 1.56269,-0.64492 z" />
      <path
         id="path1006"
         style="font-size:8.46667px;text-align:center;text-anchor:middle;stroke-width:0.264583"
         d="m 400.07058,123.12634 q 0,-0.82682 -0.34313,-1.28157 -0.339,-0.45475 -0.95498,-0.45475 -0.61185,0 -0.95499,0.45475 -0.33899,0.45475 -0.33899,1.28157 0,0.82269 0.33899,1.27745 0.34314,0.45475 0.95499,0.45475 0.61598,0 0.95498,-0.45475 0.34313,-0.45476 0.34313,-1.27745 z m 0.76068,1.79421 q 0,1.18236 -0.52504,1.757 -0.52503,0.57878 -1.60817,0.57878 -0.40101,0 -0.75654,-0.062 -0.35554,-0.0579 -0.6904,-0.18191 v -0.74 q 0.33486,0.1819 0.66146,0.26871 0.32659,0.0868 0.66559,0.0868 0.74828,0 1.12035,-0.39274 0.37207,-0.38861 0.37207,-1.17822 v -0.37621 q -0.23565,0.40928 -0.60358,0.61185 -0.36794,0.20257 -0.88057,0.20257 -0.85163,0 -1.37253,-0.64905 -0.52089,-0.64906 -0.52089,-1.7198 0,-1.07487 0.52089,-1.72392 0.5209,-0.64906 1.37253,-0.64906 0.51263,0 0.88057,0.20257 0.36793,0.20258 0.60358,0.61185 v -0.7028 h 0.76068 z" />
      <path
         id="path1008"
         style="font-size:8.46667px;text-align:center;text-anchor:middle;stroke-width:0.264583"
         d="m 404.19229,121.39828 q -0.61185,0 -0.96738,0.47956 -0.35553,0.47543 -0.35553,1.30638 0,0.83096 0.3514,1.31052 0.35553,0.47542 0.97151,0.47542 0.60772,0 0.96325,-0.47956 0.35554,-0.47955 0.35554,-1.30638 0,-0.82269 -0.35554,-1.30224 -0.35553,-0.4837 -0.96325,-0.4837 z m 0,-0.64492 q 0.99219,0 1.55856,0.64492 0.56638,0.64493 0.56638,1.78594 0,1.13688 -0.56638,1.78594 -0.56637,0.64492 -1.55856,0.64492 -0.99632,0 -1.56269,-0.64492 -0.56224,-0.64906 -0.56224,-1.78594 0,-1.14101 0.56224,-1.78594 0.56637,-0.64492 1.56269,-0.64492 z" />
      <path
         id="path1010"
         style="font-size:8.46667px;text-align:center;text-anchor:middle;stroke-width:0.264583"
         d="m 407.35076,122.83696 h 2.22828 v 0.67799 h -2.22828 z" />
      <path
         id="path1012"
         style="font-size:8.46667px;text-align:center;text-anchor:middle;stroke-width:0.264583"
         d="m 414.52345,119.52553 v 0.81442 q -0.47542,-0.22738 -0.8971,-0.339 -0.42168,-0.11162 -0.81443,-0.11162 -0.68212,0 -1.0542,0.26459 -0.36793,0.26458 -0.36793,0.7524 0,0.40928 0.24391,0.62012 0.24805,0.20671 0.93431,0.33487 l 0.50436,0.10335 q 0.93431,0.17777 1.37666,0.62838 0.44649,0.44649 0.44649,1.1989 0,0.8971 -0.60358,1.36012 -0.59945,0.46302 -1.76114,0.46302 -0.43821,0 -0.93431,-0.0992 -0.49196,-0.0992 -1.02112,-0.29352 v -0.85989 q 0.50849,0.28525 0.99632,0.42994 0.48783,0.1447 0.95911,0.1447 0.71521,0 1.10381,-0.28112 0.38861,-0.28112 0.38861,-0.80202 0,-0.45475 -0.28112,-0.71107 -0.27699,-0.25631 -0.91364,-0.38447 l -0.5085,-0.0992 q -0.93431,-0.18604 -1.35185,-0.58291 -0.41755,-0.39688 -0.41755,-1.10381 0,-0.81855 0.57465,-1.28984 0.57877,-0.47129 1.59163,-0.47129 0.43408,0 0.8847,0.0785 0.45062,0.0785 0.92191,0.23564 z" />
      <path
         id="path1014"
         style="font-size:8.46667px;text-align:center;text-anchor:middle;stroke-width:0.264583"
         d="m 416.16469,120.86498 h 0.76068 v 4.63021 h -0.76068 z m 0,-1.80247 h 0.76068 v 0.96325 h -0.76068 z" />
      <path
         id="path1016"
         style="font-size:8.46667px;text-align:center;text-anchor:middle;stroke-width:0.264583"
         d="m 422.12195,121.75382 q 0.28526,-0.51263 0.68213,-0.75654 0.39688,-0.24392 0.93431,-0.24392 0.72347,0 1.11622,0.5085 0.39274,0.50436 0.39274,1.43867 v 2.79466 h -0.76481 v -2.76985 q 0,-0.6656 -0.23565,-0.98806 -0.23564,-0.32246 -0.71934,-0.32246 -0.59117,0 -0.93431,0.39274 -0.34313,0.39274 -0.34313,1.07074 v 2.61689 h -0.76481 v -2.76985 q 0,-0.66973 -0.23564,-0.98806 -0.23565,-0.32246 -0.72761,-0.32246 -0.58291,0 -0.92604,0.39688 -0.34313,0.39274 -0.34313,1.0666 v 2.61689 h -0.76481 v -4.63021 h 0.76481 v 0.71934 q 0.26045,-0.42581 0.62425,-0.62839 0.3638,-0.20257 0.86403,-0.20257 0.50436,0 0.85576,0.25632 0.35554,0.25631 0.52503,0.74414 z" />
      <path
         id="path1018"
         style="font-size:8.46667px;text-align:center;text-anchor:middle;stroke-width:0.264583"
         d="m 427.50044,124.80066 v 2.45567 h -0.76481 v -6.39135 h 0.76481 v 0.7028 q 0.23978,-0.41341 0.60358,-0.61185 0.36794,-0.20257 0.87643,-0.20257 0.84336,0 1.3684,0.66973 0.52916,0.66973 0.52916,1.76113 0,1.09141 -0.52916,1.76114 -0.52504,0.66972 -1.3684,0.66972 -0.50849,0 -0.87643,-0.19843 -0.3638,-0.20258 -0.60358,-0.61599 z m 2.58796,-1.61644 q 0,-0.83922 -0.34727,-1.31465 -0.34313,-0.47955 -0.94671,-0.47955 -0.60358,0 -0.95085,0.47955 -0.34313,0.47543 -0.34313,1.31465 0,0.83923 0.34313,1.31879 0.34727,0.47542 0.95085,0.47542 0.60358,0 0.94671,-0.47542 0.34727,-0.47956 0.34727,-1.31879 z" />
      <path
         id="path1020"
         style="font-size:8.46667px;text-align:center;text-anchor:middle;stroke-width:0.264583"
         d="m 432.13892,119.06251 h 0.76067 v 6.43268 h -0.76067 z" />
      <path
         id="path1022"
         style="font-size:8.46667px;text-align:center;text-anchor:middle;stroke-width:0.264583"
         d="m 438.45171,122.98992 v 0.37207 h -3.49746 q 0.0496,0.78548 0.47129,1.19889 0.42581,0.40928 1.18236,0.40928 0.43821,0 0.84749,-0.10749 0.41341,-0.10748 0.81856,-0.32246 v 0.71934 q -0.40928,0.17363 -0.83923,0.26458 -0.42995,0.091 -0.8723,0.091 -1.10794,0 -1.757,-0.64492 -0.64492,-0.64492 -0.64492,-1.7446 0,-1.13688 0.61185,-1.80247 0.61598,-0.66973 1.65778,-0.66973 0.93431,0 1.47588,0.60358 0.5457,0.59945 0.5457,1.63298 z m -0.76067,-0.22324 q -0.008,-0.62425 -0.3514,-0.99633 -0.339,-0.37207 -0.90124,-0.37207 -0.63666,0 -1.02113,0.35967 -0.38034,0.35967 -0.43821,1.01286 z" />
      <path
         id="path1024"
         style="font-size:8.46667px;text-align:center;text-anchor:middle;stroke-width:0.264583"
         d="m 439.31574,122.83696 h 2.22829 v 0.67799 h -2.22829 z" />
      <path
         id="path1026"
         style="font-size:8.46667px;text-align:center;text-anchor:middle;stroke-width:0.264583"
         d="m 446.28586,121.77035 h -1.20302 l -0.34727,1.3808 h 1.2113 z m -0.62011,-2.35231 -0.42995,1.71566 h 1.20716 l 0.43408,-1.71566 h 0.66146 l -0.42581,1.71566 h 1.28984 v 0.63665 h -1.45107 l -0.339,1.3808 h 1.31465 v 0.63252 h -1.47588 l -0.42995,1.71152 h -0.66146 l 0.42582,-1.71152 h -1.2113 l -0.42581,1.71152 h -0.6656 l 0.42995,-1.71152 h -1.30225 v -0.63252 h 1.45521 l 0.34727,-1.3808 h -1.33119 v -0.63665 h 1.49242 l 0.42168,-1.71566 z" />
      <path
         id="path1028"
         style="font-size:8.46667px;text-align:center;text-anchor:middle;stroke-width:0.264583"
         d="m 451.7429,119.8728 q -0.64493,0 -0.97152,0.63665 -0.32246,0.63252 -0.32246,1.90583 0,1.26917 0.32246,1.90582 0.32659,0.63252 0.97152,0.63252 0.64905,0 0.97151,-0.63252 0.3266,-0.63665 0.3266,-1.90582 0,-1.27331 -0.3266,-1.90583 -0.32246,-0.63665 -0.97151,-0.63665 z m 0,-0.66146 q 1.03766,0 1.58336,0.82269 0.54984,0.81855 0.54984,2.38125 0,1.55856 -0.54984,2.38125 -0.5457,0.81855 -1.58336,0.81855 -1.03767,0 -1.5875,-0.81855 -0.54571,-0.82269 -0.54571,-2.38125 0,-1.5627 0.54571,-2.38125 0.54983,-0.82269 1.5875,-0.82269 z" />
      <path
         id="path1030"
         style="font-size:8.46667px;text-align:center;text-anchor:middle;stroke-width:0.264583"
         d="m 457.12965,119.8728 q -0.64492,0 -0.97151,0.63665 -0.32246,0.63252 -0.32246,1.90583 0,1.26917 0.32246,1.90582 0.32659,0.63252 0.97151,0.63252 0.64906,0 0.97152,-0.63252 0.3266,-0.63665 0.3266,-1.90582 0,-1.27331 -0.3266,-1.90583 -0.32246,-0.63665 -0.97152,-0.63665 z m 0,-0.66146 q 1.03767,0 1.58337,0.82269 0.54984,0.81855 0.54984,2.38125 0,1.55856 -0.54984,2.38125 -0.5457,0.81855 -1.58337,0.81855 -1.03766,0 -1.5875,-0.81855 -0.5457,-0.82269 -0.5457,-2.38125 0,-1.5627 0.5457,-2.38125 0.54984,-0.82269 1.5875,-0.82269 z" />
      <path
         id="path1032"
         style="font-size:8.46667px;text-align:center;text-anchor:middle;stroke-width:0.264583"
         d="m 462.5164,119.8728 q -0.64492,0 -0.97151,0.63665 -0.32247,0.63252 -0.32247,1.90583 0,1.26917 0.32247,1.90582 0.32659,0.63252 0.97151,0.63252 0.64906,0 0.97152,-0.63252 0.3266,-0.63665 0.3266,-1.90582 0,-1.27331 -0.3266,-1.90583 -0.32246,-0.63665 -0.97152,-0.63665 z m 0,-0.66146 q 1.03767,0 1.58337,0.82269 0.54984,0.81855 0.54984,2.38125 0,1.55856 -0.54984,2.38125 -0.5457,0.81855 -1.58337,0.81855 -1.03766,0 -1.5875,-0.81855 -0.5457,-0.82269 -0.5457,-2.38125 0,-1.5627 0.5457,-2.38125 0.54984,-0.82269 1.5875,-0.82269 z" />
    </g>
  </g>
</svg>
