<?xml version="1.0" encoding="UTF-8" standalone="no"?>
<svg
   xmlns:dc="http://purl.org/dc/elements/1.1/"
   xmlns:cc="http://creativecommons.org/ns#"
   xmlns:rdf="http://www.w3.org/1999/02/22-rdf-syntax-ns#"
   xmlns:svg="http://www.w3.org/2000/svg"
   xmlns="http://www.w3.org/2000/svg"
   xmlns:sodipodi="http://sodipodi.sourceforge.net/DTD/sodipodi-0.dtd"
   xmlns:inkscape="http://www.inkscape.org/namespaces/inkscape"
   inkscape:export-ydpi="96"
   inkscape:export-xdpi="96"
   inkscape:export-filename="/home/sebastien/Sources/LM-logo/Color_lm+name_#75cc1c.png"
   sodipodi:docname="Logo-Ring-#000.svg"
   inkscape:version="1.0 (1.0+r73+1)"
   version="1.1"
   id="svg4135"
   viewBox="0 0 280 280"
   height="280"
   width="280">
  <defs
     id="defs4137" />
  <sodipodi:namedview
     inkscape:document-rotation="0"
     fit-margin-bottom="0"
     fit-margin-right="0"
     fit-margin-left="0"
     fit-margin-top="0"
     inkscape:guide-bbox="true"
     showguides="false"
     guidetolerance="10"
     gridtolerance="10"
     objecttolerance="10"
     inkscape:showpageshadow="false"
     inkscape:window-maximized="1"
     inkscape:window-y="0"
     inkscape:window-x="0"
     inkscape:window-height="839"
     inkscape:window-width="1440"
     units="px"
     showgrid="false"
     inkscape:current-layer="layer1"
     inkscape:document-units="px"
     inkscape:cy="140.00008"
     inkscape:cx="132.1418"
     inkscape:zoom="2.4178558"
     inkscape:pageshadow="2"
     inkscape:pageopacity="0"
     borderopacity="1.0"
     bordercolor="#666666"
     pagecolor="#ffffff"
     id="base">
    <inkscape:grid
       originy="-92.999932"
       originx="-92.999993"
       dotted="false"
       empopacity="0.25098039"
       empcolor="#ff3f3f"
       opacity="0.1254902"
       color="#3f3fff"
       spacingy="20"
       spacingx="20"
       id="grid3333"
       type="xygrid" />
    <sodipodi:guide
       inkscape:locked="false"
       id="guide4248"
       orientation="0,1"
       position="-92.999992,137" />
  </sodipodi:namedview>
  <metadata
     id="metadata4140">
    <rdf:RDF>
      <cc:Work
         rdf:about="">
        <dc:format>image/svg+xml</dc:format>
        <dc:type
           rdf:resource="http://purl.org/dc/dcmitype/StillImage" />
        <dc:title></dc:title>
        <dc:creator>
          <cc:Agent>
            <dc:title />
          </cc:Agent>
        </dc:creator>
        <cc:license
           rdf:resource="" />
      </cc:Work>
    </rdf:RDF>
  </metadata>
  <g
     transform="translate(-92.999995,-833.36209)"
     id="layer1"
     inkscape:groupmode="layer"
     inkscape:label="Layer 1">
    <g
       transform="matrix(2.2222222,0,0,2.2222222,-113.66667,-1018.5537)"
       id="g884">
      <path
         transform="translate(93,833.36218)"
         d="M 62.820312,0 A 63,63 0 0 0 0,63 63,63 0 0 0 63,126 63,63 0 0 0 126,63 63,63 0 0 0 63,0 63,63 0 0 0 62.820312,0 Z m 0.01367,9 A 54,54 0 0 1 63,9 54,54 0 0 1 117,63 54,54 0 0 1 63,117 54,54 0 0 1 9,63 54,54 0 0 1 62.833984,9 Z"
         style="fill:#000000;fill-opacity:1;stroke:none;stroke-width:10.1942;stroke-linecap:butt;stroke-linejoin:bevel;stroke-miterlimit:4;stroke-dasharray:none;stroke-opacity:1"
         id="ellipse4245" />
      <path
         sodipodi:nodetypes="csssccsccsssc"
         inkscape:connector-curvature="0"
         d="m 147,908.3622 v -22.5 c 0,-4.97056 4.02944,-9 9,-9 4.97056,0 9,4.02944 9,9 v 22.5 m -36,-40.5 v 40.5 c 0,7.45584 6.04416,13.5 13.5,13.5 h 27 c 7.45584,0 13.5,-6.04416 13.5,-13.5 v -22.5 c 0,-4.97056 -4.02944,-9 -9,-9 -4.97056,0 -9,4.02944 -9,9"
         style="fill:none;fill-opacity:0.266667;stroke:#000000;stroke-width:9;stroke-linecap:butt;stroke-linejoin:miter;stroke-miterlimit:4;stroke-dasharray:none;stroke-opacity:1"
         id="path4249" />
    </g>
  </g>
</svg>
