<?xml version="1.0" encoding="UTF-8" standalone="no"?>
<svg
   xmlns:dc="http://purl.org/dc/elements/1.1/"
   xmlns:cc="http://creativecommons.org/ns#"
   xmlns:rdf="http://www.w3.org/1999/02/22-rdf-syntax-ns#"
   xmlns:svg="http://www.w3.org/2000/svg"
   xmlns="http://www.w3.org/2000/svg"
   xmlns:sodipodi="http://sodipodi.sourceforge.net/DTD/sodipodi-0.dtd"
   xmlns:inkscape="http://www.inkscape.org/namespaces/inkscape"
   width="640"
   height="640"
   viewBox="0 0 640 640"
   id="svg4135"
   version="1.1"
   inkscape:version="1.0.1 (1.0.1+r74)"
   sodipodi:docname="LogoIn+name.svg"
   inkscape:export-filename="/home/sebastien/linuxmint-logo/LogoIn+name.png"
   inkscape:export-xdpi="192"
   inkscape:export-ydpi="192">
  <defs
     id="defs4137" />
  <sodipodi:namedview
     id="base"
     pagecolor="#cce7ff"
     bordercolor="#666666"
     borderopacity="1.0"
     inkscape:pageopacity="1"
     inkscape:pageshadow="2"
     inkscape:zoom="1.3734375"
     inkscape:cx="320"
     inkscape:cy="320"
     inkscape:document-units="px"
     inkscape:current-layer="layer4"
     showgrid="false"
     units="px"
     inkscape:window-width="1440"
     inkscape:window-height="835"
     inkscape:window-x="0"
     inkscape:window-y="0"
     inkscape:window-maximized="1"
     inkscape:showpageshadow="false"
     objecttolerance="10"
     gridtolerance="10"
     guidetolerance="10"
     inkscape:snap-bbox="true"
     inkscape:bbox-nodes="true"
     inkscape:object-nodes="false"
     inkscape:snap-nodes="false"
     inkscape:snap-others="false"
     inkscape:document-rotation="0"
     fit-margin-top="32"
     fit-margin-left="32"
     fit-margin-right="32"
     fit-margin-bottom="32">
    <inkscape:grid
       type="xygrid"
       id="grid3333"
       spacingx="20"
       spacingy="20"
       color="#3f3fff"
       opacity="0.25098039"
       empcolor="#ff3f3f"
       empopacity="0.25098039"
       dotted="false"
       originx="-648.87002"
       originy="-378.00002" />
  </sodipodi:namedview>
  <metadata
     id="metadata4140">
    <rdf:RDF>
      <cc:Work
         rdf:about="">
        <dc:format>image/svg+xml</dc:format>
        <dc:type
           rdf:resource="http://purl.org/dc/dcmitype/StillImage" />
        <dc:title />
        <dc:creator>
          <cc:Agent>
            <dc:title />
          </cc:Agent>
        </dc:creator>
        <cc:license
           rdf:resource="" />
      </cc:Work>
    </rdf:RDF>
  </metadata>
  <g
     inkscape:groupmode="layer"
     id="layer2"
     inkscape:label="background"
     style="display:inline"
     transform="translate(-648.87002,-378.00002)"
     sodipodi:insensitive="true">
    <rect
       style="fill:#0088ff;stroke:#0088ff;stroke-width:0"
       id="rect849"
       width="640"
       height="640"
       x="648.87006"
       y="378.00003" />
  </g>
  <g
     inkscape:groupmode="layer"
     id="layer4"
     inkscape:label="Layer 3"
     style="display:inline"
     transform="translate(-648.87002,-378.00002)">
    <g
       id="g923"
       transform="translate(8.869935,26.000036)">
      <g
         inkscape:export-filename="Logo-Color_lm+name-d.png"
         transform="matrix(1.5,0,0,1.5,338.87002,880.29305)"
         inkscape:export-ydpi="135"
         inkscape:export-xdpi="135"
         id="g4338"
         style="stroke-width:0;stroke-miterlimit:4;stroke-dasharray:none">
        <path
           d="m 270.21892,17.961129 v 8.515667 H 236 v -54.140893 h 9.8438 v 45.625226 z"
           style="font-style:normal;font-variant:normal;font-weight:500;font-stretch:normal;font-size:275px;font-family:Ubuntu;-inkscape-font-specification:'Ubuntu Medium';text-align:start;text-anchor:start;fill:#ffffff;fill-opacity:1;stroke:none;stroke-width:0;stroke-linecap:round;stroke-linejoin:round;stroke-miterlimit:4;stroke-dasharray:none;stroke-opacity:1"
           id="path4253"
           inkscape:connector-curvature="0" />
        <path
           d="m 286.71925,26.476796 h -9.45317 v -40.859578 h 9.45317 z m 1.01563,-52.812762 q 0,2.656263 -1.71876,4.218771 -1.71876,1.562508 -4.06252,1.562508 -2.42189,0 -4.14065,-1.562508 -1.71875,-1.562508 -1.71875,-4.218771 0,-2.734388 1.71875,-4.296896 1.71876,-1.562508 4.14065,-1.562508 2.34376,0 4.06252,1.562508 1.71876,1.562508 1.71876,4.296896 z"
           style="font-style:normal;font-variant:normal;font-weight:500;font-stretch:normal;font-size:275px;font-family:Ubuntu;-inkscape-font-specification:'Ubuntu Medium';text-align:start;text-anchor:start;fill:#ffffff;fill-opacity:1;stroke:none;stroke-width:0;stroke-linecap:round;stroke-linejoin:round;stroke-miterlimit:4;stroke-dasharray:none;stroke-opacity:1"
           id="path4255"
           inkscape:connector-curvature="0" />
        <path
           d="m 298.70295,-13.05465 q 2.73439,-0.781254 7.10941,-1.484382 4.37502,-0.703129 9.68755,-0.703129 5.00002,0 8.35942,1.406257 3.35939,1.328132 5.31252,3.828144 2.03126,2.4218872 2.81252,5.9375297 0.85937,3.43751706 0.85937,7.5781626 V 26.476796 h -9.45317 V 4.9923147 q 0,-3.2812663 -0.46875,-5.54690255 -0.39063,-2.34376165 -1.40626,-3.75001865 -0.9375,-1.4843823 -2.65626,-2.1093854 -1.64063,-0.7031285 -4.06252,-0.7031285 -1.79688,0 -3.75002,0.2343761 -1.95313,0.2343762 -2.89064,0.390627 V 26.476796 h -9.45317 z"
           style="font-style:normal;font-variant:normal;font-weight:500;font-stretch:normal;font-size:275px;font-family:Ubuntu;-inkscape-font-specification:'Ubuntu Medium';text-align:start;text-anchor:start;fill:#ffffff;fill-opacity:1;stroke:none;stroke-width:0;stroke-linecap:round;stroke-linejoin:round;stroke-miterlimit:4;stroke-dasharray:none;stroke-opacity:1"
           id="path4257"
           inkscape:connector-curvature="0" />
        <path
           d="m 377.71125,25.22679 q -2.73439,0.703129 -7.10941,1.406257 -4.37503,0.781254 -9.60943,0.781254 -4.9219,0 -8.28129,-1.406257 -3.28126,-1.406257 -5.31252,-3.906269 -1.95314,-2.500013 -2.81252,-5.93753 -0.85938,-3.515642 -0.85938,-7.6562878 V -14.382782 h 9.45317 V 7.0235748 q 0,6.5625322 1.87501,9.3750462 1.95314,2.812514 6.71879,2.812514 1.71876,0 3.59376,-0.15625 1.95314,-0.156251 2.89064,-0.390627 v -33.04704 h 9.45318 z"
           style="font-style:normal;font-variant:normal;font-weight:500;font-stretch:normal;font-size:275px;font-family:Ubuntu;-inkscape-font-specification:'Ubuntu Medium';text-align:start;text-anchor:start;fill:#ffffff;fill-opacity:1;stroke:none;stroke-width:0;stroke-linecap:round;stroke-linejoin:round;stroke-miterlimit:4;stroke-dasharray:none;stroke-opacity:1"
           id="path4259"
           inkscape:connector-curvature="0" />
        <path
           d="m 404.22294,-1.0233402 8.67192,-13.3594418 h 9.92192 L 409.37922,4.9141893 q 4.21877,5.4687767 8.04691,11.0938047 3.90627,5.546903 6.40628,10.468802 h -10.23442 q -0.70313,-1.484382 -1.87501,-3.359391 -1.09376,-1.953135 -2.42189,-3.984395 -1.25001,-2.109386 -2.65626,-4.140646 -1.40626,-2.03126 -2.73439,-3.828144 -2.73439,3.515643 -5.39065,7.812539 -2.57814,4.218771 -4.2969,7.500037 h -9.68755 q 1.17188,-2.343761 2.81252,-5.000024 1.64063,-2.656264 3.51564,-5.390652 1.87501,-2.812514 3.82814,-5.546903 2.03126,-2.8125137 3.9844,-5.3125261 L 385.16035,-14.382782 h 10.39067 z"
           style="font-style:normal;font-variant:normal;font-weight:500;font-stretch:normal;font-size:275px;font-family:Ubuntu;-inkscape-font-specification:'Ubuntu Medium';text-align:start;text-anchor:start;fill:#ffffff;fill-opacity:1;stroke:none;stroke-width:0;stroke-linecap:round;stroke-linejoin:round;stroke-miterlimit:4;stroke-dasharray:none;stroke-opacity:1"
           id="path4261"
           inkscape:connector-curvature="0" />
      </g>
      <g
         inkscape:export-filename="Logo-Color_lm+name-d.png"
         transform="matrix(1.5,0,0,1.5,338.87002,880.29305)"
         inkscape:export-ydpi="135"
         inkscape:export-xdpi="135"
         style="fill:#ffffff;fill-opacity:1;stroke:none;stroke-width:0;stroke-miterlimit:4;stroke-dasharray:none"
         id="g4332">
        <path
           d="m 443.15257,-27.664097 q 1.71875,2.968764 3.82814,7.265661 2.10938,4.296896 4.2969,9.062545 2.18751,4.6875229 4.29689,9.6094223 2.18751,4.8437741 3.9844,8.9844197 1.79688,-4.1406456 3.90627,-8.9844197 2.10938,-4.9218994 4.29689,-9.6094223 2.18751,-4.765649 4.2969,-9.062545 2.10938,-4.296897 3.82814,-7.265661 h 8.9063 q 0.70313,5.937529 1.32813,12.656312 0.625,6.6406584 1.09375,13.6719433 0.54688,6.9531595 0.93751,14.0625697 0.46875,7.031285 0.78125,13.750068 h -9.68755 q -0.3125,-9.453172 -0.78125,-19.4532212 -0.39063,-10.0000497 -1.25001,-19.3750958 -0.85937,1.796883 -2.03126,4.2968959 -1.17188,2.5000124 -2.50001,5.4687772 -1.32813,2.89063932 -2.73439,6.0156548 -1.32813,3.1250156 -2.65626,6.0937803 -1.25001,2.8906398 -2.34376,5.4687768 -1.09376,2.500013 -1.87501,4.296897 h -7.34379 q -0.78125,-1.796884 -1.87501,-4.375022 -1.09375,-2.578138 -2.42188,-5.4687772 -1.25001,-2.9687647 -2.65627,-6.0937802 -1.32813,-3.12501557 -2.65626,-6.0156549 -1.32813,-2.8906394 -2.50001,-5.3906518 -1.17188,-2.5781379 -2.03126,-4.2968959 -0.85938,9.3750461 -1.32813,19.3750958 -0.39063,10.0000492 -0.70313,19.4532212 h -9.68755 q 0.3125,-6.718783 0.70313,-13.906319 0.46875,-7.1875354 0.9375,-14.2188203 0.54688,-7.1094103 1.17188,-13.7500687 0.62501,-6.640658 1.32813,-12.265685 z"
           style="font-style:normal;font-variant:normal;font-weight:500;font-stretch:normal;font-size:275px;font-family:Ubuntu;-inkscape-font-specification:'Ubuntu Medium';text-align:start;text-anchor:start;fill:#ffffff;fill-opacity:1;stroke:none;stroke-width:0;stroke-linecap:round;stroke-linejoin:round;stroke-miterlimit:4;stroke-dasharray:none;stroke-opacity:1"
           id="path4263"
           inkscape:connector-curvature="0" />
        <path
           d="m 509.54085,26.476796 h -9.45317 v -40.859578 h 9.45317 z m 1.01563,-52.812762 q 0,2.656263 -1.71876,4.218771 -1.71876,1.562508 -4.06252,1.562508 -2.42189,0 -4.14064,-1.562508 -1.71876,-1.562508 -1.71876,-4.218771 0,-2.734388 1.71876,-4.296896 1.71875,-1.562508 4.14064,-1.562508 2.34376,0 4.06252,1.562508 1.71876,1.562508 1.71876,4.296896 z"
           style="font-style:normal;font-variant:normal;font-weight:500;font-stretch:normal;font-size:275px;font-family:Ubuntu;-inkscape-font-specification:'Ubuntu Medium';text-align:start;text-anchor:start;fill:#ffffff;fill-opacity:1;stroke:none;stroke-width:0;stroke-linecap:round;stroke-linejoin:round;stroke-miterlimit:4;stroke-dasharray:none;stroke-opacity:1"
           id="path4265"
           inkscape:connector-curvature="0" />
        <path
           d="m 521.52455,-13.05465 q 2.73438,-0.781254 7.10941,-1.484382 4.37502,-0.703129 9.68754,-0.703129 5.00003,0 8.35942,1.406257 3.35939,1.328132 5.31253,3.828144 2.03126,2.4218872 2.81251,5.9375297 0.85938,3.43751706 0.85938,7.5781626 V 26.476796 h -9.45317 V 4.9923147 q 0,-3.2812663 -0.46875,-5.54690255 -0.39063,-2.34376165 -1.40626,-3.75001865 -0.93751,-1.4843823 -2.65626,-2.1093854 -1.64064,-0.7031285 -4.06252,-0.7031285 -1.79689,0 -3.75002,0.2343761 -1.95314,0.2343762 -2.89064,0.390627 V 26.476796 h -9.45317 z"
           style="font-style:normal;font-variant:normal;font-weight:500;font-stretch:normal;font-size:275px;font-family:Ubuntu;-inkscape-font-specification:'Ubuntu Medium';text-align:start;text-anchor:start;fill:#ffffff;fill-opacity:1;stroke:none;stroke-width:0;stroke-linecap:round;stroke-linejoin:round;stroke-miterlimit:4;stroke-dasharray:none;stroke-opacity:1"
           id="path4267"
           inkscape:connector-curvature="0" />
        <path
           d="m 566.54829,-25.164085 9.45317,-1.562508 v 12.343811 h 14.53133 v 7.8906647 H 576.00146 V 10.14859 q 0,4.9219 1.56251,7.031285 1.56251,2.109386 5.31253,2.109386 2.57814,0 4.53127,-0.546878 2.03126,-0.546878 3.20314,-1.01563 l 1.56251,7.500037 q -1.64063,0.703129 -4.2969,1.406257 -2.65626,0.781254 -6.25003,0.781254 -4.37502,0 -7.34378,-1.171881 -2.89064,-1.171881 -4.6094,-3.359391 -1.71876,-2.265637 -2.42189,-5.390652 -0.70313,-3.203141 -0.70313,-7.265661 z"
           style="font-style:normal;font-variant:normal;font-weight:500;font-stretch:normal;font-size:275px;font-family:Ubuntu;-inkscape-font-specification:'Ubuntu Medium';text-align:start;text-anchor:start;fill:#ffffff;fill-opacity:1;stroke:none;stroke-width:0;stroke-linecap:round;stroke-linejoin:round;stroke-miterlimit:4;stroke-dasharray:none;stroke-opacity:1"
           id="path4269"
           inkscape:connector-curvature="0" />
      </g>
    </g>
    <g
       id="g1028"
       style="stroke-width:0;stroke-miterlimit:4;stroke-dasharray:none"
       transform="matrix(2,0,0,2,-1083.13,-1066.7244)">
      <path
         id="ellipse4245"
         style="fill:#ffffff;fill-opacity:1;stroke:none;stroke-width:0;stroke-linecap:butt;stroke-linejoin:bevel;stroke-miterlimit:4;stroke-dasharray:none;stroke-opacity:1"
         d="m 1025.7604,770.36229 a 83.999998,83.999998 0 0 0 -83.7604,84 83.999998,83.999998 0 0 0 84,84 83.999998,83.999998 0 0 0 84,-84 83.999998,83.999998 0 0 0 -84,-84 83.999998,83.999998 0 0 0 -0.2396,0 z m 0.018,12 a 71.999998,71.999998 0 0 1 0.2214,0 71.999998,71.999998 0 0 1 72,72 71.999998,71.999998 0 0 1 -72,72 71.999998,71.999998 0 0 1 -72,-72 71.999998,71.999998 0 0 1 71.7786,-72 z" />
      <path
         style="color:#000000;font-style:normal;font-variant:normal;font-weight:normal;font-stretch:normal;font-size:medium;line-height:normal;font-family:sans-serif;font-variant-ligatures:normal;font-variant-position:normal;font-variant-caps:normal;font-variant-numeric:normal;font-variant-alternates:normal;font-variant-east-asian:normal;font-feature-settings:normal;font-variation-settings:normal;text-indent:0;text-align:start;text-decoration:none;text-decoration-line:none;text-decoration-style:solid;text-decoration-color:#000000;letter-spacing:normal;word-spacing:normal;text-transform:none;writing-mode:lr-tb;direction:ltr;text-orientation:mixed;dominant-baseline:auto;baseline-shift:baseline;text-anchor:start;white-space:normal;shape-padding:0;shape-margin:0;inline-size:0;clip-rule:nonzero;display:inline;overflow:visible;visibility:visible;opacity:1;isolation:auto;mix-blend-mode:normal;color-interpolation:sRGB;color-interpolation-filters:linearRGB;solid-color:#000000;solid-opacity:1;vector-effect:none;fill:#ffffff;fill-opacity:1;fill-rule:nonzero;stroke:none;stroke-width:0;stroke-linecap:butt;stroke-linejoin:miter;stroke-miterlimit:4;stroke-dasharray:none;stroke-dashoffset:0;stroke-opacity:1;color-rendering:auto;image-rendering:auto;shape-rendering:auto;text-rendering:auto;enable-background:accumulate;stop-color:#000000;stop-opacity:1"
         d="m 984,816.36328 v 54 c 0,13.18377 10.81624,24 24,24 h 36 c 13.1838,0 24,-10.81623 24,-24 v -30 c 0,-9.87006 -8.1299,-18 -18,-18 -4.6107,0 -8.8001,1.81999 -12,4.7168 -3.1999,-2.89681 -7.3893,-4.7168 -12,-4.7168 -9.8701,0 -18,8.12994 -18,18 v 30 h 12 v -30 c 0,-3.38475 2.6153,-6 6,-6 3.3847,0 6,2.61525 6,6 v 30 h 12 v -30 c 0,-3.38475 2.6153,-6 6,-6 3.3847,0 6,2.61525 6,6 v 30 c 0,6.69847 -5.3016,12 -12,12 h -36 c -6.6985,0 -12,-5.30152 -12,-12 v -54 z"
         id="path1022" />
    </g>
  </g>
</svg>
