<?xml version="1.0" encoding="UTF-8" standalone="no"?>
<!-- Created with Inkscape (http://www.inkscape.org/) -->

<svg
   width="320"
   height="320"
   viewBox="0 0 320 320"
   id="svg2"
   version="1.1"
   xmlns="http://www.w3.org/2000/svg"
   xmlns:svg="http://www.w3.org/2000/svg"
   xmlns:rdf="http://www.w3.org/1999/02/22-rdf-syntax-ns#"
   xmlns:cc="http://creativecommons.org/ns#"
   xmlns:dc="http://purl.org/dc/elements/1.1/">
  <title
     id="title3343">LinuxMint logo</title>
  <defs
     id="defs4" />
  <metadata
     id="metadata7">
    <rdf:RDF>
      <cc:Work
         rdf:about="">
        <dc:format>image/svg+xml</dc:format>
        <dc:type
           rdf:resource="http://purl.org/dc/dcmitype/StillImage" />
        <dc:title>LinuxMint logo</dc:title>
        <dc:date>2018-10-26</dc:date>
        <dc:creator>
          <cc:Agent>
            <dc:title>Sébastien Bouchard</dc:title>
          </cc:Agent>
        </dc:creator>
        <dc:description>2018 Linux Mint logo, new drawing inspired by the 2007 logo.</dc:description>
        <dc:source>copyright 2007 Carlos Porto, copyright 2007 Clément Lefebvre</dc:source>
        <cc:license
           rdf:resource="https://www.gnu.org/licenses/gpl-3.0.html" />
        <dc:rights>
          <cc:Agent>
            <dc:title>SPDX-License-Identifier: GPL-3.0-or-later</dc:title>
          </cc:Agent>
        </dc:rights>
        <dc:coverage>worldwide</dc:coverage>
        <dc:contributor>
          <cc:Agent>
            <dc:title />
          </cc:Agent>
        </dc:contributor>
      </cc:Work>
    </rdf:RDF>
  </metadata>
  <g
     id="g296"
     transform="translate(-16,-16)">
    <path
       id="rect4136"
       d="m 176,16 c 88.64,-10e-6 160,71.36 160,159.99999 V 336 H 176 C 87.36,336 16,264.63998 16,175.99999 V 16.00002 Z"
       style="fill:#0ac386;fill-opacity:1;stroke:none;stroke-width:16;stroke-linecap:round;stroke-linejoin:round;stroke-miterlimit:4;stroke-dasharray:none;stroke-opacity:1" />
    <path
       style="color:#000000;fill:#ffffff;fill-rule:evenodd;stroke:none;stroke-width:0;stroke-miterlimit:4;stroke-dasharray:none"
       d="m 64,64 v 160 c 0,35.15667 28.84332,64 64,64 h 32 V 256 H 128 C 110.13739,256 96,241.86261 96,224 V 64 Z"
       id="path3348" />
    <path
       id="path4183"
       style="color:#000000;fill:#ffffff;fill-rule:evenodd;stroke:none;stroke-width:0;stroke-miterlimit:4;stroke-dasharray:none"
       d="m 176,96 c -26.32013,0 -48,21.67987 -48,48 v 80 h 32 v -80 c 0,-9.02606 6.97394,-16 16,-16 9.02606,0 16,6.97394 16,16 v 80 h 32 v -80 c 0,-9.02606 6.97394,-16 16,-16 9.02606,0 16,6.97394 16,16 v 80 c 0,17.86261 -14.13739,32 -32,32 h -32 v 32 h 32 c 35.15668,0 64,-28.84333 64,-64 v -80 c 0,-26.32013 -21.67987,-48 -48,-48 -12.24391,0 -23.47979,4.69545 -32,12.36328 C 199.47979,100.69545 188.24391,96 176,96 Z" />
  </g>
</svg>
