<?xml version="1.0" encoding="UTF-8" standalone="no"?>
<!-- Created with Inkscape (http://www.inkscape.org/) -->

<svg
   width="320"
   height="320"
   viewBox="0 0 320 320"
   id="svg2"
   version="1.1"
   xml:space="preserve"
   xmlns="http://www.w3.org/2000/svg"
   xmlns:svg="http://www.w3.org/2000/svg"
   xmlns:rdf="http://www.w3.org/1999/02/22-rdf-syntax-ns#"
   xmlns:cc="http://creativecommons.org/ns#"
   xmlns:dc="http://purl.org/dc/elements/1.1/"><title
     id="title3343">LinuxMint logo</title><defs
     id="defs4" /><metadata
     id="metadata7"><rdf:RDF><cc:Work
         rdf:about=""><dc:format>image/svg+xml</dc:format><dc:type
           rdf:resource="http://purl.org/dc/dcmitype/StillImage" /><dc:title>LinuxMint logo</dc:title><dc:date>2018-10-26 -&gt; 2022-10-26</dc:date><dc:creator><cc:Agent><dc:title>Sébastien Bouchard</dc:title></cc:Agent></dc:creator><dc:description>2018 Linux Mint logo, new drawing inspired by the 2007 logo.</dc:description><dc:source>copyright 2007 Carlos Porto, copyright 2007 Clément Lefebvre</dc:source><cc:license
           rdf:resource="https://www.gnu.org/licenses/gpl-3.0.html" /><dc:rights><cc:Agent><dc:title>SPDX-License-Identifier: GPL-3.0-or-later</dc:title></cc:Agent></dc:rights><dc:coverage>worldwide</dc:coverage><dc:contributor><cc:Agent><dc:title /></cc:Agent></dc:contributor></cc:Work></rdf:RDF></metadata><g
     id="layer3"><path
       id="leaf"
       style="opacity:1;fill:#0aba7f;fill-opacity:1;stroke:none;stroke-width:0"
       d="M 0,0 V 160 A 160,160 0 0 0 160,320 H 320 V 160 A 160,160 0 0 0 160,0 Z" /></g><g
     id="layer2"><path
       id="Lm-path"
       style="color:#000000;fill:#ffffff;fill-opacity:1;stroke:none;stroke-width:0;stroke-dasharray:none"
       d="m 48,48 v 160 c 0,35.15663 28.843365,64 64,64 h 32 V 240 H 112 C 94.13741,240 80,225.86259 80,208 V 48 Z m 112,32 c -26.3201,0 -48,21.6799 -48,48 v 80 h 32 v -80 c 0,-9.02605 6.97395,-16 16,-16 9.02605,0 16,6.97395 16,16 v 80 h 32 v -80 c 0,-9.02605 6.97395,-16 16,-16 9.02604,0 16,6.97396 16,16 v 80 c 0,17.86259 -14.13741,32 -32,32 h -32 v 32 h 32 c 35.15663,0 64,-28.84337 64,-64 V 128 C 272,101.6799 250.3201,80 224,80 211.70433,80 200.53309,84.8585 192,92.58398 183.46691,84.8585 172.29567,80 160,80 Z" /></g></svg>
