<?xml version="1.0" encoding="UTF-8" standalone="no"?>
<!-- Created with Inkscape (http://www.inkscape.org/) -->

<svg
   width="256"
   height="256"
   viewBox="0 0 256 256"
   id="svg2"
   version="1.1"
   xmlns="http://www.w3.org/2000/svg"
   xmlns:svg="http://www.w3.org/2000/svg">
  <defs
     id="defs4" />
  <path
     style="color:#000000;fill:#0ac386;fill-opacity:1;stroke:none;stroke-width:0;-inkscape-stroke:none"
     d="m 2,2 v 180 c 0,39.55126 32.44874,72 72,72 h 108 c 39.55126,0 72,-32.44874 72,-72 V 92 C 254,62.38986 229.61014,38 200,38 186.16711,38 173.5998,43.46772 164,52.1592 154.4002,43.46772 141.83289,38 128,38 98.38986,38 74,62.38986 74,92 v 90 h 36 V 92 c 0,-10.1543 7.8457,-18 18,-18 10.1543,0 18,7.8457 18,18 v 90 h 36 V 92 c 0,-10.1543 7.8457,-18 18,-18 10.1543,0 18,7.8457 18,18 v 90 c 0,20.09545 -15.90455,36 -36,36 H 74 C 53.90455,218 38,202.09545 38,182 V 2 Z"
     id="path4193" />
</svg>
