<?xml version="1.0" encoding="UTF-8" standalone="no"?>
<!-- Created with Inkscape (http://www.inkscape.org/) -->

<svg
   width="256"
   height="256"
   viewBox="0 0 256 256"
   id="svg2"
   version="1.1"
   xml:space="preserve"
   xmlns="http://www.w3.org/2000/svg"
   xmlns:svg="http://www.w3.org/2000/svg"><defs
     id="defs4" /><path
     style="color:#000000;fill:#0aba7f;stroke:none;stroke-width:0;stroke-dasharray:none;fill-opacity:1"
     d="m 2,2 v 180 c 0,39.55126 32.44875,72 72,72 h 108 c 39.55126,0 72,-32.44874 72,-72 V 92 C 254,62.38986 229.61015,38 200,38 186.16736,38 173.59975,43.46624 164,52.15742 154.40026,43.46624 141.83264,38 128,38 98.38986,38 74,62.38986 74,92 v 90 h 36 V 92 c 0,-10.15432 7.84568,-18 18,-18 10.15433,0 18,7.84568 18,18 v 90 h 36 V 92 c 0,-10.15432 7.84568,-18 18,-18 10.15431,0 18,7.84568 18,18 v 90 c 0,20.09544 -15.90456,36 -36,36 H 74 C 53.90457,218 38,202.09544 38,182 V 2 Z"
     id="Lm-path" /></svg>
