<?xml version="1.0" encoding="UTF-8" standalone="no"?>
<!-- Created with Inkscape (http://www.inkscape.org/) -->

<svg
   width="1590"
   height="360"
   viewBox="0 0 1590 360"
   version="1.1"
   id="svg5"
   xmlns="http://www.w3.org/2000/svg"
   xmlns:svg="http://www.w3.org/2000/svg">
  <defs
     id="defs2" />
  <g
     id="layer2"
     style="display:none">
    <circle
       style="fill:none;fill-opacity:1;stroke:#000000;stroke-width:0;stroke-linejoin:bevel;stroke-miterlimit:4;stroke-dasharray:none;stroke-opacity:1"
       id="circle1017"
       cx="180"
       cy="180"
       r="150" />
    <circle
       style="fill:none;fill-opacity:1;stroke:#000000;stroke-width:0;stroke-linejoin:bevel;stroke-miterlimit:4;stroke-dasharray:none;stroke-opacity:1"
       id="circle1019"
       cx="180"
       cy="180"
       r="140" />
  </g>
  <circle
     style="fill:#0ca0e8;fill-opacity:1;stroke:none;stroke-width:0;stroke-linejoin:bevel;stroke-miterlimit:4;stroke-dasharray:none"
     id="path1393"
     cx="180"
     cy="180"
     r="180" />
  <path
     id="path87473"
     style="color:#000000;fill:#ffffff;fill-opacity:1;stroke:none;stroke-width:0;stroke-linejoin:bevel;stroke-miterlimit:4;stroke-dasharray:none"
     d="m 80,110 v 180 h 40 V 155.23242 l 46.97656,82.20899 h 26.04688 L 240,155.23242 V 290 h 40 V 110 H 265.84766 231.29492 L 180,199.76758 128.70508,110 H 94.152344 Z" />
  <path
     style="color:#000000;fill:#ffffff;fill-opacity:1;stroke:none;stroke-width:0;stroke-miterlimit:4;stroke-dasharray:none"
     d="m 160,50 v 240 h 40 V 50 Z"
     id="path1591" />
  <g
     id="g1990">
    <path
       d="m 420,50 h 40.00012 V 289.99983 H 420 Z"
       style="fill:#0ca0e8;stroke:none;stroke-width:0;stroke-linejoin:bevel"
       id="path158464" />
    <path
       d="m 496.5291,154.96947 h 40.00011 V 289.99984 H 496.5291 Z m 0,-52.56539 h 40.00011 v 35.20435 H 496.5291 Z"
       style="fill:#0ca0e8;stroke:none;stroke-width:0;stroke-linejoin:bevel"
       id="path158466" />
    <path
       d="m 698.86862,207.776 v 82.22384 h -40.22358 v -13.38247 -49.55131 q 0,-17.48163 -0.78213,-24.11257 -0.67039,-6.63096 -2.45811,-9.7656 -2.34638,-4.21969 -6.36873,-6.51039 -4.02236,-2.41126 -9.16204,-2.41126 -12.514,0 -19.66486,10.48898 -7.15086,10.36838 -7.15086,28.81451 v 66.43011 H 573.05818 V 154.96947 h 40.00013 v 19.77231 q 9.05031,-11.81515 19.21793,-17.36105 10.16763,-5.66644 22.45817,-5.66644 21.67604,0 32.84926,14.34696 11.28495,14.34698 11.28495,41.71475 z"
       style="fill:#0ca0e8;stroke:none;stroke-width:0;stroke-linejoin:bevel"
       id="path158468" />
    <path
       d="m 732.71602,237.43445 v -82.46498 h 40.22359 v 13.50304 q 0,10.97122 -0.11174,27.60889 -0.11173,16.51711 -0.11173,22.063 0,16.27597 0.78213,23.50975 0.78212,7.11321 2.68157,10.36841 2.4581,4.21969 6.36873,6.51038 4.02236,2.2907 9.16204,2.2907 12.514,0 19.66486,-10.36841 7.15086,-10.36839 7.15086,-28.81451 v -66.67125 h 40.00012 v 135.03037 h -40.00012 v -19.53118 q -9.05031,11.81515 -19.21793,17.48161 -10.0559,5.54589 -22.2347,5.54589 -21.67605,0 -33.07273,-14.34697 -11.28495,-14.34698 -11.28495,-41.71474 z"
       style="fill:#0ca0e8;stroke:none;stroke-width:0;stroke-linejoin:bevel"
       id="path158470" />
    <path
       d="m 926.67563,220.91734 -45.1398,-65.94787 h 42.3465 l 25.58667,40.02686 25.92189,-40.02686 h 42.34641 l -45.13972,65.70675 47.37442,69.32362 H 977.62549 L 949.469,247.3206 921.64768,289.99984 h -42.34649 z"
       style="fill:#0ca0e8;stroke:none;stroke-width:0;stroke-linejoin:bevel"
       id="path158472" />
    <path
       d="m 1042.5344,109.99953 h 54.7488 l 37.989,96.32972 38.2124,-96.32972 h 54.637 v 180.00031 h -40.6705 V 158.34522 l -38.4359,97.0531 h -27.2626 l -38.4359,-97.0531 v 131.65462 h -40.7823 z"
       style="fill:#0ca0e8;stroke:none;stroke-width:0;stroke-linejoin:bevel"
       id="path158474" />
    <path
       d="m 1266.55,154.96947 h 40.0001 V 289.99984 H 1266.55 Z m 0,-52.56539 h 40.0001 v 35.20435 H 1266.55 Z"
       style="fill:#0ca0e8;stroke:none;stroke-width:0;stroke-linejoin:bevel"
       id="path158476" />
    <path
       d="m 1468.8895,207.776 v 82.22384 h -40.2236 v -13.38247 -49.55131 q 0,-17.48163 -0.7821,-24.11257 -0.6703,-6.63096 -2.4581,-9.7656 -2.3464,-4.21969 -6.3687,-6.51039 -4.0224,-2.41126 -9.1621,-2.41126 -12.514,0 -19.6648,10.48898 -7.1509,10.36838 -7.1509,28.81451 v 66.43011 h -40.0001 V 154.96947 h 40.0001 v 19.77231 q 9.0503,-11.81515 19.218,-17.36105 10.1676,-5.66644 22.4582,-5.66644 21.6759,0 32.8492,14.34696 11.2849,14.34698 11.2849,41.71475 z"
       style="fill:#0ca0e8;stroke:none;stroke-width:0;stroke-linejoin:bevel"
       id="path158478" />
    <path
       d="m 1547.765,116.6305 v 38.33897 h 41.2292 v 30.8641 h -41.2292 v 57.26733 q 0,9.4039 3.4637,12.77966 3.4637,3.2552 13.7431,3.2552 h 20.5587 v 30.86408 h -34.3018 q -23.6873,0 -33.6313,-10.60953 -9.8325,-10.73009 -9.8325,-36.28941 v -57.26733 h -19.8883 v -30.8641 h 19.8883 V 116.6305 Z"
       style="fill:#0ca0e8;stroke:none;stroke-width:0;stroke-linejoin:bevel"
       id="path158480" />
  </g>
</svg>
