<?xml version="1.0" encoding="UTF-8" standalone="no"?>
<!-- Created with Inkscape (http://www.inkscape.org/) -->

<svg
   width="1590"
   height="360"
   viewBox="0 0 1590 360"
   version="1.1"
   id="svg5"
   sodipodi:docname="trident-name-2.svg"
   inkscape:version="1.1.1 (1:1.1+202109281949+c3084ef5ed)"
   xmlns:inkscape="http://www.inkscape.org/namespaces/inkscape"
   xmlns:sodipodi="http://sodipodi.sourceforge.net/DTD/sodipodi-0.dtd"
   xmlns="http://www.w3.org/2000/svg"
   xmlns:svg="http://www.w3.org/2000/svg">
  <sodipodi:namedview
     id="namedview22"
     pagecolor="#ffffff"
     bordercolor="#666666"
     borderopacity="1.0"
     inkscape:pageshadow="2"
     inkscape:pageopacity="0.0"
     inkscape:pagecheckerboard="0"
     showgrid="false"
     inkscape:lockguides="true"
     inkscape:zoom="1"
     inkscape:cx="795.5"
     inkscape:cy="179.5"
     inkscape:current-layer="svg5"
     showguides="false">
    <sodipodi:guide
       position="0,250"
       orientation="0,1590"
       id="guide1425"
       inkscape:locked="true" />
    <sodipodi:guide
       position="0,310"
       orientation="0,1590"
       id="guide1427"
       inkscape:locked="true" />
    <sodipodi:guide
       position="0,70"
       orientation="0,1590"
       inkscape:locked="true"
       id="guide1402" />
  </sodipodi:namedview>
  <defs
     id="defs2" />
  <g
     id="layer2"
     style="display:none">
    <circle
       style="fill:none;fill-opacity:1;stroke:#000000;stroke-width:0;stroke-linejoin:bevel;stroke-miterlimit:4;stroke-dasharray:none;stroke-opacity:1"
       id="circle1017"
       cx="180"
       cy="180"
       r="150" />
    <circle
       style="fill:none;fill-opacity:1;stroke:#000000;stroke-width:0;stroke-linejoin:bevel;stroke-miterlimit:4;stroke-dasharray:none;stroke-opacity:1"
       id="circle1019"
       cx="180"
       cy="180"
       r="140" />
  </g>
  <circle
     style="fill:#0ca0e8;fill-opacity:1;stroke:none;stroke-width:0;stroke-linejoin:bevel;stroke-miterlimit:4;stroke-dasharray:none"
     id="path1393"
     cx="180"
     cy="180"
     r="180" />
  <path
     id="path87473"
     style="color:#000000;fill:#ffffff;fill-opacity:1;stroke:none;stroke-width:0;stroke-linejoin:bevel;stroke-miterlimit:4;stroke-dasharray:none"
     d="m 80,110 v 180 h 40 V 155.23242 l 46.97656,82.20899 h 26.04688 L 240,155.23242 V 290 h 40 V 110 H 265.84766 231.29492 L 180,199.76758 128.70508,110 H 94.152344 Z" />
  <path
     style="color:#000000;fill:#ffffff;fill-opacity:1;stroke:none;stroke-width:0;stroke-miterlimit:4;stroke-dasharray:none"
     d="m 160,50 v 240 h 40 V 50 Z"
     id="path1591" />
  <path
     d="m 420,49.999996 h 40.00012 V 289.86112 H 420 Z"
     style="fill:#0ca0e8;stroke:none;stroke-width:0;stroke-linejoin:bevel"
     id="path158464" />
  <path
     d="m 496.5291,154.93517 h 40.00011 V 289.86113 H 496.5291 Z m 0,-52.52475 h 40.00011 v 35.17713 H 496.5291 Z"
     style="fill:#0ca0e8;stroke:none;stroke-width:0;stroke-linejoin:bevel"
     id="path158466" />
  <path
     d="m 698.86862,207.70087 v 82.16026 h -40.22358 v -13.37212 -49.513 q 0,-17.46811 -0.78213,-24.09393 -0.67039,-6.62583 -2.45811,-9.75804 -2.34638,-4.21643 -6.36873,-6.50536 -4.02236,-2.4094 -9.16204,-2.4094 -12.514,0 -19.66486,10.48087 -7.15086,10.36037 -7.15086,28.79223 v 66.37875 H 573.05818 V 154.93517 h 40.00013 v 19.75702 q 9.05031,-11.80602 19.21793,-17.34763 10.16763,-5.66206 22.45817,-5.66206 21.67604,0 32.84926,14.33587 11.28495,14.33589 11.28495,41.6825 z"
     style="fill:#0ca0e8;stroke:none;stroke-width:0;stroke-linejoin:bevel"
     id="path158468" />
  <path
     d="m 732.71602,237.33638 v -82.40121 h 40.22359 v 13.4926 q 0,10.96273 -0.11174,27.58754 -0.11173,16.50434 -0.11173,22.04594 0,16.26338 0.78213,23.49157 0.78212,7.10771 2.68157,10.36039 2.4581,4.21643 6.36873,6.50535 4.02236,2.28893 9.16204,2.28893 12.514,0 19.66486,-10.36039 7.15086,-10.36038 7.15086,-28.79223 v -66.6197 h 40.00012 v 134.92596 h -40.00012 v -19.51608 q -9.05031,11.80602 -19.21793,17.46809 -10.0559,5.54161 -22.2347,5.54161 -21.67605,0 -33.07273,-14.33588 -11.28495,-14.33589 -11.28495,-41.68249 z"
     style="fill:#0ca0e8;stroke:none;stroke-width:0;stroke-linejoin:bevel"
     id="path158470" />
  <path
     d="m 926.67563,220.83204 -45.1398,-65.89687 h 42.3465 l 25.58667,39.99591 25.92189,-39.99591 h 42.34641 l -45.13972,65.65594 47.37442,69.27002 H 977.62549 L 949.469,247.21489 921.64768,289.86113 h -42.34649 z"
     style="fill:#0ca0e8;stroke:none;stroke-width:0;stroke-linejoin:bevel"
     id="path158472" />
  <path
     d="m 1042.5344,110 h 54.7488 l 37.989,96.25523 L 1173.4846,110 h 54.637 v 179.86113 h -40.6705 V 158.30831 l -38.4359,96.97805 h -27.2626 l -38.4359,-96.97805 v 131.55282 h -40.7823 z"
     style="fill:#0ca0e8;stroke:none;stroke-width:0;stroke-linejoin:bevel"
     id="path158474" />
  <path
     d="m 1266.55,154.93517 h 40.0001 V 289.86113 H 1266.55 Z m 0,-52.52475 h 40.0001 v 35.17713 H 1266.55 Z"
     style="fill:#0ca0e8;stroke:none;stroke-width:0;stroke-linejoin:bevel"
     id="path158476" />
  <path
     d="m 1468.8895,207.70087 v 82.16026 h -40.2236 v -13.37212 -49.513 q 0,-17.46811 -0.7821,-24.09393 -0.6703,-6.62583 -2.4581,-9.75804 -2.3464,-4.21643 -6.3687,-6.50536 -4.0224,-2.4094 -9.1621,-2.4094 -12.514,0 -19.6648,10.48087 -7.1509,10.36037 -7.1509,28.79223 v 66.37875 h -40.0001 V 154.93517 h 40.0001 v 19.75702 q 9.0503,-11.80602 19.218,-17.34763 10.1676,-5.66206 22.4582,-5.66206 21.6759,0 32.8492,14.33587 11.2849,14.33589 11.2849,41.6825 z"
     style="fill:#0ca0e8;stroke:none;stroke-width:0;stroke-linejoin:bevel"
     id="path158478" />
  <path
     d="m 1547.765,116.62584 v 38.30933 h 41.2292 v 30.84023 h -41.2292 v 57.22305 q 0,9.39663 3.4637,12.76978 3.4637,3.25268 13.7431,3.25268 h 20.5587 v 30.84022 h -34.3018 q -23.6873,0 -33.6313,-10.60133 -9.8325,-10.72179 -9.8325,-36.26135 V 185.7754 h -19.8883 v -30.84023 h 19.8883 v -38.30933 z"
     style="fill:#0ca0e8;stroke:none;stroke-width:0;stroke-linejoin:bevel"
     id="path158480" />
</svg>
