<?xml version="1.0" encoding="UTF-8" standalone="no"?>
<!-- Created with Inkscape (http://www.inkscape.org/) -->

<svg
   width="360"
   height="360"
   viewBox="0 0 360 360"
   version="1.1"
   id="svg5"
   xmlns="http://www.w3.org/2000/svg"
   xmlns:svg="http://www.w3.org/2000/svg">
  <defs
     id="defs2" />
  <path
     id="path1393"
     style="fill:#bebebe;fill-opacity:1;stroke:none;stroke-width:0;stroke-linejoin:bevel;stroke-miterlimit:4;stroke-dasharray:none"
     d="M 180 0 A 180 180 0 0 0 0 180 A 180 180 0 0 0 180 360 A 180 180 0 0 0 360 180 A 180 180 0 0 0 180 0 z M 160 50 L 200 50 L 200 164.76758 L 231.29492 110 L 265.84766 110 L 280 110 L 280 290 L 240 290 L 240 155.23242 L 200 225.23242 L 200 290 L 160 290 L 160 225.23242 L 120 155.23242 L 120 290 L 80 290 L 80 110 L 94.152344 110 L 128.70508 110 L 160 164.76758 L 160 50 z " />
</svg>
