<?xml version="1.0" encoding="UTF-8" standalone="no"?>
<!-- Created with Inkscape (http://www.inkscape.org/) -->

<svg
   width="256"
   height="256"
   viewBox="0 0 256 256"
   id="svg2"
   version="1.1"
   xml:space="preserve"
   xmlns="http://www.w3.org/2000/svg"
   xmlns:svg="http://www.w3.org/2000/svg"><defs
     id="defs4" /><circle
     style="fill:#0ac386;fill-opacity:1;stroke:none;stroke-width:0;stroke-miterlimit:4;stroke-dasharray:none"
     id="circle"
     cx="128"
     cy="128"
     r="128" /><path
     id="Lm-path"
     style="color:#000000;fill:#ffffff;fill-opacity:1;stroke:none;stroke-width:0;stroke-dasharray:none"
     d="m 44,50 v 108 c 0,26.36748 21.63253,48 48,48 h 24 V 182 H 92 C 78.60306,182 68,171.39695 68,158 V 50 Z m 84,12 C 108.25993,62 92,78.25993 92,98 v 60 h 24 V 98 c 0,-6.76953 5.23047,-12 12,-12 6.76954,0 12,5.23047 12,12 v 60 h 24 V 98 c 0,-6.76953 5.23047,-12 12,-12 6.76953,0 12,5.23047 12,12 v 60 c 0,13.39695 -10.60305,24 -24,24 h -24 v 24 h 24 c 26.36748,0 48,-21.63252 48,-48 V 98 c 0,-19.74007 -16.25992,-36 -36,-36 -9.22175,0 -17.60018,3.64388 -24,9.43799 C 145.60019,65.64388 137.22176,62 128,62 Z" /></svg>
