<?xml version="1.0" encoding="UTF-8" standalone="no"?>
<!-- Created with Inkscape (http://www.inkscape.org/) -->

<svg
   width="256"
   height="256"
   viewBox="0 0 256 256"
   id="svg2"
   version="1.1"
   xml:space="preserve"
   sodipodi:docname="Y-negative-Greenblue-halo.svg"
   inkscape:version="1.2.2 (1:1.2.2+202305151914+b0a8486541)"
   xmlns:inkscape="http://www.inkscape.org/namespaces/inkscape"
   xmlns:sodipodi="http://sodipodi.sourceforge.net/DTD/sodipodi-0.dtd"
   xmlns="http://www.w3.org/2000/svg"
   xmlns:svg="http://www.w3.org/2000/svg"><sodipodi:namedview
     id="namedview6"
     pagecolor="#e5e5e5"
     bordercolor="#000000"
     borderopacity="0.25"
     inkscape:showpageshadow="2"
     inkscape:pageopacity="0"
     inkscape:pagecheckerboard="0"
     inkscape:deskcolor="#d1d1d1"
     showgrid="false"
     inkscape:zoom="3"
     inkscape:cx="128.16667"
     inkscape:cy="128"
     inkscape:current-layer="svg2" /><defs
     id="defs4" /><ellipse
     style="fill:#ffffff;fill-opacity:1;stroke:none;stroke-width:0;stroke-miterlimit:4;stroke-dasharray:none"
     id="circle1595"
     cx="127.99999"
     cy="128"
     rx="127.99999"
     ry="128" /><circle
     style="fill:#0aba7f;fill-opacity:1;stroke:none;stroke-width:0;stroke-miterlimit:4;stroke-dasharray:none"
     id="circle"
     cx="128"
     cy="128"
     r="121" /><path
     id="Lm-path"
     style="color:#000000;fill:#ffffff;fill-opacity:1;stroke:none;stroke-width:0;stroke-dasharray:none"
     d="m 51,56.5 v 99 c 0,24.17019 19.82982,44 44.000001,44 H 117 v -22 H 95.000001 c -12.280529,0 -22,-9.71946 -22,-22 v -99 z m 77,11.000001 c -18.09506,0 -32.999999,14.904935 -32.999999,32.999999 v 55 H 117 v -55 c 0,-6.205402 4.7946,-10.999999 11,-10.999999 6.20541,0 11,4.794597 11,10.999999 v 55 h 22 v -55 c 0,-6.205402 4.7946,-10.999999 11,-10.999999 6.2054,0 11,4.794597 11,10.999999 v 55 c 0,12.28054 -9.71946,22 -22,22 h -22 v 22 h 22 c 24.17019,0 44,-19.82981 44,-44 v -55 c 0,-18.095064 -14.90493,-32.999999 -33,-32.999999 -8.45327,0 -16.1335,3.340223 -22,8.65149 -5.86649,-5.311267 -13.54672,-8.65149 -22,-8.65149 z" /></svg>
