<?xml version="1.0" encoding="UTF-8" standalone="no"?>
<!-- Created with Inkscape (http://www.inkscape.org/) -->

<svg
   width="1590"
   height="360"
   viewBox="0 0 1590 360"
   version="1.1"
   id="svg5"
   inkscape:version="1.1.1 (1:1.1+202109281949+c3084ef5ed)"
   sodipodi:docname="trident-name-5.svg"
   xmlns:inkscape="http://www.inkscape.org/namespaces/inkscape"
   xmlns:sodipodi="http://sodipodi.sourceforge.net/DTD/sodipodi-0.dtd"
   xmlns="http://www.w3.org/2000/svg"
   xmlns:svg="http://www.w3.org/2000/svg">
  <sodipodi:namedview
     id="namedview7"
     pagecolor="#ffffff"
     bordercolor="#999999"
     borderopacity="1"
     inkscape:pageshadow="2"
     inkscape:pageopacity="1"
     inkscape:pagecheckerboard="0"
     inkscape:document-units="px"
     showgrid="false"
     units="px"
     width="1920px"
     scale-x="1"
     inkscape:zoom="0.90260417"
     inkscape:cx="594.39123"
     inkscape:cy="180.03462"
     inkscape:current-layer="layer1"
     inkscape:showpageshadow="false"
     inkscape:snap-page="true">
    <inkscape:grid
       type="xygrid"
       id="grid821"
       empspacing="4" />
  </sodipodi:namedview>
  <defs
     id="defs2" />
  <g
     inkscape:groupmode="layer"
     id="layer2"
     inkscape:label="guides"
     sodipodi:insensitive="true"
     style="display:none">
    <circle
       style="fill:none;fill-opacity:1;stroke:#000000;stroke-width:0;stroke-linejoin:bevel;stroke-miterlimit:4;stroke-dasharray:none;stroke-opacity:1"
       id="circle1017"
       cx="180"
       cy="180"
       r="150" />
    <circle
       style="fill:none;fill-opacity:1;stroke:#000000;stroke-width:0;stroke-linejoin:bevel;stroke-miterlimit:4;stroke-dasharray:none;stroke-opacity:1"
       id="circle1019"
       cx="180"
       cy="180"
       r="140" />
  </g>
  <g
     inkscape:label="Layer 1"
     inkscape:groupmode="layer"
     id="layer1">
    <circle
       style="fill:#0ca0e8;fill-opacity:1;stroke:none;stroke-width:0;stroke-linejoin:bevel;stroke-miterlimit:4;stroke-dasharray:none"
       id="path1393"
       cx="180"
       cy="180"
       r="180" />
    <path
       id="path87473"
       style="color:#000000;fill:#ffffff;fill-opacity:1;stroke:none;stroke-width:0;stroke-linejoin:bevel;stroke-miterlimit:4;stroke-dasharray:none"
       d="m 80,110 v 180 h 40 V 155.23242 l 46.97656,82.20899 h 26.04688 L 240,155.23242 V 290 h 40 V 110 H 265.84766 231.29492 L 180,199.76758 128.70508,110 H 94.152344 Z" />
    <path
       style="color:#000000;fill:#ffffff;fill-opacity:1;stroke:none;stroke-width:0;stroke-miterlimit:4;stroke-dasharray:none"
       d="m 160,50 v 240 h 40 V 50 Z"
       id="path1591" />
    <g
       aria-label="linuxMint"
       id="text3426"
       style="font-weight:bold;font-size:240px;font-family:Montserrat;-inkscape-font-specification:'Montserrat Bold';letter-spacing:-2px;fill:#0ca0e8;stroke:none;stroke-width:0;stroke-linejoin:bevel"
       transform="matrix(0.95344791,0,0,0.98714237,2.7510292,-6.517677)">
      <path
         d="m 437.62115,118.0361 h 41.95313 v 182.34375 h -41.95313 z"
         style="font-family:'DejaVu Sans';-inkscape-font-specification:'DejaVu Sans Bold';stroke:none;stroke-width:0"
         id="path158464" />
      <path
         d="m 517.88678,169.12985 h 41.95312 v 131.25 h -41.95312 z m 0,-51.09375 h 41.95312 v 34.21875 h -41.95312 z"
         style="font-family:'DejaVu Sans';-inkscape-font-specification:'DejaVu Sans Bold';stroke:none;stroke-width:0"
         id="path158466" />
      <path
         d="m 730.10553,220.45798 v 79.92187 h -42.1875 v -13.00781 -48.16406 q 0,-16.99219 -0.82031,-23.4375 -0.70313,-6.44532 -2.57813,-9.49219 -2.46094,-4.10156 -6.67969,-6.32813 -4.21875,-2.34375 -9.60937,-2.34375 -13.125,0 -20.625,10.19532 -7.5,10.07812 -7.5,28.00781 v 64.57031 H 598.1524 v -131.25 h 41.95313 v 19.21875 q 9.49219,-11.48437 20.15625,-16.875 10.66406,-5.50781 23.55469,-5.50781 22.73437,0 34.45312,13.94531 11.83594,13.94531 11.83594,40.54688 z"
         style="font-family:'DejaVu Sans';-inkscape-font-specification:'DejaVu Sans Bold';stroke:none;stroke-width:0"
         id="path158468" />
      <path
         d="m 765.60553,249.2861 v -80.15625 h 42.1875 v 13.125 q 0,10.66406 -0.11719,26.83594 -0.11719,16.05469 -0.11719,21.44531 0,15.82031 0.82032,22.85156 0.82031,6.91407 2.8125,10.07813 2.57812,4.10156 6.67968,6.32812 4.21875,2.22657 9.60938,2.22657 13.125,0 20.625,-10.07813 7.5,-10.07812 7.5,-28.00781 v -64.80469 h 41.95312 v 131.25 h -41.95312 v -18.98437 q -9.49219,11.48437 -20.15625,16.99218 -10.54688,5.39063 -23.32031,5.39063 -22.73438,0 -34.6875,-13.94531 -11.83594,-13.94532 -11.83594,-40.54688 z"
         style="font-family:'DejaVu Sans';-inkscape-font-specification:'DejaVu Sans Bold';stroke:none;stroke-width:0"
         id="path158470" />
      <path
         d="m 969.03522,233.23141 -47.34375,-64.10156 h 44.41406 l 26.83594,38.90625 27.18753,-38.90625 h 44.414 l -47.3437,63.86719 49.6875,67.38281 h -44.4141 l -29.53123,-41.48437 -29.17969,41.48437 h -44.41406 z"
         style="font-family:'DejaVu Sans';-inkscape-font-specification:'DejaVu Sans Bold';stroke:none;stroke-width:0"
         id="path158472" />
      <path
         d="m 1090.5508,125.41891 h 57.4219 l 39.8438,93.63282 40.0781,-93.63282 h 57.3047 V 300.37985 H 1242.543 V 172.4111 l -40.3125,94.33594 h -28.5937 l -40.3125,-94.33594 v 127.96875 h -42.7735 z"
         style="font-family:'DejaVu Sans';-inkscape-font-specification:'DejaVu Sans Bold';stroke:none;stroke-width:0"
         id="path158474" />
      <path
         d="m 1325.504,169.12985 h 41.9531 v 131.25 h -41.9531 z m 0,-51.09375 h 41.9531 v 34.21875 h -41.9531 z"
         style="font-family:'DejaVu Sans';-inkscape-font-specification:'DejaVu Sans Bold';stroke:none;stroke-width:0"
         id="path158476" />
      <path
         d="m 1537.7227,220.45798 v 79.92187 h -42.1875 v -13.00781 -48.16406 q 0,-16.99219 -0.8203,-23.4375 -0.7031,-6.44532 -2.5781,-9.49219 -2.461,-4.10156 -6.6797,-6.32813 -4.2188,-2.34375 -9.6094,-2.34375 -13.125,0 -20.625,10.19532 -7.5,10.07812 -7.5,28.00781 v 64.57031 h -41.9531 v -131.25 h 41.9531 v 19.21875 q 9.4922,-11.48437 20.1563,-16.875 10.664,-5.50781 23.5547,-5.50781 22.7343,0 34.4531,13.94531 11.8359,13.94531 11.8359,40.54688 z"
         style="font-family:'DejaVu Sans';-inkscape-font-specification:'DejaVu Sans Bold';stroke:none;stroke-width:0"
         id="path158478" />
      <path
         d="m 1620.4493,131.86423 v 37.26562 h 43.2422 v 30 h -43.2422 v 55.66406 q 0,9.14063 3.6328,12.42188 3.6328,3.16406 14.4141,3.16406 h 21.5625 v 30 h -35.9766 q -24.8438,0 -35.2734,-10.3125 -10.3125,-10.42969 -10.3125,-35.27344 v -55.66406 h -20.8594 v -30 h 20.8594 v -37.26562 z"
         style="font-family:'DejaVu Sans';-inkscape-font-specification:'DejaVu Sans Bold';stroke:none;stroke-width:0"
         id="path158480" />
    </g>
  </g>
</svg>
