<?xml version="1.0" encoding="UTF-8" standalone="no"?>
<!-- Created with Inkscape (http://www.inkscape.org/) -->

<svg
   width="256"
   height="256"
   viewBox="0 0 256 256"
   version="1.1"
   id="svg5"
   xmlns="http://www.w3.org/2000/svg"
   xmlns:svg="http://www.w3.org/2000/svg">
  <defs
     id="defs2" />
  <path
     id="path891"
     style="fill:#ffffff;fill-opacity:1;stroke:none;stroke-width:0"
     d="M 17.710938,0 50.855469,33.144531 C 60.228859,42.517921 65.5,55.244031 65.5,68.5 v 97 c 0,13.95518 11.044814,25 25,25 h 75 c 13.95518,0 25,-11.04482 25,-25 V 103 c 0,-7.051623 -5.44838,-12.5 -12.5,-12.5 -7.05164,0 -12.5,5.448369 -12.5,12.5 v 62.5 h -25 V 103 c 0,-7.051631 -5.44836,-12.5 -12.5,-12.5 -7.05164,0 -12.5,5.448369 -12.5,12.5 v 62.5 h -25 V 103 c 0,-20.56257 16.93742,-37.5 37.5,-37.5 9.60593,0 18.33354,3.796562 25,9.832031 C 159.66646,69.296562 168.39407,65.5 178,65.5 c 20.56257,0 37.5,16.937425 37.5,37.5 v 62.5 c 0,27.46612 -22.53388,50 -50,50 h -75 c -27.466128,0 -50,-22.53388 -50,-50 v -97 c 0,-6.635191 -2.630472,-12.985941 -7.322266,-17.677734 L 0,17.644531 V 128 A 128,128 0 0 0 128,256 H 256 V 128 A 128,128 0 0 0 128,0 Z" />
</svg>
