<?xml version="1.0" encoding="UTF-8" standalone="no"?>
<svg
   xmlns:dc="http://purl.org/dc/elements/1.1/"
   xmlns:cc="http://creativecommons.org/ns#"
   xmlns:rdf="http://www.w3.org/1999/02/22-rdf-syntax-ns#"
   xmlns:svg="http://www.w3.org/2000/svg"
   xmlns="http://www.w3.org/2000/svg"
   xmlns:sodipodi="http://sodipodi.sourceforge.net/DTD/sodipodi-0.dtd"
   xmlns:inkscape="http://www.inkscape.org/namespaces/inkscape"
   width="280"
   height="280"
   viewBox="0 0 280 280"
   id="svg4135"
   version="1.1"
   inkscape:version="1.0 (1.0+r73+1)"
   sodipodi:docname="Logo-Ring-Y-#000.svg"
   inkscape:export-filename="/home/sebastien/Sources/LM-logo/Color_lm+name_#75cc1c.png"
   inkscape:export-xdpi="96"
   inkscape:export-ydpi="96">
  <defs
     id="defs4137" />
  <sodipodi:namedview
     id="base"
     pagecolor="#ffffff"
     bordercolor="#666666"
     borderopacity="1.0"
     inkscape:pageopacity="0"
     inkscape:pageshadow="2"
     inkscape:zoom="2"
     inkscape:cx="48.389907"
     inkscape:cy="140.00008"
     inkscape:document-units="px"
     inkscape:current-layer="layer1"
     showgrid="false"
     units="px"
     inkscape:window-width="1440"
     inkscape:window-height="839"
     inkscape:window-x="0"
     inkscape:window-y="0"
     inkscape:window-maximized="1"
     inkscape:showpageshadow="false"
     objecttolerance="10"
     gridtolerance="10"
     guidetolerance="10"
     showguides="false"
     inkscape:guide-bbox="true"
     fit-margin-top="0"
     fit-margin-left="0"
     fit-margin-right="0"
     fit-margin-bottom="0"
     inkscape:document-rotation="0">
    <inkscape:grid
       type="xygrid"
       id="grid3333"
       spacingx="20"
       spacingy="20"
       color="#3f3fff"
       opacity="0.1254902"
       empcolor="#ff3f3f"
       empopacity="0.25098039"
       dotted="false"
       originx="-92.999993"
       originy="-92.999932" />
    <sodipodi:guide
       position="-92.999992,137"
       orientation="0,1"
       id="guide4248"
       inkscape:locked="false" />
  </sodipodi:namedview>
  <metadata
     id="metadata4140">
    <rdf:RDF>
      <cc:Work
         rdf:about="">
        <dc:format>image/svg+xml</dc:format>
        <dc:type
           rdf:resource="http://purl.org/dc/dcmitype/StillImage" />
        <dc:title></dc:title>
        <dc:creator>
          <cc:Agent>
            <dc:title />
          </cc:Agent>
        </dc:creator>
        <cc:license
           rdf:resource="" />
      </cc:Work>
    </rdf:RDF>
  </metadata>
  <g
     inkscape:label="Layer 1"
     inkscape:groupmode="layer"
     id="layer1"
     transform="translate(-92.999995,-833.36209)">
    <g
       id="g2102">
      <path
         id="ellipse4245"
         style="fill:#000000;fill-opacity:1;stroke:none;stroke-width:22.6538;stroke-linecap:butt;stroke-linejoin:bevel;stroke-miterlimit:4;stroke-dasharray:none;stroke-opacity:1"
         d="m 232.60069,833.36224 a 140,140 0 0 0 -139.600695,140 140,140 0 0 0 139.999995,139.99996 140,140 0 0 0 140,-139.99996 140,140 0 0 0 -140,-140 140,140 0 0 0 -0.3993,0 z m 0.0304,20 a 120,120 0 0 1 0.36893,0 120,120 0 0 1 120,120 120,120 0 0 1 -120,119.99996 120,120 0 0 1 -120,-119.99996 120,120 0 0 1 119.63108,-120 z" />
      <path
         id="path1529"
         style="color:#000000;font-style:normal;font-variant:normal;font-weight:normal;font-stretch:normal;font-size:medium;line-height:normal;font-family:sans-serif;font-variant-ligatures:normal;font-variant-position:normal;font-variant-caps:normal;font-variant-numeric:normal;font-variant-alternates:normal;font-variant-east-asian:normal;font-feature-settings:normal;font-variation-settings:normal;text-indent:0;text-align:start;text-decoration:none;text-decoration-line:none;text-decoration-style:solid;text-decoration-color:#000000;letter-spacing:normal;word-spacing:normal;text-transform:none;writing-mode:lr-tb;direction:ltr;text-orientation:mixed;dominant-baseline:auto;baseline-shift:baseline;text-anchor:start;white-space:normal;shape-padding:0;shape-margin:0;inline-size:0;clip-rule:nonzero;display:inline;overflow:visible;visibility:visible;isolation:auto;mix-blend-mode:normal;color-interpolation:sRGB;color-interpolation-filters:linearRGB;solid-color:#000000;solid-opacity:1;vector-effect:none;fill:#000000;fill-opacity:1;fill-rule:nonzero;stroke:none;stroke-width:20;stroke-linecap:butt;stroke-linejoin:miter;stroke-miterlimit:4;stroke-dasharray:none;stroke-dashoffset:0;stroke-opacity:1;color-rendering:auto;image-rendering:auto;shape-rendering:auto;text-rendering:auto;enable-background:accumulate;stop-color:#000000;stop-opacity:1;opacity:1"
         d="M 70 76.667969 L 70 166.66797 C 70 188.64097 88.02709 206.66797 110 206.66797 L 130 206.66797 L 130 186.66797 L 110 186.66797 C 98.83585 186.66797 90 177.83217 90 166.66797 L 90 76.667969 L 70 76.667969 z M 140 86.667969 C 123.5499 86.667969 110 100.21787 110 116.66797 L 110 166.66797 L 130 166.66797 L 130 116.66797 C 130 111.02668 134.35872 106.66797 140 106.66797 C 145.64128 106.66797 150 111.02668 150 116.66797 L 150 166.66797 L 170 166.66797 L 170 116.66797 C 170 111.02668 174.35872 106.66797 180 106.66797 C 185.64128 106.66797 190 111.02668 190 116.66797 L 190 166.66797 C 190 177.83217 181.16416 186.66797 170 186.66797 L 150 186.66797 L 150 206.66797 L 170 206.66797 C 191.97292 206.66797 210 188.64097 210 166.66797 L 210 116.66797 C 210 100.21787 196.4501 86.667969 180 86.667969 C 172.31486 86.667969 165.33327 89.704403 160 94.533203 C 154.66673 89.704403 147.68514 86.667969 140 86.667969 z "
         transform="translate(92.999995,833.36209)" />
    </g>
  </g>
</svg>
