<?xml version="1.0" encoding="UTF-8" standalone="no"?>
<!-- Generator: Adobe Illustrator 23.0.2, SVG Export Plug-In . SVG Version: 6.00 Build 0)  -->

<svg
   version="1.1"
   id="Calque_1"
   x="0px"
   y="0px"
   viewBox="0 0 600 400"
   style="enable-background:new 0 0 600 400;"
   xml:space="preserve"
   sodipodi:docname="FlagOfQuebec-by-Judicieux-CC-BY-SA-4-via-WikimediaCom.svg"
   inkscape:export-filename="FlagOfQuebec-by-Judicieux-CC-BY-SA-4-via-WikimediaCom-240px.png"
   inkscape:export-xdpi="38.400002"
   inkscape:export-ydpi="38.400002"
   inkscape:version="1.2.2 (1:1.2.2+202305151914+b0a8486541)"
   xmlns:inkscape="http://www.inkscape.org/namespaces/inkscape"
   xmlns:sodipodi="http://sodipodi.sourceforge.net/DTD/sodipodi-0.dtd"
   xmlns="http://www.w3.org/2000/svg"
   xmlns:svg="http://www.w3.org/2000/svg"><defs
   id="defs11" /><sodipodi:namedview
   id="namedview9"
   pagecolor="#e5e5e5"
   bordercolor="#000000"
   borderopacity="0.25"
   inkscape:showpageshadow="2"
   inkscape:pageopacity="0"
   inkscape:pagecheckerboard="0"
   inkscape:deskcolor="#d1d1d1"
   showgrid="false"
   inkscape:zoom="2.12"
   inkscape:cx="292.92453"
   inkscape:cy="200"
   inkscape:current-layer="Calque_1" />
<style
   type="text/css"
   id="style2">
	.st0{fill:#002495;}
</style>
<rect
   style="fill:#ffffff;stroke-width:0;stroke-linejoin:round;fill-opacity:1;stroke:none"
   id="rect292"
   width="600"
   height="400"
   x="0"
   y="0" /><path
   id="path3150"
   class="st0"
   d="M0,161.6h261.8V0H0L0,161.6L0,161.6z M194.8,92.9c-3.2,10-8.7,13.4-10.3,13.4  c0,0,2.6-11-5.3-16.7c-7.5-5.3-16.7-2.1-20.9,4.2c-4,6.1-4.6,14.3-4.6,14.3h13.6v10.2h-27.4c0,0,0.7,14.3,15.7,12.9  c0,0-1.8,11.3-15.7,5.4c0,0,0.7,11.9-8.8,17.8c-9.5-5.9-8.8-17.8-8.8-17.8c-13.9,5.9-15.8-5.4-15.8-5.4c15,1.4,15.8-12.9,15.8-12.9  H94.7v-10.2h13.6c0,0-0.6-8.2-4.7-14.3c-4.3-6.3-13.5-9.5-20.9-4.2c-7.9,5.7-5.3,16.7-5.3,16.7c-1.5,0-7.1-3.4-10.3-13.4  c-5.9-19.1,12.8-37.4,31.8-26.8c13.4,7.4,18.9,24.3,18.9,42h7.3c-0.2,1.4,1.7-13.3-1.2-24.2c-2.1-7.5-4.7-15.4-9.2-25  c-4-8.3-5.4-22.3,3-32.8c7.2-9.1,11.4-14.1,13.3-17.7c1.9,3.6,6.2,8.7,13.4,17.7c8.3,10.5,6.9,24.5,2.9,32.8  c-4.5,9.5-7.2,17.5-9.2,25c-2.9,10.9-1,25.6-1.2,24.2h7.2c0-17.8,5.6-34.6,18.9-42C181.9,55.5,200.7,73.9,194.8,92.9" />
<path
   id="path3152"
   class="st0"
   d="M338.1,161.6H600V0H338.1V161.6z M532.8,92.9c-3.2,10-8.7,13.4-10.3,13.4c0,0,2.5-11-5.3-16.7  c-7.5-5.3-16.7-2.1-21,4.2c-4,6.1-4.6,14.3-4.6,14.3h13.7v10.2h-27.5c0,0,0.7,14.3,15.8,12.9c0,0-1.8,11.3-15.8,5.4  c0,0,0.7,11.9-8.8,17.8c-9.6-5.9-8.8-17.8-8.8-17.8c-13.9,5.9-15.7-5.4-15.7-5.4c15,1.4,15.7-12.9,15.7-12.9h-27.4v-10.2h13.6  c0,0-0.6-8.2-4.7-14.3c-4.3-6.3-13.5-9.5-20.8-4.2c-8,5.7-5.3,16.7-5.3,16.7c-1.6,0-7.2-3.4-10.3-13.4c-6-19.1,12.7-37.4,31.7-26.8  c13.4,7.4,18.8,24.3,18.8,42h7.3c-0.2,1.4,1.7-13.3-1.2-24.2c-2.1-7.5-4.7-15.4-9.2-25c-4-8.3-5.4-22.3,3-32.8  c7.2-9.1,11.4-14.1,13.4-17.7c1.9,3.6,6.3,8.7,13.4,17.7c8.3,10.5,6.9,24.5,2.9,32.8c-4.5,9.5-7.2,17.5-9.2,25  c-2.9,10.9-1,25.6-1.1,24.2h7.2c0-17.8,5.5-34.6,18.8-42C520,55.5,538.7,73.9,532.8,92.9" />
<path
   id="path3154"
   class="st0"
   d="M0,400h261.8V238.5H0L0,400L0,400z M194.8,331.4c-3.2,10-8.7,13.4-10.3,13.4c0,0,2.6-11-5.3-16.6  c-7.5-5.3-16.7-2.1-20.9,4.2c-4,6.1-4.6,14.3-4.6,14.3h13.6v10.2h-27.4c0,0,0.7,14.3,15.7,13c0,0-1.8,11.3-15.7,5.3  c0,0,0.7,11.8-8.8,17.8c-9.5-5.9-8.8-17.8-8.8-17.8c-13.9,5.9-15.8-5.3-15.8-5.3c15,1.4,15.8-13,15.8-13H94.7v-10.2h13.6  c0,0-0.6-8.2-4.7-14.3c-4.3-6.2-13.5-9.4-20.9-4.2c-7.9,5.6-5.3,16.6-5.3,16.6c-1.5,0-7.1-3.3-10.3-13.4  c-5.9-19.1,12.8-37.4,31.8-26.8c13.4,7.5,18.9,24.3,18.9,42h7.3c-0.2,1.4,1.7-13.3-1.2-24.2c-2.1-7.6-4.7-15.5-9.2-25  c-4-8.3-5.4-22.3,3-32.7c7.2-9.1,11.4-14.2,13.3-17.7c1.9,3.5,6.2,8.6,13.4,17.7c8.3,10.4,6.9,24.4,2.9,32.7  c-4.5,9.5-7.2,17.5-9.2,25c-2.9,10.9-1,25.5-1.2,24.2h7.2c0-17.8,5.6-34.6,18.9-42C181.9,294,200.7,312.4,194.8,331.4" />
<path
   id="path3156"
   class="st0"
   d="M338.1,400H600V238.5H338.1V400z M532.8,331.4c-3.2,10-8.7,13.4-10.3,13.4c0,0,2.5-11-5.3-16.6  c-7.5-5.3-16.7-2.1-21,4.2c-4,6.1-4.6,14.3-4.6,14.3h13.7v10.2h-27.5c0,0,0.7,14.3,15.8,13c0,0-1.8,11.3-15.8,5.3  c0,0,0.7,11.8-8.8,17.8c-9.6-5.9-8.8-17.8-8.8-17.8c-13.9,5.9-15.7-5.3-15.7-5.3c15,1.4,15.7-13,15.7-13h-27.4v-10.2h13.6  c0,0-0.6-8.2-4.7-14.3c-4.3-6.2-13.5-9.4-20.8-4.2c-8,5.6-5.3,16.6-5.3,16.6c-1.6,0-7.2-3.3-10.3-13.4c-6-19.1,12.7-37.4,31.7-26.8  c13.4,7.5,18.8,24.3,18.8,42h7.3c-0.2,1.4,1.7-13.3-1.2-24.2c-2.1-7.6-4.7-15.5-9.2-25c-4-8.3-5.4-22.3,3-32.7  c7.2-9.1,11.4-14.2,13.4-17.7c1.9,3.5,6.3,8.6,13.4,17.7c8.3,10.4,6.9,24.4,2.9,32.7c-4.5,9.5-7.2,17.5-9.2,25  c-2.9,10.9-1,25.5-1.1,24.2h7.2c0-17.8,5.5-34.6,18.8-42C520,294,538.7,312.4,532.8,331.4" />
</svg>
