<?xml version="1.0" encoding="UTF-8" standalone="no"?>
<!-- Created with Inkscape (http://www.inkscape.org/) -->

<svg
   width="120"
   height="120"
   viewBox="0 0 120 120"
   id="svg2"
   version="1.1"
   xml:space="preserve"
   sodipodi:docname="Y-negative-120px.svg"
   inkscape:version="1.2 (1:1.2.1+202207142221+cd75a1ee6d)"
   xmlns:inkscape="http://www.inkscape.org/namespaces/inkscape"
   xmlns:sodipodi="http://sodipodi.sourceforge.net/DTD/sodipodi-0.dtd"
   xmlns="http://www.w3.org/2000/svg"
   xmlns:svg="http://www.w3.org/2000/svg"><sodipodi:namedview
     id="namedview6"
     pagecolor="#ffffff"
     bordercolor="#000000"
     borderopacity="0.25"
     inkscape:showpageshadow="2"
     inkscape:pageopacity="0.0"
     inkscape:pagecheckerboard="0"
     inkscape:deskcolor="#d1d1d1"
     showgrid="false"
     inkscape:zoom="6"
     inkscape:cx="52.916667"
     inkscape:cy="60"
     inkscape:window-width="1920"
     inkscape:window-height="1017"
     inkscape:window-x="0"
     inkscape:window-y="0"
     inkscape:window-maximized="1"
     inkscape:current-layer="svg2" /><defs
     id="defs4" /><circle
     style="fill:#0ac386;fill-opacity:1;stroke:none;stroke-width:0;stroke-miterlimit:4;stroke-dasharray:none"
     id="circle"
     cx="60"
     cy="60"
     r="60" /><path
     id="Lm-path"
     style="color:#000000;fill:#ffffff;fill-opacity:1;stroke:none;stroke-width:0;stroke-dasharray:none"
     d="m 20.625,23.4375 v 50.625 c 0,12.35976 10.140248,22.5 22.5,22.5 h 11.25 v -11.25 h -11.25 c -6.27982,0 -11.25,-4.97018 -11.25,-11.25 V 23.4375 Z M 60,29.0625 c -9.25316,0 -16.875,7.62184 -16.875,16.875 v 28.125 h 11.25 v -28.125 c 0,-3.17322 2.45178,-5.625 5.625,-5.625 3.17322,0 5.625,2.45178 5.625,5.625 v 28.125 h 11.25 v -28.125 c 0,-3.17322 2.45178,-5.625 5.625,-5.625 3.17322,0 5.625,2.45178 5.625,5.625 v 28.125 c 0,6.27982 -4.97018,11.25 -11.25,11.25 h -11.25 v 11.25 h 11.25 c 12.35976,0 22.5,-10.14024 22.5,-22.5 v -28.125 c 0,-9.25316 -7.62184,-16.875 -16.875,-16.875 -4.3227,0 -8.25008,1.708069 -11.25,4.42406 C 68.25009,30.770569 64.3227,29.0625 60,29.0625 Z" /></svg>
