<?xml version="1.0" encoding="UTF-8" standalone="no"?>
<!-- Created with Inkscape (http://www.inkscape.org/) -->

<svg
   width="352"
   height="352"
   viewBox="0 0 352 352"
   id="svg2"
   version="1.1"
   sodipodi:docname="Y-negative.svg"
   xml:space="preserve"
   inkscape:version="1.2 (1:1.2.1+202207142221+cd75a1ee6d)"
   xmlns:inkscape="http://www.inkscape.org/namespaces/inkscape"
   xmlns:sodipodi="http://sodipodi.sourceforge.net/DTD/sodipodi-0.dtd"
   xmlns="http://www.w3.org/2000/svg"
   xmlns:svg="http://www.w3.org/2000/svg"
   xmlns:rdf="http://www.w3.org/1999/02/22-rdf-syntax-ns#"
   xmlns:cc="http://creativecommons.org/ns#"
   xmlns:dc="http://purl.org/dc/elements/1.1/"><sodipodi:namedview
     id="namedview10"
     pagecolor="#e5e5e5"
     bordercolor="#000000"
     borderopacity="0.25"
     inkscape:showpageshadow="2"
     inkscape:pageopacity="0"
     inkscape:pagecheckerboard="0"
     inkscape:deskcolor="#d1d1d1"
     showgrid="false"
     inkscape:zoom="2"
     inkscape:cx="156.75"
     inkscape:cy="176"
     inkscape:window-width="1920"
     inkscape:window-height="1017"
     inkscape:window-x="0"
     inkscape:window-y="0"
     inkscape:window-maximized="1"
     inkscape:current-layer="layer2"><inkscape:grid
       type="xygrid"
       id="grid899"
       spacingx="16"
       spacingy="16"
       empspacing="2" /></sodipodi:namedview><title
     id="title3343">LinuxMint logo</title><defs
     id="defs4" /><metadata
     id="metadata7"><rdf:RDF><cc:Work
         rdf:about=""><dc:format>image/svg+xml</dc:format><dc:type
           rdf:resource="http://purl.org/dc/dcmitype/StillImage" /><dc:title>LinuxMint logo</dc:title><dc:date>2018-10-26 -&gt; 2022-10-26</dc:date><dc:creator><cc:Agent><dc:title>Sébastien Bouchard</dc:title></cc:Agent></dc:creator><dc:description>2018 Linux Mint logo, new drawing inspired by the 2007 logo.</dc:description><dc:source>copyright 2007 Carlos Porto, copyright 2007 Clément Lefebvre</dc:source><cc:license
           rdf:resource="https://www.gnu.org/licenses/gpl-3.0.html" /><dc:rights><cc:Agent><dc:title>SPDX-License-Identifier: GPL-3.0-or-later</dc:title></cc:Agent></dc:rights><dc:coverage>worldwide</dc:coverage><dc:contributor><cc:Agent><dc:title /></cc:Agent></dc:contributor></cc:Work></rdf:RDF></metadata><g
     inkscape:groupmode="layer"
     id="layer2"
     inkscape:label="Lm"><path
       id="Lm-path"
       style="color:#000000;fill:#ffffff;fill-opacity:1;stroke:none;stroke-width:0;stroke-dasharray:none"
       d="m 64,80 v 144 c 0,35.15663 28.843365,64 64,64 h 32 V 256 H 128 C 110.13741,256 96,241.86259 96,224 V 80 Z m 112,16 c -26.3201,0 -48,21.6799 -48,48 v 80 h 32 v -80 c 0,-9.02605 6.97395,-16 16,-16 9.02605,0 16,6.97395 16,16 v 80 h 32 v -80 c 0,-9.02605 6.97395,-16 16,-16 9.02604,0 16,6.97396 16,16 v 80 c 0,17.86259 -14.13741,32 -32,32 h -32 v 32 h 32 c 35.15663,0 64,-28.84337 64,-64 v -80 c 0,-26.3201 -21.6799,-48 -48,-48 -12.29567,0 -23.46691,4.8585 -32,12.58398 C 199.46691,100.8585 188.29567,96 176,96 Z"
       sodipodi:nodetypes="cssccssccssccsssccsssssccsssscs" /></g></svg>
