<?xml version="1.0" encoding="UTF-8" standalone="no"?>
<svg
   inkscape:version="1.1 (1:1.1+202105261517+ce6663b3b7)"
   id="svg8"
   version="1.1"
   viewBox="0 0 507.99998 285.75"
   height="1080"
   width="1920"
   sodipodi:docname="Plymouth-CO.svg"
   inkscape:export-filename="/home/sebastien/linuxmint-logo/wallpaper/Plymouth-CO.png"
   inkscape:export-xdpi="192"
   inkscape:export-ydpi="192"
   xmlns:inkscape="http://www.inkscape.org/namespaces/inkscape"
   xmlns:sodipodi="http://sodipodi.sourceforge.net/DTD/sodipodi-0.dtd"
   xmlns:xlink="http://www.w3.org/1999/xlink"
   xmlns="http://www.w3.org/2000/svg"
   xmlns:svg="http://www.w3.org/2000/svg"
   xmlns:rdf="http://www.w3.org/1999/02/22-rdf-syntax-ns#"
   xmlns:cc="http://creativecommons.org/ns#"
   xmlns:dc="http://purl.org/dc/elements/1.1/">
  <defs
     id="defs2">
    <linearGradient
       inkscape:collect="always"
       id="linearGradient1838">
      <stop
         style="stop-color:#009999;stop-opacity:1"
         offset="0"
         id="stop1834" />
      <stop
         style="stop-color:#9ad61f;stop-opacity:1"
         offset="1"
         id="stop1836" />
    </linearGradient>
    <clipPath
       clipPathUnits="userSpaceOnUse"
       id="clipPath910">
      <circle
         style="opacity:0.5;fill:#ffffff;fill-opacity:1;stroke:none;stroke-width:0;stroke-linecap:round;stroke-miterlimit:4;stroke-dasharray:none"
         id="circle912"
         cx="105.83333"
         cy="148.16666"
         r="26.458332" />
    </clipPath>
    <clipPath
       clipPathUnits="userSpaceOnUse"
       id="clipPath910-7">
      <circle
         style="opacity:0.5;fill:#ffffff;fill-opacity:1;stroke:none;stroke-width:0;stroke-linecap:round;stroke-miterlimit:4;stroke-dasharray:none"
         id="circle912-5"
         cx="105.83333"
         cy="148.16666"
         r="26.458332" />
    </clipPath>
    <filter
       id="mask-powermask-path-effect2702_inverse"
       inkscape:label="filtermask-powermask-path-effect2702"
       style="color-interpolation-filters:sRGB"
       height="100"
       width="100"
       x="-50"
       y="-50">
      <feColorMatrix
         id="mask-powermask-path-effect2702_primitive1"
         values="1"
         type="saturate"
         result="fbSourceGraphic" />
      <feColorMatrix
         id="mask-powermask-path-effect2702_primitive2"
         values="-1 0 0 0 1 0 -1 0 0 1 0 0 -1 0 1 0 0 0 1 0 "
         in="fbSourceGraphic" />
    </filter>
    <clipPath
       clipPathUnits="userSpaceOnUse"
       id="clipPath3251">
      <circle
         style="opacity:0.5;mix-blend-mode:normal;fill:#ffffff;fill-opacity:1;stroke:none;stroke-width:0"
         id="circle3253"
         clip-path="none"
         cy="26.458332"
         cx="26.458332"
         r="26.458332" />
    </clipPath>
    <clipPath
       clipPathUnits="userSpaceOnUse"
       id="clipPath4002">
      <circle
         style="opacity:1;fill:#000000;fill-opacity:1;stroke:none;stroke-width:0;stroke-linecap:round;stroke-miterlimit:4;stroke-dasharray:none"
         id="circle4004"
         cx="26.458332"
         cy="26.458332"
         r="26.458332" />
    </clipPath>
    <clipPath
       clipPathUnits="userSpaceOnUse"
       id="clipPath4348">
      <circle
         style="opacity:1;fill:#ffffff;fill-opacity:1;stroke:none;stroke-width:0;stroke-linecap:round;stroke-miterlimit:4;stroke-dasharray:none"
         id="circle4350"
         cx="26.458332"
         cy="26.458332"
         r="26.458332" />
    </clipPath>
    <filter
       id="mask-powermask-path-effect2702_inverse-7"
       inkscape:label="filtermask-powermask-path-effect2702"
       style="color-interpolation-filters:sRGB"
       height="100"
       width="100"
       x="-50"
       y="-50">
      <feColorMatrix
         id="mask-powermask-path-effect2702_primitive1-5"
         values="1"
         type="saturate"
         result="fbSourceGraphic" />
      <feColorMatrix
         id="mask-powermask-path-effect2702_primitive2-3"
         values="-1 0 0 0 1 0 -1 0 0 1 0 0 -1 0 1 0 0 0 1 0 "
         in="fbSourceGraphic" />
    </filter>
    <clipPath
       clipPathUnits="userSpaceOnUse"
       id="clipPath3251-5">
      <circle
         style="opacity:0.5;mix-blend-mode:normal;fill:#ffffff;fill-opacity:1;stroke:none;stroke-width:0"
         id="circle3253-6"
         clip-path="none"
         cy="26.458332"
         cx="26.458332"
         r="26.458332" />
    </clipPath>
    <clipPath
       clipPathUnits="userSpaceOnUse"
       id="clipPath4002-2">
      <circle
         style="opacity:1;fill:#000000;fill-opacity:1;stroke:none;stroke-width:0;stroke-linecap:round;stroke-miterlimit:4;stroke-dasharray:none"
         id="circle4004-9"
         cx="26.458332"
         cy="26.458332"
         r="26.458332" />
    </clipPath>
    <clipPath
       clipPathUnits="userSpaceOnUse"
       id="clipPath4348-1">
      <circle
         style="opacity:1;fill:#ffffff;fill-opacity:1;stroke:none;stroke-width:0;stroke-linecap:round;stroke-miterlimit:4;stroke-dasharray:none"
         id="circle4350-2"
         cx="26.458332"
         cy="26.458332"
         r="26.458332" />
    </clipPath>
    <clipPath
       clipPathUnits="userSpaceOnUse"
       id="clipPath1108">
      <circle
         style="fill:#ffffff;stroke:none;stroke-width:0;stroke-linecap:round;stroke-miterlimit:4;stroke-dasharray:none"
         id="circle1110"
         cx="26.458332"
         cy="26.458332"
         r="26.458332" />
    </clipPath>
    <filter
       id="mask-powermask-path-effect2702_inverse-75"
       inkscape:label="filtermask-powermask-path-effect2702"
       style="color-interpolation-filters:sRGB"
       height="100"
       width="100"
       x="-50"
       y="-50">
      <feColorMatrix
         id="mask-powermask-path-effect2702_primitive1-3"
         values="1"
         type="saturate"
         result="fbSourceGraphic" />
      <feColorMatrix
         id="mask-powermask-path-effect2702_primitive2-5"
         values="-1 0 0 0 1 0 -1 0 0 1 0 0 -1 0 1 0 0 0 1 0 "
         in="fbSourceGraphic" />
    </filter>
    <clipPath
       clipPathUnits="userSpaceOnUse"
       id="clipPath3251-6">
      <circle
         style="opacity:0.5;mix-blend-mode:normal;fill:#ffffff;fill-opacity:1;stroke:none;stroke-width:0"
         id="circle3253-2"
         clip-path="none"
         cy="26.458332"
         cx="26.458332"
         r="26.458332" />
    </clipPath>
    <clipPath
       clipPathUnits="userSpaceOnUse"
       id="clipPath4002-9">
      <circle
         style="opacity:1;fill:#000000;fill-opacity:1;stroke:none;stroke-width:0;stroke-linecap:round;stroke-miterlimit:4;stroke-dasharray:none"
         id="circle4004-1"
         cx="26.458332"
         cy="26.458332"
         r="26.458332" />
    </clipPath>
    <clipPath
       clipPathUnits="userSpaceOnUse"
       id="clipPath4348-2">
      <circle
         style="opacity:1;fill:#ffffff;fill-opacity:1;stroke:none;stroke-width:0;stroke-linecap:round;stroke-miterlimit:4;stroke-dasharray:none"
         id="circle4350-7"
         cx="26.458332"
         cy="26.458332"
         r="26.458332" />
    </clipPath>
    <clipPath
       clipPathUnits="userSpaceOnUse"
       id="clipPath1233">
      <circle
         style="fill:#ffffff;stroke:none;stroke-width:0;stroke-linecap:round;stroke-miterlimit:4;stroke-dasharray:none"
         id="circle1235"
         cx="26.458332"
         cy="26.458332"
         r="26.458332" />
    </clipPath>
    <linearGradient
       inkscape:collect="always"
       xlink:href="#linearGradient1838"
       id="linearGradient1840"
       x1="333.375"
       y1="407.45831"
       x2="333.375"
       y2="121.70834"
       gradientUnits="userSpaceOnUse" />
  </defs>
  <sodipodi:namedview
     units="px"
     showgrid="false"
     inkscape:document-rotation="0"
     inkscape:current-layer="layer1"
     inkscape:document-units="px"
     inkscape:cy="539.95458"
     inkscape:cx="960"
     inkscape:zoom="0.68802083"
     inkscape:pageshadow="2"
     inkscape:pageopacity="0"
     borderopacity="1.0"
     bordercolor="#666666"
     pagecolor="#cccccc"
     id="base"
     fit-margin-top="0"
     fit-margin-left="0"
     fit-margin-right="0"
     fit-margin-bottom="0"
     inkscape:snap-bbox="true"
     inkscape:bbox-paths="true"
     inkscape:bbox-nodes="true"
     inkscape:snap-bbox-edge-midpoints="true"
     inkscape:snap-bbox-midpoints="true"
     inkscape:object-paths="true"
     inkscape:snap-intersection-paths="true"
     inkscape:snap-smooth-nodes="true"
     inkscape:snap-midpoints="true"
     inkscape:snap-object-midpoints="true"
     inkscape:snap-center="true"
     inkscape:snap-text-baseline="true"
     inkscape:snap-page="true"
     inkscape:pagecheckerboard="0">
    <inkscape:grid
       type="xygrid"
       id="grid830"
       originx="253.99999"
       originy="142.875"
       empspacing="5" />
  </sodipodi:namedview>
  <metadata
     id="metadata5">
    <rdf:RDF>
      <cc:Work
         rdf:about="">
        <dc:format>image/svg+xml</dc:format>
        <dc:type
           rdf:resource="http://purl.org/dc/dcmitype/StillImage" />
      </cc:Work>
    </rdf:RDF>
  </metadata>
  <g
     inkscape:groupmode="layer"
     id="layer2"
     inkscape:label="Background"
     sodipodi:insensitive="true">
    <rect
       style="fill:url(#linearGradient1840);stroke-width:0;stroke-linecap:round"
       id="rect1675"
       width="508"
       height="285.75"
       x="79.375"
       y="121.70833"
       transform="translate(-79.375001,-121.70833)" />
  </g>
  <g
     id="layer1"
     inkscape:groupmode="layer"
     inkscape:label="Layer 1"
     transform="translate(-79.375,-121.70833)">
    <g
       id="g1498">
      <path
         id="path833"
         style="fill:#ffffff;stroke-width:0;stroke-linecap:round"
         d="m 333.32138,338.66667 a 21.166666,21.166666 0 0 0 -10.69508,2.93231 v 23.19529 c 0,2.4 1.89948,4.29948 4.29948,4.29948 h 12.89843 c 2.40001,0 4.29948,-1.89948 4.29948,-4.29948 v -10.74869 c 0,-1.21273 -0.937,-2.14974 -2.14974,-2.14974 -1.21273,0 -2.14974,0.93701 -2.14974,2.14974 v 10.74869 h -4.29947 v -10.74869 c 0,-1.21273 -0.93701,-2.14974 -2.14974,-2.14974 -1.21273,0 -2.14974,0.93701 -2.14974,2.14974 v 10.74869 h -4.29948 v -10.74869 c 0,-3.53635 2.91287,-6.44922 6.44922,-6.44922 1.65206,0 3.15297,0.65309 4.29948,1.69111 1.1465,-1.03802 2.64741,-1.69111 4.29947,-1.69111 3.53635,0 6.44922,2.91287 6.44922,6.44922 v 10.74869 c 0,4.72361 -3.87534,8.59896 -8.59896,8.59896 h -12.89843 c -4.72361,0 -8.59896,-3.87535 -8.59896,-8.59896 V 344.94762 A 21.166666,21.166666 0 0 0 312.20833,359.83334 21.166666,21.166666 0 0 0 333.375,381 21.166666,21.166666 0 0 0 354.54166,359.83334 21.166666,21.166666 0 0 0 333.375,338.66667 a 21.166666,21.166666 0 0 0 -0.0536,0 z" />
      <g
         aria-label="LinuxMint"
         transform="matrix(0.16536458,0,0,0.16536458,312.20833,338.66667)"
         id="text33"
         style="font-size:225px;font-family:Ubuntu;-inkscape-font-specification:Ubuntu;text-align:center;letter-spacing:-8px;text-anchor:middle;fill:#ffffff;stroke-width:0;stroke-linecap:round">
        <path
           d="M 304,210 V 54.75 h 18.9 V 192.9 h 75.6 V 210 Z"
           style="-inkscape-font-specification:Oxanium"
           id="path37" />
        <path
           d="m 412.99966,71.175 v -21.15 h 19.8 v 21.15 z m 0.9,138.825 V 93 h 18 v 117 z"
           style="-inkscape-font-specification:Oxanium"
           id="path39" />
        <path
           d="M 459.8996,210 V 93 h 63 q 33.75,0 33.75,33.75 V 210 h -18 v -85.5 q 0,-15.75 -15.75,-15.75 h -45 V 210 Z"
           style="-inkscape-font-specification:Oxanium"
           id="path41" />
        <path
           d="M 582.84927,176.25 V 93 h 18 v 85.5 q 0,15.75 15.75,15.75 h 45 V 93 h 18 v 117 h -63 q -33.75,0 -33.75,-33.75 z"
           style="-inkscape-font-specification:Oxanium"
           id="path43" />
        <path
           d="m 696.34894,206.625 41.4,-56.25 -39.825,-54 1.575,-3.375 h 16.65 l 31.95,44.325 31.95,-44.325 h 16.65 l 1.575,3.375 -39.6,54 41.175,56.25 -1.575,3.375 h -16.65 l -33.525,-46.575 -33.525,46.575 h -16.65 z"
           style="-inkscape-font-specification:Oxanium"
           id="path45" />
        <path
           d="M 818.84863,210 V 54.75 h 24.975 l 51.975,110.25 51.75,-110.25 h 24.975 V 210 h -18.9 V 83.1 l -49.05,104.4 h -17.775 l -49.05,-104.4 V 210 Z"
           style="-inkscape-font-specification:Oxanium"
           id="path47" />
        <path
           d="m 1001.8734,71.175 v -21.15 h 19.8 v 21.15 z m 0.9,138.825 V 93 h 18 v 117 z"
           style="-inkscape-font-specification:Oxanium"
           id="path49" />
        <path
           d="M 1048.7733,210 V 93 h 63 q 33.75,0 33.75,33.75 V 210 h -18 v -85.5 q 0,-15.75 -15.75,-15.75 h -45 V 210 Z"
           style="-inkscape-font-specification:Oxanium"
           id="path51" />
        <path
           d="M 1171.723,176.25 V 54.75 h 18 V 93 h 42.75 v 15.75 h -42.75 v 69.75 q 0,15.75 15.75,15.75 h 29.25 v 9 l -9,6.75 h -20.25 q -33.75,0 -33.75,-33.75 z"
           style="-inkscape-font-specification:Oxanium"
           id="path53" />
      </g>
    </g>
  </g>
</svg>
