<?xml version="1.0" encoding="UTF-8" standalone="no"?>
<svg
   xmlns:dc="http://purl.org/dc/elements/1.1/"
   xmlns:cc="http://creativecommons.org/ns#"
   xmlns:rdf="http://www.w3.org/1999/02/22-rdf-syntax-ns#"
   xmlns:svg="http://www.w3.org/2000/svg"
   xmlns="http://www.w3.org/2000/svg"
   xmlns:sodipodi="http://sodipodi.sourceforge.net/DTD/sodipodi-0.dtd"
   xmlns:inkscape="http://www.inkscape.org/namespaces/inkscape"
   width="1690"
   height="372"
   viewBox="0 0 1690 372"
   id="svg2"
   version="1.1"
   inkscape:version="1.0.2 (1.0.2+r75+1)"
   sodipodi:docname="Mint-Y-logoLM-02-1-one.svg"
   inkscape:export-filename="/home/sebastien/linuxmint-logo/special-requests/Mint-Y-logoLM-02-1-one.png"
   inkscape:export-xdpi="96"
   inkscape:export-ydpi="96">
  <title
     id="title3343">Linux Mint logo + name</title>
  <defs
     id="defs4" />
  <sodipodi:namedview
     id="base"
     pagecolor="#cccccc"
     bordercolor="#666666"
     borderopacity="1.0"
     inkscape:pageopacity="0"
     inkscape:pageshadow="2"
     inkscape:zoom="0.74023669"
     inkscape:cx="845"
     inkscape:cy="186"
     inkscape:document-units="px"
     inkscape:current-layer="layer2"
     showgrid="false"
     inkscape:window-width="1024"
     inkscape:window-height="550"
     inkscape:window-x="0"
     inkscape:window-y="0"
     inkscape:window-maximized="1"
     showguides="false"
     inkscape:guide-bbox="true"
     units="px"
     fit-margin-top="8"
     fit-margin-left="8"
     fit-margin-right="8"
     fit-margin-bottom="8"
     showborder="true"
     inkscape:showpageshadow="false"
     inkscape:document-rotation="0">
    <inkscape:grid
       type="xygrid"
       id="grid4139"
       spacingx="16"
       spacingy="16"
       empspacing="2"
       originx="-6.0000004"
       originy="-6"
       empcolor="#ff4141"
       empopacity="0.1254902"
       color="#4141ff"
       opacity="0.1254902" />
  </sodipodi:namedview>
  <metadata
     id="metadata7">
    <rdf:RDF>
      <cc:Work
         rdf:about="">
        <dc:format>image/svg+xml</dc:format>
        <dc:type
           rdf:resource="http://purl.org/dc/dcmitype/StillImage" />
        <dc:title>Linux Mint logo + name</dc:title>
        <dc:date>2018-11-12</dc:date>
        <dc:creator>
          <cc:Agent>
            <dc:title>copyright 2018 Sebastien Bouchard</dc:title>
          </cc:Agent>
        </dc:creator>
        <dc:publisher>
          <cc:Agent>
            <dc:title>Linux Mint</dc:title>
          </cc:Agent>
        </dc:publisher>
        <dc:description>2018 Linux Mint logo, modified from 2007 Linux Mint logo.</dc:description>
        <dc:source>copyright 2007 Carlos Porto, copyright 2007 Clement Lefebvre</dc:source>
        <dc:subject>
          <rdf:Bag>
            <rdf:li>Linux Mint</rdf:li>
            <rdf:li>logo</rdf:li>
          </rdf:Bag>
        </dc:subject>
        <cc:license
           rdf:resource="https://www.gnu.org/licenses/gpl-3.0.html" />
        <dc:rights>
          <cc:Agent>
            <dc:title>SPDX-License-Identifier: GPL-3.0-or-later</dc:title>
          </cc:Agent>
        </dc:rights>
        <dc:identifier>N/A</dc:identifier>
        <dc:coverage>Worldwide</dc:coverage>
        <dc:contributor>
          <cc:Agent>
            <dc:title />
          </cc:Agent>
        </dc:contributor>
        <dc:relation>N/A</dc:relation>
        <dc:language>N/A</dc:language>
      </cc:Work>
    </rdf:RDF>
  </metadata>
  <g
     inkscape:groupmode="layer"
     id="layer1"
     inkscape:label="Bottom"
     style="display:inline"
     sodipodi:insensitive="true">
    <path
       style="color:#000000;font-style:normal;font-variant:normal;font-weight:500;font-stretch:normal;font-size:275px;line-height:100%;font-family:Ubuntu;-inkscape-font-specification:'Ubuntu Medium';text-indent:0;text-align:start;text-decoration:none;text-decoration-line:none;text-decoration-style:solid;text-decoration-color:#000000;letter-spacing:-10px;word-spacing:-10px;text-transform:none;direction:ltr;block-progression:tb;writing-mode:lr-tb;baseline-shift:baseline;text-anchor:start;white-space:normal;clip-rule:nonzero;display:inline;overflow:visible;visibility:visible;opacity:1;isolation:auto;mix-blend-mode:normal;color-interpolation:sRGB;color-interpolation-filters:linearRGB;solid-color:#000000;solid-opacity:1;fill:#ffffff;fill-opacity:1;fill-rule:nonzero;stroke:none;stroke-width:36;stroke-linecap:butt;stroke-linejoin:miter;stroke-miterlimit:3.9000001;stroke-dasharray:none;stroke-dashoffset:0;stroke-opacity:1;color-rendering:auto;image-rendering:auto;shape-rendering:auto;text-rendering:auto;enable-background:accumulate"
       d="m 593.75586,56.175781 c -9.5543,0 -19.53649,3.682317 -26.68359,10.179688 -7.90045,7.182219 -11.94141,18.257217 -11.94141,28.445312 0,5.806579 1.44211,11.831329 4.125,17.265629 l 0,6.80859 0,113.84961 -64.60547,0 0,-160.59961 -70.65039,0 0,226.57422 135.25586,0 21.19336,0 48.08203,0 45.46875,0 19.98828,0 17.625,0 16.38672,0 52.88867,0 0,-40.16016 c 2.51964,6.44766 5.85004,12.46734 10.04883,17.8418 l 0.10547,0.13672 0.10742,0.13281 c 6.71631,8.26623 15.56637,14.65177 25.58008,18.94336 l 0.0703,0.0312 0.0703,0.0293 c 10.77164,4.50906 22.83533,6.3457 36.09961,6.3457 13.16441,0 25.47234,-0.97828 36.95118,-3.02539 2.9393,-0.47396 5.70507,-0.94888 8.37109,-1.42773 l -0.57617,1.15234 74.11718,0 5.05274,-9.64649 c 3.78165,-7.21952 8.63195,-15.69774 14.51367,-25.32421 1.16364,-1.88183 2.33406,-3.55548 3.5,-5.36329 1.19888,1.89254 2.49237,3.74091 3.63086,5.66211 l 0.20313,0.33985 0.21679,0.33398 c 2.90915,4.44923 5.53595,8.77438 7.88475,12.96875 l 0.2129,0.37696 0.2285,0.36718 c 2.4761,3.96171 4.3487,7.35534 5.5977,9.99219 l 4.875,10.29297 76.748,0 -13.2832,-26.15039 c -6.3369,-12.47596 -14.2957,-25.44524 -23.8496,-39.01563 -6.6856,-9.81774 -13.7003,-19.49864 -20.8769,-29.11132 l 59.5722,-85.54688 -79.1699,0 -20.75,31.96484 -20.74804,-31.96484 -45.57227,0 -53.82031,0 -15.45312,0 -17.07618,0 -14.4707,0 -54.80469,0 0,39.72266 c -2.49518,-6.42123 -5.89964,-12.3831 -10.24609,-17.625 -6.66025,-8.4297 -15.70258,-14.77257 -25.9043,-18.83594 -10.77631,-4.4784 -22.85365,-6.28711 -36.20703,-6.28711 -13.26078,0 -25.56144,0.872 -36.95508,2.70312 -10.71782,1.72251 -19.63182,3.55134 -27.11523,5.68946 l -9.23633,2.63867 0,-8.00586 0,-7.98242 c 2.32561,-5.12092 3.57422,-10.69974 3.57422,-16.091799 0,-10.188095 -4.04097,-21.263093 -11.94141,-28.445312 -7.04666,-6.406058 -16.9082,-10.179688 -26.4082,-10.179688 z m 780.24414,0 c -9.5543,0 -19.5365,3.682317 -26.6836,10.179688 -1.8923,1.720331 -3.5569,3.668204 -5.0039,5.769531 l -12.6563,0 -14.6562,0 -43.0664,0 -5.1992,8.980469 c -4.3202,7.462221 -8.9751,16.314766 -14.0547,26.662111 -5.022,10.2301 -10.1271,20.99806 -15.3164,32.30273 l -0.012,0.0215 c -4.2981,9.21245 -8.4883,18.72139 -12.6543,28.30078 -4.1799,-9.61105 -8.3846,-19.15285 -12.6973,-28.39453 -5.1772,-11.27685 -10.2714,-22.02337 -15.2812,-32.23047 -5.0805,-10.347345 -9.7345,-19.19989 -14.0547,-26.662111 l -5.2012,-8.980469 -10.377,0 -48.0625,0 -1.9707,15.767578 c -1.6767,13.413722 -3.2531,27.982482 -4.7343,43.720702 -1.477,15.69233 -2.8598,31.92818 -4.1504,48.70703 l -0.01,0.0898 -0.01,0.0918 c -1.1006,16.50883 -2.2001,33.20107 -3.3007,50.07617 l -0.01,0.0977 0,0.0977 c -0.919,16.91042 -1.7468,33.27304 -2.4824,49.08984 l -0.877,18.83594 70.3711,0 0.5762,-17.4043 c 0.6934,-20.97551 1.482,-42.62534 2.3398,-64.75586 1.6332,3.73867 3.3526,7.56569 4.8809,11.19532 l 0.1113,0.26757 0.1211,0.26367 c 3.0517,6.64196 5.8223,12.89851 8.3106,18.76368 2.5812,6.08438 4.8003,11.26022 6.664,15.54687 l 4.7051,10.82422 49.4531,0 4.7051,-10.82422 c 1.8257,-4.19917 4.0213,-9.22828 6.584,-15.08594 l 0.041,-0.0918 0.039,-0.0937 c 2.5484,-6.00702 5.2806,-12.38532 8.1992,-19.13477 1.6586,-3.70931 3.3138,-7.59651 4.9707,-11.4043 1.0182,22.05491 1.901,43.63092 2.5918,64.5293 l 0.5762,17.4043 70.371,0 61.6836,0 53.2266,0 12.2305,0 17.6211,0 11.1484,0 58.127,0 0,-33.78125 c 2.0803,5.00647 4.7151,9.72644 7.9668,14.01172 l 0.094,0.12109 0.098,0.11914 c 6.0973,7.76018 14.3671,13.6383 23.6132,17.38672 l 0.076,0.0312 0.078,0.0293 c 9.7756,3.85876 20.5852,5.38281 32.459,5.38281 9.6767,0 18.6206,-1.02115 26.918,-3.44141 6.6359,-1.76675 12.295,-3.57118 17.2969,-5.71484 l 13.5351,-5.79883 -12.8808,-61.82812 -19.9297,7.9707 c -1.6615,0.66458 -4.9104,1.73264 -9.2696,2.90625 l -0.086,0.0234 -0.09,0.0254 c -2.6031,0.72887 -6.3184,1.25781 -11.0957,1.25781 -2.6867,0 -3.8307,-0.17894 -4.2754,-0.28711 0.1979,0.18622 -1.9258,-4.46418 -1.9258,-13.88867 l 0,-40.57422 51.1504,0 0,-63.77539 -51.1504,0 0,-46.669922 -69.2735,11.451172 0,15.269531 0,59.671879 c -2.4952,-6.42123 -5.8996,-12.3831 -10.246,-17.625 -6.6603,-8.4297 -15.7026,-14.77257 -25.9043,-18.83594 -10.7763,-4.4784 -22.8556,-6.28711 -36.209,-6.28711 -13.2608,0 -25.5596,0.872 -36.9532,2.70312 -10.7179,1.72251 -19.6337,3.55134 -27.1171,5.68946 l -9.2364,2.63867 0,-8.00586 0,-7.97852 c 2.3262,-5.122 3.5743,-10.70224 3.5743,-16.095699 0,-10.188095 -4.0411,-21.263093 -11.9415,-28.445312 C 1393.3605,59.949321 1383.5,56.175781 1374,56.175781 Z"
       id="path3491"
       inkscape:connector-curvature="0" />
  </g>
  <g
     inkscape:groupmode="layer"
     id="layer3"
     inkscape:label="Temp"
     style="display:inline" />
  <g
     inkscape:groupmode="layer"
     id="layer4"
     inkscape:label="Text"
     transform="translate(10,10)"
     style="display:inline"
     sodipodi:insensitive="true">
    <g
       transform="translate(-10,-10)"
       style="color:#000000;font-style:normal;font-variant:normal;font-weight:bold;font-stretch:normal;font-size:180px;line-height:100%;font-family:sans-serif;-inkscape-font-specification:'sans-serif Bold';text-indent:0;text-align:start;text-decoration:none;text-decoration-line:none;text-decoration-style:solid;text-decoration-color:#000000;letter-spacing:0px;word-spacing:0px;text-transform:none;direction:ltr;block-progression:tb;writing-mode:lr-tb;baseline-shift:baseline;text-anchor:start;white-space:normal;clip-rule:nonzero;display:inline;overflow:visible;visibility:visible;opacity:1;isolation:auto;mix-blend-mode:normal;color-interpolation:sRGB;color-interpolation-filters:linearRGB;solid-color:#000000;solid-opacity:1;fill:#ffffff;fill-opacity:1;fill-rule:nonzero;stroke:none;stroke-width:0.99999994px;stroke-linecap:butt;stroke-linejoin:miter;stroke-miterlimit:4;stroke-dasharray:none;stroke-dashoffset:0;stroke-opacity:1;color-rendering:auto;image-rendering:auto;shape-rendering:auto;text-rendering:auto;enable-background:accumulate"
       id="text4200">
      <path
         d="m 562.44999,250.72501 0,29.975 -120.45,0 0,-190.574998 34.65,0 0,160.599998 85.8,0 z"
         style="font-style:normal;font-variant:normal;font-weight:500;font-stretch:normal;font-size:275px;line-height:100%;font-family:Ubuntu;-inkscape-font-specification:'Ubuntu Medium';letter-spacing:-10px;word-spacing:-10px;fill:#808080;fill-opacity:1"
         id="path3472"
         inkscape:connector-curvature="0" />
      <path
         d="m 610.53085,280.70001 -33.275,0 0,-143.825 33.275,0 0,143.825 z m 3.575,-185.899998 q 0,9.349998 -6.05,14.849998 -6.05,5.5 -14.3,5.5 -8.525,0 -14.575,-5.5 -6.05,-5.5 -6.05,-14.849998 0,-9.625 6.05,-15.125 6.05,-5.5 14.575,-5.5 8.25,0 14.3,5.5 6.05,5.5 6.05,15.125 z"
         style="font-style:normal;font-variant:normal;font-weight:500;font-stretch:normal;font-size:275px;line-height:100%;font-family:Ubuntu;-inkscape-font-specification:'Ubuntu Medium';letter-spacing:-10px;word-spacing:-10px;fill:#808080;fill-opacity:1"
         id="path3474"
         inkscape:connector-curvature="0" />
      <path
         d="m 642.71327,141.55001 q 9.625,-2.75 25.025,-5.225 15.4,-2.475 34.1,-2.475 17.6,0 29.425,4.95 11.825,4.675 18.7,13.475 7.15,8.525 9.9,20.9 3.025,12.1 3.025,26.675 l 0,80.85 -33.275,0 0,-75.625 q 0,-11.55 -1.65,-19.525 -1.375,-8.25 -4.95,-13.2 -3.3,-5.225 -9.35,-7.425 -5.775,-2.475 -14.3,-2.475 -6.325,0 -13.2,0.825 -6.875,0.825 -10.175,1.375 l 0,116.05 -33.275,0 0,-139.15 z"
         style="font-style:normal;font-variant:normal;font-weight:500;font-stretch:normal;font-size:275px;line-height:100%;font-family:Ubuntu;-inkscape-font-specification:'Ubuntu Medium';letter-spacing:-10px;word-spacing:-10px;fill:#808080;fill-opacity:1"
         id="path3476"
         inkscape:connector-curvature="0" />
      <path
         d="m 911.82108,276.30001 q -9.625,2.475 -25.025,4.95 -15.4,2.75 -33.825,2.75 -17.325,0 -29.15,-4.95 -11.55,-4.95 -18.7,-13.75 -6.875,-8.8 -9.9,-20.9 -3.025,-12.375 -3.025,-26.95 l 0,-80.575 33.275,0 0,75.35 q 0,23.1 6.6,33 6.875,9.9 23.65,9.9 6.05,0 12.65,-0.55 6.875,-0.55 10.175,-1.375 l 0,-116.325 33.275,0 0,139.425 z"
         style="font-style:normal;font-variant:normal;font-weight:500;font-stretch:normal;font-size:275px;line-height:100%;font-family:Ubuntu;-inkscape-font-specification:'Ubuntu Medium';letter-spacing:-10px;word-spacing:-10px;fill:#808080;fill-opacity:1"
         id="path3478"
         inkscape:connector-curvature="0" />
      <path
         d="m 996.14178,183.90001 30.52502,-47.025 34.925,0 -47.3,67.925 q 14.85,19.25 28.325,39.05 13.75,19.525 22.55,36.85 l -36.025,0 q -2.475,-5.225 -6.6,-11.825 -3.85,-6.875 -8.525,-14.025 -4.4,-7.425 -9.35,-14.575 -4.95002,-7.15 -9.62502,-13.475 -9.625,12.375 -18.975,27.5 -9.075,14.85 -15.125,26.4 l -34.1,0 q 4.125,-8.25 9.9,-17.6 5.775,-9.35 12.375,-18.975 6.6,-9.9 13.475,-19.525 7.15,-9.9 14.025,-18.7 l -47.575,-69.025 36.575,0 30.525,47.025 z"
         style="font-style:normal;font-variant:normal;font-weight:500;font-stretch:normal;font-size:275px;line-height:100%;font-family:Ubuntu;-inkscape-font-specification:'Ubuntu Medium';letter-spacing:-10px;word-spacing:-10px;fill:#808080;fill-opacity:1"
         id="path3480"
         inkscape:connector-curvature="0" />
      <path
         d="m 1167.0894,90.125012 q 6.05,10.449998 13.475,25.574998 7.425,15.125 15.125,31.9 7.7,16.5 15.125,33.825 7.7,17.05 14.025,31.625 6.325,-14.575 13.75,-31.625 7.425,-17.325 15.125,-33.825 7.7,-16.775 15.125,-31.9 7.425,-15.125 13.475,-25.574998 l 31.35,0 q 2.475,20.899998 4.675,44.549998 2.2,23.375 3.85,48.125 1.925,24.475 3.3,49.5 1.65,24.75 2.75,48.4 l -34.1,0 q -1.1,-33.275 -2.75,-68.475 -1.375,-35.2 -4.4,-68.2 -3.025,6.325 -7.15,15.125 -4.125,8.8 -8.8,19.25 -4.675,10.175 -9.625,21.175 -4.675,11 -9.35,21.45 -4.4,10.175 -8.25,19.25 -3.85,8.8 -6.6,15.125 l -25.85,0 q -2.75,-6.325 -6.6,-15.4 -3.85,-9.075 -8.525,-19.25 -4.4,-10.45 -9.35,-21.45 -4.675,-11 -9.35,-21.175 -4.675,-10.175 -8.8,-18.975 -4.125,-9.075 -7.15,-15.125 -3.025,33 -4.675,68.2 -1.375,35.2 -2.475,68.475 l -34.1,0 q 1.1,-23.65 2.475,-48.95 1.65,-25.3 3.3,-50.05 1.925,-25.025 4.125,-48.4 2.2,-23.375 4.675,-43.174998 l 32.175,0 z"
         style="font-style:normal;font-variant:normal;font-weight:500;font-stretch:normal;font-size:275px;line-height:100%;font-family:Ubuntu;-inkscape-font-specification:'Ubuntu Medium';letter-spacing:-10px;word-spacing:-10px;fill:#00e000;fill-opacity:1"
         id="path3482"
         inkscape:connector-curvature="0" />
      <path
         d="m 1390.775,280.70001 -33.275,0 0,-143.825 33.275,0 0,143.825 z m 3.575,-185.899998 q 0,9.349998 -6.05,14.849998 -6.05,5.5 -14.3,5.5 -8.525,0 -14.575,-5.5 -6.05,-5.5 -6.05,-14.849998 0,-9.625 6.05,-15.125 6.05,-5.5 14.575,-5.5 8.25,0 14.3,5.5 6.05,5.5 6.05,15.125 z"
         style="font-style:normal;font-variant:normal;font-weight:500;font-stretch:normal;font-size:275px;line-height:100%;font-family:Ubuntu;-inkscape-font-specification:'Ubuntu Medium';letter-spacing:-10px;word-spacing:-10px;fill:#00e000;fill-opacity:1"
         id="path3484"
         inkscape:connector-curvature="0" />
      <path
         d="m 1422.9574,141.55001 q 9.625,-2.75 25.025,-5.225 15.4,-2.475 34.1,-2.475 17.6,0 29.425,4.95 11.825,4.675 18.7,13.475 7.15,8.525 9.9,20.9 3.025,12.1 3.025,26.675 l 0,80.85 -33.275,0 0,-75.625 q 0,-11.55 -1.65,-19.525 -1.375,-8.25 -4.95,-13.2 -3.3,-5.225 -9.35,-7.425 -5.775,-2.475 -14.3,-2.475 -6.325,0 -13.2,0.825 -6.875,0.825 -10.175,1.375 l 0,116.05 -33.275,0 0,-139.15 z"
         style="font-style:normal;font-variant:normal;font-weight:500;font-stretch:normal;font-size:275px;line-height:100%;font-family:Ubuntu;-inkscape-font-specification:'Ubuntu Medium';letter-spacing:-10px;word-spacing:-10px;fill:#00e000;fill-opacity:1"
         id="path3486"
         inkscape:connector-curvature="0" />
      <path
         d="m 1572.4402,98.925012 33.275,-5.5 0,43.449998 51.15,0 0,27.775 -51.15,0 0,58.575 q 0,17.325 5.5,24.75 5.5,7.425 18.7,7.425 9.075,0 15.95,-1.925 7.15,-1.925 11.275,-3.575 l 5.5,26.4 q -5.775,2.475 -15.125,4.95 -9.35,2.75 -22,2.75 -15.4,0 -25.85,-4.125 -10.175,-4.125 -16.225,-11.825 -6.05,-7.975 -8.525,-18.975 -2.475,-11.275 -2.475,-25.575 l 0,-124.574998 z"
         style="font-style:normal;font-variant:normal;font-weight:500;font-stretch:normal;font-size:275px;line-height:100%;font-family:Ubuntu;-inkscape-font-specification:'Ubuntu Medium';letter-spacing:-10px;word-spacing:-10px;fill:#00e000;fill-opacity:1"
         id="path3488"
         inkscape:connector-curvature="0" />
    </g>
  </g>
  <g
     inkscape:groupmode="layer"
     id="layer2"
     inkscape:label="Logo"
     transform="translate(-310,-370.36217)"
     style="display:inline">
    <g
       inkscape:label="Bottom"
       id="layer2-9">
      <g
         id="g4152">
        <path
           sodipodi:nodetypes="sscsscs"
           inkscape:connector-curvature="0"
           id="path4150"
           d="m 496,378.36217 c 98.612,-10e-6 178,79.388 178,177.99999 V 734.36217 H 496 c -98.612,0 -178,-79.38802 -178,-178.00001 V 378.36219 Z"
           style="fill:#ffffff;fill-opacity:1;stroke:none;stroke-width:16;stroke-linecap:round;stroke-linejoin:round;stroke-miterlimit:4;stroke-dasharray:none;stroke-opacity:1" />
        <path
           style="fill:#00e000;fill-opacity:1;stroke:none;stroke-width:16;stroke-linecap:round;stroke-linejoin:round;stroke-miterlimit:4;stroke-dasharray:none;stroke-opacity:1"
           d="m 496,396.36217 c 88.64,-10e-6 160,71.36 160,159.99999 V 716.36217 H 496 c -88.64,0 -160,-71.36002 -160,-160.00001 V 396.36219 Z"
           id="rect4136"
           inkscape:connector-curvature="0"
           sodipodi:nodetypes="sscsscs" />
      </g>
    </g>
    <g
       id="g921">
      <path
         inkscape:connector-curvature="0"
         style="color:#000000;clip-rule:nonzero;display:inline;overflow:visible;visibility:visible;isolation:auto;mix-blend-mode:normal;color-interpolation:sRGB;color-interpolation-filters:linearRGB;solid-color:#000000;solid-opacity:1;fill:none;fill-opacity:1;fill-rule:evenodd;stroke:#ffffff;stroke-width:32;stroke-linecap:butt;stroke-linejoin:miter;stroke-miterlimit:4;stroke-dasharray:none;stroke-dashoffset:0;stroke-opacity:1;color-rendering:auto;image-rendering:auto;shape-rendering:auto;text-rendering:auto;enable-background:accumulate"
         d="m 400,444.36217 v 160 c 0,26.50967 21.49033,48 48,48 h 32 32 32 c 26.50967,0 48,-21.49033 48,-48 v -80 c 0,-17.67311 -14.32689,-32 -32,-32 -17.67311,0 -32,14.32689 -32,32 v 80"
         id="path3348"
         sodipodi:nodetypes="cssccsssssc" />
      <path
         sodipodi:nodetypes="cscc"
         inkscape:connector-curvature="0"
         id="path4193"
         d="m 528,524.36217 c 0,-17.67311 -14.32689,-32 -32,-32 -17.67311,0 -32,14.32689 -32,32 v 80"
         style="fill:none;fill-opacity:0.266667;stroke:#ffffff;stroke-width:32;stroke-linecap:butt;stroke-linejoin:miter;stroke-miterlimit:4;stroke-dasharray:none;stroke-opacity:1" />
    </g>
  </g>
</svg>
